<?xml version="1.0" encoding="utf-8"?>
<!-- Generator: Adobe Illustrator 19.0.0, SVG Export Plug-In . SVG Version: 6.00 Build 0)  -->
<svg version="1.1" id="Layer_1" xmlns="http://www.w3.org/2000/svg" xmlns:xlink="http://www.w3.org/1999/xlink" x="0px" y="0px"
	 viewBox="0 0 32 32" style="enable-background:new 0 0 32 32;" xml:space="preserve">
<g>
	<g>
		<path style="fill:#C4982D;" d="M16,2.3c7.5,0,13.7,6.1,13.7,13.7c0,7.5-6.1,13.7-13.7,13.7C8.5,29.7,2.3,23.5,2.3,16
			C2.3,8.5,8.5,2.3,16,2.3 M16,0.3C7.3,0.3,0.3,7.3,0.3,16c0,8.7,7,15.7,15.7,15.7c8.7,0,15.7-7,15.7-15.7C31.7,7.3,24.7,0.3,16,0.3
			L16,0.3z"/>
	</g>
	<g>
		<polygon style="fill:#C4982D;fill-opacity:0.8;" points="22.9,21.9 22.9,10.1 9.4,21.9 		"/>
		<polygon style="fill:#C4982D;fill-opacity:0.6;" points="9.4,21.9 9.4,10.1 22.9,21.9 		"/>
	</g>
</g>
</svg>
