<?xml version="1.0" standalone="no"?>
<!DOCTYPE svg PUBLIC "-//W3C//DTD SVG 1.1//EN" "http://www.w3.org/Graphics/SVG/1.1/DTD/svg11.dtd" >
<svg xmlns="http://www.w3.org/2000/svg" xmlns:xlink="http://www.w3.org/1999/xlink" version="1.1">
<metadata></metadata>
<defs>
<font id="mairyblack" horiz-adv-x="849" >
<font-face units-per-em="2048" ascent="1536" descent="-512" />
<missing-glyph horiz-adv-x="387" />
<glyph unicode="&#xfb01;" horiz-adv-x="1130" d="M6 633v117q0 35 22.5 57t59.5 22h57q4 69 17.5 127.5t39.5 112.5t64.5 91.5t96 60t129.5 22.5q79 0 147 -24q33 -10 50.5 -37t17.5 -62l-29 -108q-8 -25 -28.5 -41.5t-47.5 -16.5q-13 0 -35.5 3.5t-38.5 3.5q-28 0 -46 -12.5t-25.5 -37.5t-9.5 -40t-3 -42h134 q35 0 58 -22t23 -57v-117q0 -35 -23 -57.5t-58 -22.5h-134v-473q0 -35 -22 -57.5t-57 -22.5h-140q-35 0 -57.5 22.5t-22.5 57.5v473h-57q-37 0 -59.5 22.5t-22.5 57.5zM743 1032q0 66 46 112t112 46t112 -46t46 -112t-46 -112t-112 -46t-112 46t-46 112zM752 82v666 q0 35 22 58t57 23h138q35 0 58.5 -23t23.5 -58v-666q0 -35 -23.5 -58.5t-58.5 -23.5h-138q-35 0 -57 23t-22 59z" />
<glyph unicode="&#xfb02;" horiz-adv-x="1150" d="M6 633v117q0 35 22.5 57t59.5 22h57q4 69 17.5 127.5t39.5 112.5t64.5 91.5t96 60t129.5 22.5q79 0 147 -24q33 -10 50.5 -37t17.5 -62l-29 -108q-8 -25 -28.5 -41.5t-47.5 -16.5q-13 0 -35.5 3.5t-38.5 3.5q-28 0 -46 -12.5t-25.5 -37.5t-9.5 -40t-3 -42h134 q35 0 58 -22t23 -57v-117q0 -35 -23 -57.5t-58 -22.5h-134v-473q0 -35 -22 -57.5t-57 -22.5h-140q-35 0 -57.5 22.5t-22.5 57.5v473h-57q-37 0 -59.5 22.5t-22.5 57.5zM750 207v874q0 35 22.5 58.5t56.5 23.5h138q35 0 58.5 -23.5t23.5 -58.5v-815q0 -35 12 -39 q43 -22 43 -71v-66q0 -59 -66 -80q-64 -20 -112 -20q-176 0 -176 217z" />
<glyph horiz-adv-x="0" />
<glyph unicode="&#xd;" horiz-adv-x="579" />
<glyph unicode=" "  horiz-adv-x="387" />
<glyph unicode="&#x09;" horiz-adv-x="387" />
<glyph unicode="&#xa0;" horiz-adv-x="387" />
<glyph unicode="!" horiz-adv-x="477" d="M78 152q0 69 46 115t114 46t114.5 -46t46.5 -115q0 -68 -47 -115t-114 -47t-113.5 47t-46.5 115zM90 1079q0 37 22.5 60.5t57.5 23.5h135q36 0 60 -24t24 -60l-18 -633q0 -36 -24 -60t-60 -24h-103q-35 0 -57.5 23.5t-22.5 60.5z" />
<glyph unicode="&#x22;" d="M78 1075q0 38 23.5 63t58.5 25h151q35 0 58.5 -25t23.5 -63l-24 -305q-3 -36 -26 -58t-58 -22h-99q-35 0 -58 22t-26 58zM457 1075q0 38 23.5 63t58.5 25h151q35 0 58.5 -25t23.5 -63l-24 -305q-3 -36 -26 -58t-58 -22h-99q-35 0 -58 22t-26 58z" />
<glyph unicode="#" horiz-adv-x="1488" d="M78 324v114q0 36 24 59t60 23h172l45 133h-111q-35 0 -59.5 23.5t-24.5 58.5v113q0 38 24 61t60 23h211l64 182q13 25 29 37t51 12h139q38 0 61 -23.5t23 -60.5l-51 -147h166l57 162q16 34 35 51.5t51 17.5h137q36 0 60 -24t24 -60l-51 -147h55q37 0 59.5 -23t22.5 -61 v-113q0 -36 -23 -59t-59 -23h-149l-45 -133h88q37 0 59.5 -22.5t22.5 -59.5v-114q0 -37 -22.5 -59.5t-59.5 -22.5h-189l-63 -181q-12 -20 -21 -31t-26 -20.5t-39 -9.5h-140q-37 0 -60 25t-23 63l53 154h-164q-32 -100 -64 -191q-9 -17 -15.5 -26t-22 -17t-37.5 -8h-146 q-36 0 -60 25t-24 63l54 154h-74q-36 0 -60 23t-24 59zM651 520h164l43 133h-156z" />
<glyph unicode="$" horiz-adv-x="1056" d="M78 793q0 84 17 146t58 114t117.5 82.5t188.5 38.5v135q0 71 53 71h43q55 0 55 -71v-138q108 -12 197 -38q78 -27 78 -82q0 -23 -8 -107q-5 -45 -29 -58.5t-70 -13.5l-168 21v-154q59 -16 104 -32.5t97.5 -47.5t87 -70t57.5 -99.5t23 -135.5q0 -159 -92 -245.5 t-277 -108.5v-119q0 -71 -55 -71h-43q-53 0 -53 71v113q-173 8 -295 69q-55 29 -55 74q0 11 8 35l33 100q10 26 33 40t48 14q13 0 31 -4q92 -35 197 -50v199q-47 11 -75.5 18t-73.5 22t-73 30.5t-61.5 40t-52.5 53.5t-32 69.5t-13 88.5zM385 829q0 -33 74 -53v115 q-38 -6 -56 -20.5t-18 -41.5zM610 287q60 22 60 65q0 48 -60 74v-139z" />
<glyph unicode="%" horiz-adv-x="1445" d="M78 909q0 129 67.5 195.5t180.5 66.5t180 -66.5t67 -195.5t-66.5 -193.5t-180.5 -64.5t-181 64.5t-67 193.5zM279 909q0 -32 15 -44.5t32 -12.5q10 0 19.5 3.5t18.5 17t9 36.5q0 32 -15 46t-32 14t-32 -14t-15 -46zM356 66q0 -29 19 -47.5t47 -18.5h156q28 0 41 11.5 t26 37.5l447 1049q0 29 -19 47t-47 18h-158q-26 0 -40.5 -12t-26.5 -37zM872 248q0 129 67.5 195.5t180.5 66.5t180.5 -66.5t67.5 -195.5t-67 -193.5t-181 -64.5t-181 64.5t-67 193.5zM1073 248q0 -32 15 -45t32 -13t32 13t15 45t-15 45.5t-32 13.5t-32 -13.5t-15 -45.5z " />
<glyph unicode="&#x26;" horiz-adv-x="1228" d="M78 336q0 69 13 122t51.5 100.5t101.5 72.5q-27 44 -41.5 101t-14.5 104q0 159 103 247t303 88q209 0 315.5 -90t106.5 -256q0 -27 -6.5 -58.5t-20.5 -64.5t-43 -55t-67 -22h-66q-49 0 -88 24.5t-39 63.5q0 10 4 44.5t4 65.5q0 25 -25.5 47.5t-74.5 22.5 q-33 0 -58.5 -19.5t-25.5 -48.5q0 -36 33 -65l471 -465q21 -21 45 -21q41 0 67 -32l41 -54q21 -38 21 -55q0 -53 -68 -102q-24 -19 -64 -30t-67 -11q-42 0 -83 21t-95 63q-105 -84 -272 -84q-215 0 -338 87.5t-123 258.5zM401 338q0 -72 142 -72q30 0 59 13l-141 139 q-37 -9 -48.5 -29.5t-11.5 -50.5z" />
<glyph unicode="'" horiz-adv-x="471" d="M78 1075q0 38 23.5 63t58.5 25h151q35 0 58.5 -25t23.5 -63l-24 -305q-3 -36 -26 -58t-58 -22h-99q-35 0 -58 22t-26 58z" />
<glyph unicode="(" horiz-adv-x="585" d="M98 590q0 259 18.5 438t63.5 358q16 72 82 72h144q35 0 58 -25t23 -65q-39 -163 -61.5 -382.5t-22.5 -410.5q0 -325 84 -784q0 -38 -23 -64t-58 -26h-144q-66 0 -82 74q-38 179 -60 399.5t-22 415.5z" />
<glyph unicode=")" horiz-adv-x="585" d="M98 -209q84 459 84 784q0 191 -22.5 410.5t-61.5 382.5q0 40 23.5 65t58.5 25h144q66 0 82 -72q44 -178 62.5 -357t18.5 -439q0 -196 -21.5 -416.5t-59.5 -398.5q-16 -74 -82 -74h-144q-35 0 -58.5 26t-23.5 64z" />
<glyph unicode="*" horiz-adv-x="903" d="M78 815q0 15 6 27l63 133q17 39 58 39q25 0 39 -10l94 -68l-23 160q0 37 25 53q18 14 37 14h147q22 0 39 -14q23 -14 23 -53l-21 -160l92 68q16 10 41 10q41 0 58 -39l63 -133q6 -12 6 -27q0 -20 -10 -38t-27 -21l-137 -29l80 -74q17 -14 17 -41q0 -41 -25 -59 q-114 -86 -143 -86q-44 0 -62 29l-67 127l-68 -127q-15 -29 -59 -29q-30 0 -146 86q-22 16 -22 59q0 27 14 41l80 74l-135 29q-17 3 -27 21t-10 38z" />
<glyph unicode="+" horiz-adv-x="811" d="M78 375v112q0 35 24.5 58.5t59.5 23.5h94v115q0 36 24 60t60 24h131q38 0 61 -23.5t23 -60.5v-115h94q38 0 61 -23t23 -59v-112q0 -38 -23 -61t-61 -23h-94v-113q0 -36 -23 -60t-61 -24h-131q-35 0 -59.5 24.5t-24.5 59.5v113h-94q-36 0 -60 23t-24 61z" />
<glyph unicode="," horiz-adv-x="397" d="M27 -137q7 32 20 64.5t20 62t7 76.5q0 18 -8.5 59t-8.5 65q0 28 28 51t58 23h138q31 0 51.5 -20.5t27.5 -57.5t9 -59.5t2 -56.5q0 -30 -7 -75t-22 -97.5t-44.5 -88.5t-68.5 -36h-118q-38 0 -61 25.5t-23 64.5z" />
<glyph unicode="-" horiz-adv-x="819" d="M78 367v112q0 35 24.5 58.5t59.5 23.5h495q38 0 61 -23t23 -59v-112q0 -36 -23 -60t-61 -24h-495q-35 0 -59.5 24.5t-24.5 59.5z" />
<glyph unicode="." horiz-adv-x="477" d="M78 152q0 69 46 115t114 46t114.5 -46t46.5 -115q0 -68 -47 -115t-114 -47t-113.5 47t-46.5 115z" />
<glyph unicode="/" horiz-adv-x="911" d="M27 -215l561 1618q23 55 80 55h135q36 0 59 -23t23 -59l-557 -1626q-9 -17 -15.5 -25.5t-23 -16t-41.5 -7.5h-137q-37 0 -60.5 23t-23.5 61z" />
<glyph unicode="0" horiz-adv-x="1099" d="M78 573q0 142 23 248t62.5 172.5t101 106.5t129.5 55.5t157 15.5t157 -15.5t129 -55.5t100 -106.5t62 -172.5t23 -248q0 -134 -22.5 -235t-62 -167t-99.5 -107t-129 -57.5t-156 -16.5q-89 0 -158.5 16.5t-130.5 57.5t-101 107t-62.5 167t-22.5 235zM377 573 q0 -79 12 -137.5t29 -90t42.5 -50.5t46.5 -24t46 -5q24 0 44 5t44.5 24t41.5 50.5t28.5 90t11.5 137.5q0 86 -11.5 148.5t-28 94.5t-42 50.5t-45 22.5t-45.5 4t-45.5 -4t-45.5 -22.5t-42.5 -50.5t-28.5 -94.5t-12 -148.5z" />
<glyph unicode="1" horiz-adv-x="718" d="M16 711v176q0 38 11 49l348 227h182q36 0 60 -24t24 -60v-995q0 -36 -24 -60t-60 -24h-131q-37 0 -60.5 23.5t-23.5 60.5v700l-240 -153q-38 0 -62 22.5t-24 57.5z" />
<glyph unicode="2" horiz-adv-x="940" d="M57 84v207q0 87 28.5 156t74 111.5t100.5 75.5t110 56t100.5 44.5t74 48.5t28.5 61q0 30 -32 39.5t-117 9.5q-28 0 -164 -16l-41 -5q-44 0 -67 14.5t-29 61.5q-8 84 -8 105q0 32 22.5 53.5t52.5 28.5q123 36 248 36q111 0 190.5 -18.5t126 -49t73.5 -79t35.5 -97.5 t8.5 -116q0 -61 -22 -113t-58 -87.5t-82 -67.5t-94 -54t-94 -47t-82 -47t-58 -52t-22 -64h410q35 0 58.5 -23.5t23.5 -58.5v-113q0 -37 -23.5 -60.5t-58.5 -23.5h-629q-36 0 -60 24t-24 60z" />
<glyph unicode="3" horiz-adv-x="890" d="M37 100q0 23 8 111q6 46 29 61t67 15l82 -11q68 -10 158 -10q72 0 102.5 21t30.5 71q0 38 -35 60.5t-98 23.5h-86q-36 0 -60 24t-24 60v111q0 36 24 60t60 24h86q70 0 101.5 24.5t31.5 75.5q0 72 -133 72q-90 0 -238 -16q-44 0 -68 15t-30 60q-8 84 -8 113 q0 31 23.5 52.5t56.5 27.5q106 26 264 26q208 0 320 -98t112 -264q0 -69 -29.5 -130t-87.5 -99q117 -76 117 -220q0 -174 -111.5 -272t-320.5 -98q-150 0 -264 28q-34 8 -57 29t-23 53z" />
<glyph unicode="4" horiz-adv-x="976" d="M27 342v197l510 565q16 18 28.5 28.5t35 20.5t48.5 10h99q41 0 64.5 -23.5t23.5 -60.5v-540h30q37 0 60.5 -23.5t23.5 -60.5v-113q0 -35 -23.5 -58.5t-60.5 -23.5h-30v-176q0 -37 -23.5 -60.5t-60.5 -23.5h-136q-37 0 -60.5 23.5t-23.5 60.5v176h-423q-36 0 -59 23 t-23 59zM391 539h156v172z" />
<glyph unicode="5" horiz-adv-x="921" d="M78 526v553q0 37 22.5 60.5t59.5 23.5h600q36 0 60 -24t24 -60v-112q0 -35 -24.5 -58.5t-59.5 -23.5h-383v-162h80q84 0 151.5 -15.5t110 -38.5t73.5 -58t46.5 -65.5t24 -70.5t10 -63t1.5 -52q0 -172 -120.5 -271t-329.5 -99q-141 0 -264 30q-33 6 -56.5 28t-23.5 54 q0 30 8 111q4 44 28 60t66 16l84 -10q88 -13 178 -13q72 0 101.5 22.5t29.5 78.5q0 34 -27 55.5t-83 21.5h-305q-36 0 -59 23t-23 59z" />
<glyph unicode="6" horiz-adv-x="968" d="M78 393v338q0 207 123 323.5t334 116.5q171 0 290 -86q22 -14 31.5 -26.5t9.5 -36.5q0 -13 -4 -25l-39 -96q-17 -49 -63 -49q-26 0 -43 10q-61 31 -164 31q-26 0 -53.5 -6.5t-56.5 -21t-47.5 -43.5t-18.5 -68v-19q66 25 133 25q104 0 176.5 -17.5t124 -59.5t76 -113.5 t24.5 -176.5q0 -195 -104 -299t-313 -104t-312.5 104t-103.5 299zM377 377q0 -38 29.5 -74.5t89.5 -36.5q61 0 88.5 35t27.5 76q0 18 -4.5 34.5t-15.5 35t-36 29.5t-60 11q-65 0 -92 -35t-27 -75z" />
<glyph unicode="7" horiz-adv-x="819" d="M6 967v112q0 36 24 60t60 24h600q37 0 59.5 -23.5t22.5 -60.5v-172l-340 -835q-27 -72 -82 -72h-153q-35 0 -58.5 25t-23.5 63l323 797h-348q-35 0 -59.5 23.5t-24.5 58.5z" />
<glyph unicode="8" horiz-adv-x="987" d="M78 360q0 145 119 220q-59 38 -89 99t-30 130q0 168 105 265t311 97t310.5 -97t104.5 -265q0 -69 -29.5 -130t-88.5 -99q118 -75 118 -220q0 -176 -103.5 -273t-311.5 -97t-312 97t-104 273zM377 356q0 -90 117 -90q116 0 116 90q0 36 -29.5 60t-86.5 24t-87 -24t-30 -60 zM377 807q0 -88 117 -88q116 0 116 88q0 37 -32 61.5t-84 24.5t-84.5 -24.5t-32.5 -61.5z" />
<glyph unicode="9" horiz-adv-x="968" d="M57 768q0 195 103.5 299t312.5 104t313.5 -104t104.5 -299v-338q0 -207 -123 -323.5t-334 -116.5q-29 0 -80 7t-110.5 20.5t-102.5 39.5t-43 58q0 27 4 39l45 114q13 39 48 39h8q135 -41 233 -41q51 0 95.5 24.5t60.5 82.5q-59 -19 -119 -19q-212 0 -314 101.5 t-102 312.5zM356 766q0 -133 117 -133q66 0 92.5 39t26.5 94q0 52 -28.5 89.5t-90.5 37.5t-89.5 -37.5t-27.5 -89.5z" />
<glyph unicode=":" horiz-adv-x="487" d="M78 676q0 67 49.5 116.5t114.5 49.5q68 0 117 -49t49 -117q0 -65 -49.5 -114.5t-116.5 -49.5q-64 0 -114 50t-50 114zM88 152q0 69 46 115t114 46t115 -46t47 -115q0 -68 -47 -115t-115 -47q-67 0 -113.5 47t-46.5 115z" />
<glyph unicode=";" horiz-adv-x="503" d="M78 -137q7 32 20 64.5t20 62t7 76.5q0 18 -8 59t-8 65q0 28 28 51t58 23h137q31 0 51.5 -20.5t27.5 -57.5t9 -59.5t2 -56.5q0 -31 -7 -75.5t-21.5 -97t-44 -88.5t-68.5 -36h-119q-38 0 -61 25.5t-23 64.5zM96 676q0 67 49.5 116.5t114.5 49.5q68 0 117 -49t49 -117 q0 -65 -49.5 -114.5t-116.5 -49.5q-64 0 -114 50t-50 114z" />
<glyph unicode="&#x3c;" horiz-adv-x="798" d="M78 362v175q0 26 20 50.5t47 37.5q51 23 151.5 68.5t183.5 83t153 67.5q38 0 63 -23.5t25 -58.5v-146q0 -50 -68 -81l-196 -86l196 -91q68 -31 68 -82v-139q0 -37 -25 -60.5t-63 -23.5l-488 219q-67 37 -67 90z" />
<glyph unicode="=" horiz-adv-x="819" d="M78 168v98q0 35 24.5 58.5t59.5 23.5h495q38 0 61 -23t23 -59v-98q0 -36 -23 -60t-61 -24h-495q-35 0 -59.5 24.5t-24.5 59.5zM78 502v98q0 35 24.5 58.5t59.5 23.5h495q38 0 61 -23t23 -59v-98q0 -36 -23 -60t-61 -24h-495q-35 0 -59.5 24.5t-24.5 59.5z" />
<glyph unicode="&#x3e;" horiz-adv-x="798" d="M78 137v139q0 52 67 82l197 91l-197 86q-67 30 -67 81v146q0 35 25 58.5t63 23.5q94 -40 282.5 -126t204.5 -93q27 -13 47.5 -37.5t20.5 -50.5v-175q0 -27 -20 -51t-48 -39l-487 -219q-38 0 -63 23.5t-25 60.5z" />
<glyph unicode="?" horiz-adv-x="901" d="M78 1053q0 30 23 52.5t51 29.5q62 17 134.5 26.5t110.5 9.5q71 0 128.5 -7t100 -21t74.5 -32t53.5 -44t35.5 -52.5t21.5 -62t10 -67.5t2.5 -74q0 -46 -7.5 -82t-25 -63t-32.5 -44.5t-45.5 -34.5t-47 -24.5t-51.5 -21.5q-6 -3 -24 -10t-24.5 -10t-20 -10t-18.5 -13 t-12.5 -14.5t-10 -19.5t-2.5 -24v-12q0 -36 -23 -58t-59 -22h-135q-36 0 -59 22t-23 58v23q0 40 4.5 73.5t11 58.5t19.5 47t23 36.5t30 28.5t32 21t37 16t36.5 12.5t39.5 11.5q20 6 29.5 9.5t26.5 11.5t24.5 19.5t7.5 26.5q0 40 -30 55t-111 15q-40 0 -150 -14l-51 -7 q-45 0 -69.5 14.5t-28.5 61.5q0 19 -3 60.5t-3 44.5zM195 147q0 66 45.5 112t111.5 46t112 -46t46 -112t-46 -111.5t-112 -45.5t-111.5 45.5t-45.5 111.5z" />
<glyph unicode="@" horiz-adv-x="1282" d="M78 76v540q0 135 34.5 236.5t89 161t133 96t154.5 49t166 12.5q64 0 118.5 -6.5t112 -24t103 -45.5t87 -73t69 -104.5t43.5 -143t16 -184.5v-471q0 -26 -18 -51.5t-49 -38.5q-116 -39 -295 -39q-217 0 -308.5 84t-91.5 293q0 104 24.5 176t72 112.5t110 58t146.5 17.5 q65 0 106 -8q-11 55 -42 92t-72 52t-71.5 20.5t-60.5 5.5q-27 0 -55 -4t-70.5 -20.5t-74 -44t-55 -82t-23.5 -126.5v-577q0 -127 82 -127q36 0 98 16q30 0 54 -19t36 -52l25 -107q0 -33 -15 -61.5t-39 -38.5q-95 -29 -190 -29q-84 0 -146 21.5t-101 58.5t-62.5 96t-32 125 t-8.5 154zM741 358q0 -56 22 -73t73 -17q27 0 69 11v157q-23 10 -63 10q-49 0 -75 -19t-26 -69z" />
<glyph unicode="A" horiz-adv-x="1052" d="M6 84l348 1008q10 32 34.5 51.5t53.5 19.5h172q29 0 54 -19.5t37 -51.5l280 -807q19 -51 23 -52q49 -25 49 -73v-68q0 -36 -28 -60.5t-62.5 -33t-71.5 -8.5q-29 0 -53 6t-41.5 20.5t-29 26t-23 34.5t-16 34t-13.5 36l-37 99h-301l-59 -170q-8 -32 -32 -54t-54 -22h-148 q-35 0 -58.5 23.5t-23.5 60.5zM467 506h125l-62 186z" />
<glyph unicode="B" horiz-adv-x="972" d="M78 86v993q0 36 24 60t60 24h297q111 0 187 -17t131.5 -58t81.5 -112t26 -177q0 -67 -16.5 -115.5t-65.5 -81.5q61 -38 97 -100.5t36 -139.5q0 -105 -26 -175.5t-81.5 -111.5t-131.5 -58t-187 -17h-348q-35 0 -59.5 25.5t-24.5 60.5zM377 276h135q59 0 92 19t33 70 q0 45 -32.5 60t-92.5 15h-135v-164zM377 721h84q60 0 92.5 16.5t32.5 69.5q0 25 -9.5 41.5t-29 24t-38.5 10t-48 2.5h-84v-164z" />
<glyph unicode="C" horiz-adv-x="937" d="M47 573q0 102 15 186t41 145t65 108t83 76.5t98 48.5t108 26.5t116 7.5q162 0 287 -84q22 -12 36.5 -33t14.5 -44q0 -11 -49 -107q-12 -24 -32.5 -37.5t-41.5 -13.5q-13 0 -43 12q-63 29 -153 29q-246 0 -246 -320q0 -71 18.5 -127t45.5 -88.5t62 -54.5t64.5 -29.5 t55.5 -7.5q77 0 164 41q20 10 32 10q23 0 44 -13t30 -36l43 -94q2 -8 2 -24q0 -43 -45 -70q-140 -90 -289 -90q-85 0 -160 19t-143 62.5t-117 109.5t-77.5 166t-28.5 226z" />
<glyph unicode="D" horiz-adv-x="989" d="M78 86v993q0 36 24 60t60 24h358q210 0 316 -111t106 -323v-295q0 -212 -106 -323t-316 -111h-358q-35 0 -59.5 25.5t-24.5 60.5zM377 276h139q56 0 91.5 38t35.5 116v301q0 78 -35.5 116t-91.5 38h-139v-609z" />
<glyph unicode="E" horiz-adv-x="897" d="M78 84v995q0 37 22.5 60.5t59.5 23.5h628q37 0 59.5 -23.5t22.5 -60.5v-112q0 -36 -23 -59t-59 -23h-411v-166h293q35 0 57.5 -24t22.5 -60v-111q0 -36 -22.5 -60t-57.5 -24h-293v-164h411q36 0 59 -23t23 -58v-111q0 -37 -22.5 -60.5t-59.5 -23.5h-628q-37 0 -59.5 23.5 t-22.5 60.5z" />
<glyph unicode="F" horiz-adv-x="897" d="M78 82v997q0 37 22.5 60.5t59.5 23.5h628q37 0 59.5 -23.5t22.5 -60.5v-112q0 -36 -23 -59t-59 -23h-411v-166h293q35 0 57.5 -24t22.5 -60v-111q0 -36 -22.5 -60t-57.5 -24h-293v-358q0 -35 -23.5 -58.5t-58.5 -23.5h-137q-35 0 -57.5 23.5t-22.5 58.5z" />
<glyph unicode="G" horiz-adv-x="1054" d="M47 573q0 118 19 212.5t55.5 158.5t83.5 109.5t108 70.5t123.5 36t136.5 11q70 0 167.5 -24t166.5 -64q19 -11 32 -32t13 -45q0 -4 -1 -8t-5.5 -13l-9.5 -19t-15.5 -33t-21.5 -48q-16 -41 -70 -41q-8 0 -38 12q-41 18 -102 27.5t-101 9.5q-242 0 -242 -320 q0 -127 66.5 -217t181.5 -90q59 0 94 17v125h-84q-36 0 -59 23t-23 61v104q0 35 23.5 57.5t58.5 22.5h299q36 0 60 -22.5t24 -57.5v-512q0 -36 -24 -60t-60 -24h-53q-47 0 -88 55q-27 -27 -70.5 -43t-70.5 -19t-48 -3q-87 0 -162.5 18.5t-143 62t-116 109.5t-76.5 166 t-28 227z" />
<glyph unicode="H" horiz-adv-x="1048" d="M78 84v995q0 36 24 60t60 24h135q35 0 57.5 -23.5t22.5 -60.5v-352h295v352q0 37 23.5 60.5t58.5 23.5h133q37 0 60.5 -23.5t23.5 -60.5v-995q0 -37 -23.5 -60.5t-60.5 -23.5h-133q-35 0 -58.5 23.5t-23.5 60.5v365h-295v-365q0 -37 -22.5 -60.5t-57.5 -23.5h-135 q-36 0 -60 24t-24 60z" />
<glyph unicode="I" horiz-adv-x="454" d="M78 84v995q0 37 22.5 60.5t57.5 23.5h135q36 0 60 -24t24 -60v-995q0 -36 -24 -60t-60 -24h-135q-35 0 -57.5 23.5t-22.5 60.5z" />
<glyph unicode="J" horiz-adv-x="870" d="M-4 143q0 21 27 70l32 57q24 47 72 47q32 0 47 -10q28 -17 77 -28t81 -11q33 0 56.5 6.5t50.5 27.5t41 69.5t14 122.5v585q0 37 23.5 60.5t60.5 23.5h131q36 0 60 -24t24 -60v-583q0 -76 -7.5 -139t-20 -111t-34 -86t-45 -65t-56.5 -46t-65 -30.5t-75.5 -18t-82.5 -8.5 t-90 -2q-159 0 -274 73q-47 30 -47 80z" />
<glyph unicode="K" horiz-adv-x="1034" d="M78 84v995q0 37 23.5 60.5t58.5 23.5h135q35 0 58.5 -23.5t23.5 -60.5v-372q69 37 159.5 161t116.5 219q10 33 31 54.5t51 21.5h137q35 0 57.5 -23.5t22.5 -60.5q0 -68 -65 -204t-152 -234q27 -35 80 -135q36 -70 103.5 -211.5t99.5 -204.5q0 -40 -22.5 -65t-59.5 -25 h-148q-26 0 -53 20.5t-39 47.5q-131 277 -190 374q-73 -47 -129 -67v-291q0 -37 -23.5 -60.5t-58.5 -23.5h-135q-35 0 -58.5 23.5t-23.5 60.5z" />
<glyph unicode="L" horiz-adv-x="860" d="M78 84v995q0 37 22.5 60.5t59.5 23.5h133q36 0 60 -24t24 -60v-803h383q36 0 60 -23t24 -58v-111q0 -36 -24 -60t-60 -24h-600q-37 0 -59.5 23.5t-22.5 60.5z" />
<glyph unicode="M" horiz-adv-x="1261" d="M57 102q3 4 54 979q2 36 23 59t56 23h201q42 0 72 -43l168 -399l168 399q30 43 71 43h201q35 0 56.5 -23t23.5 -59l53 -979q0 -39 -26.5 -70.5t-59.5 -31.5h-131q-32 0 -55.5 23.5t-26.5 56.5q-18 258 -26 452l-121 -292q-9 -22 -33.5 -39t-46.5 -17h-94q-22 0 -46.5 17 t-33.5 39l-121 292q-7 -159 -27 -452q-3 -33 -26.5 -56.5t-55.5 -23.5h-131q-33 0 -59.5 31.5t-26.5 70.5z" />
<glyph unicode="N" horiz-adv-x="1083" d="M78 84v995q0 36 24 60t60 24h145q55 0 94 -57l306 -473v446q0 37 23 60.5t58 23.5h136q35 0 58.5 -23.5t23.5 -60.5v-995q0 -37 -23.5 -60.5t-58.5 -23.5h-111q-24 0 -49.5 15t-42.5 42q-55 94 -175.5 275t-168.5 260v-508q0 -37 -23.5 -60.5t-58.5 -23.5h-133 q-36 0 -60 24t-24 60z" />
<glyph unicode="O" horiz-adv-x="1138" d="M57 573q0 118 18.5 212t53.5 158.5t80.5 110t105 70.5t121 36t133.5 11t133.5 -11t121 -36t105 -70.5t80.5 -110t53.5 -158.5t18.5 -212q0 -583 -516 -583q-508 0 -508 583zM356 573q0 -82 15.5 -142t37.5 -90.5t54 -48.5t55 -22t51 -4q213 0 213 307q0 86 -16 148.5 t-37.5 94.5t-54 50.5t-55 22.5t-50.5 4t-50.5 -4t-55 -22.5t-54 -50.5t-37.5 -94.5t-16 -148.5z" />
<glyph unicode="P" horiz-adv-x="935" d="M78 84v995q0 37 23.5 60.5t60.5 23.5h325q216 0 324.5 -98t108.5 -305t-108.5 -303.5t-324.5 -96.5h-110v-276q0 -37 -23.5 -60.5t-60.5 -23.5h-131q-37 0 -60.5 23.5t-23.5 60.5zM377 637h135q50 0 79.5 33.5t29.5 91.5q0 57 -29.5 90t-79.5 33h-135v-248z" />
<glyph unicode="Q" horiz-adv-x="1138" d="M57 573q0 118 18.5 212t53.5 158.5t80.5 110t105 70.5t121 36t133.5 11t133.5 -11t121 -36t105 -70.5t80.5 -110t53.5 -158.5t18.5 -212q0 -501 -383 -573l-22 -31q157 -21 223 -41q59 -19 59 -63v-129q0 -28 -20 -47t-49 -19q-53 25 -152 36t-176 11q-55 0 -194 -22 q-72 -14 -107 -14q-19 0 -34 22.5t-15 44.5v129q0 27 17.5 46.5t43.5 19.5q39 0 92 14.5t76 42.5q-383 65 -383 573zM356 573q0 -82 15.5 -142t37.5 -90.5t54 -48.5t55 -22t51 -4q213 0 213 307q0 86 -16 148.5t-37.5 94.5t-54 50.5t-55 22.5t-50.5 4t-50.5 -4t-55 -22.5 t-54 -50.5t-37.5 -94.5t-16 -148.5z" />
<glyph unicode="R" horiz-adv-x="972" d="M78 84v995q0 36 24 60t60 24h348q215 0 320.5 -97.5t105.5 -305.5q0 -228 -125 -322q80 -204 82 -205q43 -21 43 -73v-68q0 -36 -27 -60.5t-60.5 -33t-70.5 -8.5q-40 0 -68.5 11t-48 34.5t-29.5 43.5t-24 56l-88 225h-143v-276q0 -37 -23 -60.5t-61 -23.5h-131 q-36 0 -60 24t-24 60zM377 637h151q50 0 79.5 32.5t29.5 90.5q0 56 -30.5 90.5t-78.5 34.5h-151v-248z" />
<glyph unicode="S" horiz-adv-x="974" d="M47 788q0 73 12 128.5t43 105t82.5 81t134 50t193.5 18.5q42 0 118.5 -10.5t145.5 -32.5q78 -27 78 -81q0 -23 -8 -107q-5 -45 -29 -58.5t-69 -13.5q-207 25 -226 25q-87 0 -127.5 -14.5t-40.5 -53.5q0 -20 25.5 -34.5t67.5 -24t95 -23.5t109 -29.5t109 -46t95 -69.5 t67.5 -103t25.5 -145q0 -186 -124.5 -273t-377.5 -87q-69 0 -158.5 18.5t-154.5 50.5q-55 29 -55 74q0 11 8 35l33 100q10 26 33.5 40t48.5 14q7 0 30 -5q57 -21 127 -36t109 -15q23 0 47 2.5t55 10t50.5 25.5t19.5 44q0 35 -32.5 58.5t-85 37.5t-115.5 27.5t-126 35.5 t-115.5 54t-85 90t-32.5 137z" />
<glyph unicode="T" horiz-adv-x="897" d="M16 967v112q0 37 22.5 60.5t57.5 23.5h705q35 0 57.5 -23.5t22.5 -60.5v-112q0 -35 -22.5 -58.5t-57.5 -23.5h-203v-801q0 -36 -24 -60t-60 -24h-135q-35 0 -57.5 23.5t-22.5 60.5v801h-203q-35 0 -57.5 23.5t-22.5 58.5z" />
<glyph unicode="U" horiz-adv-x="1085" d="M78 522v557q0 36 24 60t60 24h133q35 0 58.5 -23.5t23.5 -60.5v-571q0 -65 11 -111.5t26.5 -71t40 -38.5t44 -17.5t44.5 -3.5t44.5 3.5t44 17.5t40 38.5t26.5 71t11 111.5v571q0 37 23.5 60.5t58.5 23.5h133q36 0 60 -24t24 -60v-557q0 -113 -14 -198.5t-43.5 -143.5 t-67.5 -96t-93.5 -58.5t-112.5 -28t-134 -7.5t-134 7.5t-112.5 28t-93.5 58.5t-67.5 96t-43.5 143.5t-14 198.5z" />
<glyph unicode="V" horiz-adv-x="1056" d="M6 1069q0 40 23.5 67t58.5 27h141q27 0 53 -21.5t35 -51.5l211 -641l211 641q9 30 35 51.5t53 21.5h142q35 0 58.5 -27t23.5 -67l-330 -997q-11 -33 -34.5 -52.5t-55.5 -19.5h-205q-32 0 -55.5 19.5t-34.5 52.5z" />
<glyph unicode="W" horiz-adv-x="1296" d="M78 535v544q0 36 24 60t60 24h133q35 0 58.5 -23.5t23.5 -60.5v-637q0 -50 4.5 -85.5t10 -52.5t16 -26.5t17 -10.5t17.5 -1q38 0 50 31.5t12 91.5v690q0 35 23.5 59.5t60.5 24.5h131q38 0 61 -23.5t23 -60.5v-559q0 -254 61 -254q40 0 53 83t13 329q0 75 -11 205t-28 186 q0 40 23 67t59 27h137q34 0 55.5 -21t26.5 -55q14 -57 25.5 -197t11.5 -214q0 -135 -5 -228t-19 -175t-38 -131.5t-63.5 -86t-94 -51t-130.5 -14.5q-75 0 -128 22t-96 74q-42 -55 -93.5 -75.5t-127.5 -20.5q-74 0 -127.5 10.5t-94 37t-65.5 65.5t-41 102.5t-22 141.5t-6 188 z" />
<glyph unicode="X" horiz-adv-x="1003" d="M6 88l322 496q-241 367 -314 489q0 39 22.5 64.5t57.5 25.5h131q34 0 60.5 -11.5t38 -24t24.5 -31.5l154 -242l153 242q13 19 24.5 31.5t38 24t60.5 11.5h131q35 0 57.5 -25.5t22.5 -64.5q-83 -138 -313 -489l321 -496q0 -38 -22 -63t-57 -25h-132q-85 0 -122 63 q-7 11 -80 122.5t-82 127.5q-9 -16 -82 -127.5t-80 -122.5q-37 -63 -123 -63h-131q-35 0 -57.5 25t-22.5 63z" />
<glyph unicode="Y" horiz-adv-x="1007" d="M6 1073q0 39 24 64.5t60 25.5h152q54 0 86 -69l172 -369l180 369q32 69 86 69h152q36 0 59.5 -25.5t23.5 -64.5l-352 -731v-258q0 -37 -22.5 -60.5t-59.5 -23.5h-133q-36 0 -60 24t-24 60v258z" />
<glyph unicode="Z" d="M16 84v164l441 639h-359q-35 0 -58.5 23.5t-23.5 58.5v110q0 37 23.5 60.5t58.5 23.5h654q35 0 58.5 -23.5t23.5 -60.5v-172l-433 -631h351q35 0 58.5 -23t23.5 -58v-111q0 -37 -23.5 -60.5t-58.5 -23.5h-654q-35 0 -58.5 23.5t-23.5 60.5z" />
<glyph unicode="[" horiz-adv-x="665" d="M98 -215v1591q0 35 23.5 58.5t60.5 23.5h303q35 0 58.5 -23.5t23.5 -58.5v-114q0 -35 -23.5 -58.5t-58.5 -23.5h-84v-1200h84q35 0 58.5 -23.5t23.5 -58.5v-113q0 -37 -23.5 -60.5t-58.5 -23.5h-303q-37 0 -60.5 23.5t-23.5 60.5z" />
<glyph unicode="\" horiz-adv-x="911" d="M27 1376q0 36 23 59t59 23h135q57 0 80 -55l561 -1618q0 -38 -23.5 -61t-60.5 -23h-137q-36 0 -51.5 12t-28.5 37z" />
<glyph unicode="]" horiz-adv-x="665" d="M98 -102q0 35 23.5 58.5t58.5 23.5h84v1200h-84q-35 0 -58.5 23.5t-23.5 58.5v114q0 35 23.5 58.5t58.5 23.5h303q37 0 60.5 -23.5t23.5 -58.5v-1591q0 -37 -23.5 -60.5t-60.5 -23.5h-303q-35 0 -58.5 23.5t-23.5 60.5v113z" />
<glyph unicode="^" horiz-adv-x="790" d="M78 786l143 310q15 29 37.5 48t48.5 19h176q26 0 48.5 -19t37.5 -48l144 -310q0 -38 -24.5 -64t-59.5 -26h-121q-62 0 -88 72l-25 66l-22 -66q-26 -72 -88 -72h-123q-35 0 -59.5 26t-24.5 64z" />
<glyph unicode="_" horiz-adv-x="862" d="M78 -92q0 35 23.5 58.5t58.5 23.5h545q35 0 57 -23t22 -59v-111q0 -37 -22 -60.5t-57 -23.5h-545q-35 0 -58.5 23.5t-23.5 60.5v111z" />
<glyph unicode="`" horiz-adv-x="503" d="M78 1073q0 40 23 65t61 25h139q33 0 57 -23t27 -57l41 -272q0 -38 -23 -63t-61 -25h-111q-58 0 -81 74z" />
<glyph unicode="a" d="M27 393q0 200 114.5 324.5t313.5 124.5q121 0 264 -49q53 -23 53 -82v-631q0 -35 -22.5 -57.5t-57.5 -22.5h-96q-60 0 -80 39l-8 16q-83 -65 -176 -65q-83 0 -144.5 33t-95.5 91t-49.5 127t-15.5 152zM328 393q0 -74 24.5 -100.5t63.5 -26.5q12 0 26 6t22 12l9 7v270 q-145 -16 -145 -168z" />
<glyph unicode="b" horiz-adv-x="894" d="M78 117v966q0 35 22.5 57.5t57.5 22.5h139q35 0 57.5 -22.5t22.5 -57.5v-254q47 13 98 13q164 0 268.5 -108t104.5 -304q0 -207 -106.5 -323.5t-311.5 -116.5q-174 0 -299 45q-53 24 -53 82zM377 270q40 -4 59 -4q57 0 81 40t24 124q0 133 -113 133q-28 0 -51 -10v-283z " />
<glyph unicode="c" horiz-adv-x="829" d="M47 418q0 202 107.5 313t310.5 111q167 0 278 -84q45 -33 45 -78q0 -13 -47 -111q-14 -47 -71 -47q-8 0 -45 15q-57 26 -144 26q-57 0 -96 -36t-39 -109q0 -75 39.5 -113.5t95.5 -38.5q103 0 148 31q17 10 41 10q21 0 41.5 -13.5t29.5 -33.5q3 -7 22 -47t25 -59 q0 -52 -45 -82q-114 -82 -278 -82q-204 0 -311 112t-107 316z" />
<glyph unicode="d" horiz-adv-x="894" d="M47 430q0 196 104.5 304t268.5 108q51 0 98 -13v254q0 35 22.5 57.5t57.5 22.5h139q35 0 57.5 -22.5t22.5 -57.5v-966q0 -58 -53 -82q-125 -45 -299 -45q-205 0 -311.5 116.5t-106.5 323.5zM354 430q0 -84 24 -124t81 -40q19 0 59 4v283q-23 10 -51 10q-113 0 -113 -133z " />
<glyph unicode="e" horiz-adv-x="843" d="M47 424q0 197 96.5 307.5t298.5 110.5q163 0 257 -77t94 -200q0 -72 -31 -123t-86 -78t-117.5 -39t-138.5 -12q-52 0 -105 6q23 -39 62 -51t92 -12q130 0 193 43q9 6 22 6q17 0 33 -12t24 -29l39 -84q8 -24 8 -30q0 -44 -43 -78q-63 -51 -133.5 -66.5t-158.5 -15.5 q-203 0 -304.5 113.5t-101.5 320.5zM344 537q9 -15 35.5 -25t56.5 -10q58 0 58 43q0 35 -68 35q-42 0 -82 -43z" />
<glyph unicode="f" horiz-adv-x="671" d="M6 633v117q0 35 22.5 57t59.5 22h57q4 69 17.5 127.5t39.5 112.5t64.5 91.5t96 60t129.5 22.5q79 0 147 -24q33 -10 50.5 -37t17.5 -62l-29 -108q-8 -25 -28.5 -41.5t-47.5 -16.5q-13 0 -35.5 3.5t-38.5 3.5q-28 0 -46 -12.5t-25.5 -37.5t-9.5 -40t-3 -42h134 q35 0 58 -22t23 -57v-117q0 -35 -23 -57.5t-58 -22.5h-134v-473q0 -35 -22 -57.5t-57 -22.5h-140q-35 0 -57.5 22.5t-22.5 57.5v473h-57q-37 0 -59.5 22.5t-22.5 57.5z" />
<glyph unicode="g" d="M27 393q0 200 114.5 324.5t313.5 124.5q132 0 262 -49q55 -20 55 -82v-723q0 -40 -1 -66.5t-9 -76.5t-22 -85t-43.5 -77.5t-70.5 -68.5t-106 -44.5t-147 -18.5q-29 0 -62.5 7t-73 26t-71.5 47t-53 74.5t-21 104.5q0 69 23 136.5t65 102.5q-68 51 -110.5 149.5 t-42.5 194.5zM328 393q0 -139 88 -139q12 0 27 6t23 12l9 7v284q-75 -7 -111 -55t-36 -115zM381 -123q0 -53 41 -53q53 0 53 74v120q-94 -51 -94 -141z" />
<glyph unicode="h" horiz-adv-x="870" d="M78 80v1003q0 35 22.5 57.5t57.5 22.5h137q35 0 58.5 -22.5t23.5 -57.5v-280q70 39 141 39q84 0 143 -28t91.5 -81.5t46.5 -119t14 -150.5v-383q0 -35 -22.5 -57.5t-59.5 -22.5h-137q-35 0 -57.5 22.5t-22.5 57.5v375q0 38 -5.5 60.5t-18 32.5t-24 12.5t-32.5 2.5 q-12 0 -26 -6t-22 -12l-9 -6v-459q0 -35 -23.5 -57.5t-58.5 -22.5h-137q-35 0 -57.5 22.5t-22.5 57.5z" />
<glyph unicode="i" horiz-adv-x="458" d="M72 1032q0 66 45.5 112t111.5 46t112 -46t46 -112t-46 -112t-112 -46t-111.5 46t-45.5 112zM80 82v666q0 35 22.5 58t57.5 23h137q35 0 58.5 -23t23.5 -58v-666q0 -35 -23.5 -58.5t-58.5 -23.5h-137q-35 0 -57.5 23.5t-22.5 58.5z" />
<glyph unicode="j" horiz-adv-x="458" d="M-190 -270l32 110q20 64 88 64q62 -17 76 -17q25 0 41.5 12t23 33.5t8 37.5t1.5 38v742q0 35 23 57t59 22h135q36 0 59 -22t23 -57v-705q0 -107 -15 -183t-52 -137t-106 -91.5t-171 -30.5q-64 0 -164 28q-27 7 -44 35.5t-17 63.5zM72 1032q0 66 45.5 112t111.5 46 t112 -46t46 -112t-46 -112t-112 -46t-111.5 46t-45.5 112z" />
<glyph unicode="k" horiz-adv-x="860" d="M78 80v1003q0 35 22.5 57.5t57.5 22.5h139q35 0 57.5 -22.5t22.5 -57.5v-493q41 19 80.5 66t56.5 100q16 73 82 73h137q35 0 57.5 -24t22.5 -60q-10 -81 -52 -165t-114 -150q48 -48 101 -143l106 -195q0 -39 -22.5 -65.5t-57.5 -26.5h-149q-27 0 -56 20.5t-45 47.5 l-53 102q-49 95 -68 113l-26 -11v-192q0 -35 -22.5 -57.5t-57.5 -22.5h-139q-35 0 -57.5 22.5t-22.5 57.5z" />
<glyph unicode="l" horiz-adv-x="479" d="M78 207v874q0 35 23 58.5t57 23.5h137q35 0 58.5 -23.5t23.5 -58.5v-815q0 -35 12 -39q43 -22 43 -71v-66q0 -59 -65 -80q-64 -20 -113 -20q-176 0 -176 217z" />
<glyph unicode="m" horiz-adv-x="1167" d="M78 80v635q0 63 65 88q101 39 246 39q159 0 246 -72q37 29 82.5 46t71 20.5t45.5 3.5q70 0 120 -19.5t80 -51t47.5 -82t23 -102t5.5 -122.5v-383q0 -35 -23 -57.5t-57 -22.5h-139q-35 0 -57.5 22.5t-22.5 57.5v375q0 51 -5 74.5t-13.5 28.5t-28.5 5q-25 0 -33 -2 q2 -33 2 -119v-362q0 -35 -22.5 -57.5t-57.5 -22.5h-114q-35 0 -57.5 22.5t-22.5 57.5v360q0 83 -7.5 103t-45.5 20q-17 0 -29 -6v-477q0 -35 -22.5 -57.5t-57.5 -22.5h-139q-35 0 -57.5 22.5t-22.5 57.5z" />
<glyph unicode="n" horiz-adv-x="870" d="M78 80v635q0 63 65 88q101 39 287 39q204 0 293.5 -96t89.5 -304v-362q0 -35 -22.5 -57.5t-59.5 -22.5h-137q-35 0 -57.5 22.5t-22.5 57.5v360q0 80 -12.5 101.5t-65.5 21.5q-39 0 -59 -4v-479q0 -35 -23.5 -57.5t-58.5 -22.5h-137q-35 0 -57.5 22.5t-22.5 57.5z" />
<glyph unicode="o" horiz-adv-x="905" d="M47 424q0 196 101.5 307t304.5 111t304 -111t101 -307q0 -208 -100.5 -321t-304.5 -113t-305 113t-101 321zM346 422q0 -156 107 -156q106 0 106 156q0 34 -8 63.5t-33 53.5t-65 24t-65.5 -24t-33.5 -53.5t-8 -63.5z" />
<glyph unicode="p" horiz-adv-x="884" d="M78 -319v1034q0 59 65 88q118 39 287 39q205 0 311.5 -117t106.5 -324q0 -203 -105 -307t-313 -104h-53v-309q0 -35 -22.5 -58.5t-57.5 -23.5h-139q-35 0 -57.5 23.5t-22.5 58.5zM377 266h39q56 0 94.5 32t38.5 103q0 162 -113 162q-39 0 -59 -4v-293z" />
<glyph unicode="q" horiz-adv-x="884" d="M37 401q0 207 106.5 324t311.5 117q168 0 286 -39q32 -14 49 -38t17 -50v-1034q0 -35 -22.5 -58.5t-57.5 -23.5h-139q-35 0 -57.5 23.5t-22.5 58.5v309h-53q-208 0 -313 104t-105 307zM336 401q0 -71 38.5 -103t94.5 -32h39v293q-20 4 -59 4q-113 0 -113 -162z" />
<glyph unicode="r" horiz-adv-x="679" d="M78 80v602q0 43 41 76q98 84 311 84q147 0 225 -68q39 -28 39 -74q0 -16 -6 -28l-39 -94q-9 -22 -30 -37t-44 -15q-7 0 -34 11q-71 26 -103 26q-46 0 -61 -18v-465q0 -35 -22.5 -57.5t-57.5 -22.5h-139q-35 0 -57.5 22.5t-22.5 57.5z" />
<glyph unicode="s" horiz-adv-x="776" d="M43 567q0 57 19.5 104.5t60 87t112.5 61.5t168 22q51 0 201 -25q32 -5 56 -27.5t24 -54.5v-16q0 -36 -10 -92q-7 -36 -23 -51t-43 -15q-26 2 -75 6t-72 4h-51t-35 -1.5t-26 -4t-7 -6.5q0 -13 42 -24.5t102 -28t120 -41.5t102 -75t42 -118q0 -133 -100 -207.5t-277 -74.5 q-49 0 -124.5 13t-129.5 34q-60 33 -60 86q4 33 31 106q7 25 29 37.5t49 12.5q9 0 29 -5q91 -26 172 -26q82 0 82 20q0 11 -30 21t-75.5 19t-98.5 29t-98.5 46t-75.5 74t-30 110z" />
<glyph unicode="t" horiz-adv-x="706" d="M6 633v117q0 35 22.5 57t59.5 22h55l29 258q14 76 80 76h106q35 0 57.5 -22.5t22.5 -57.5v-254h140q34 0 57.5 -22t23.5 -57v-117q0 -35 -23.5 -57.5t-57.5 -22.5h-140v-166q0 -121 74 -121q34 0 74 10q30 0 52 -16.5t30 -40.5l32 -100q0 -40 -10 -62.5t-45 -36.5 q-71 -30 -160 -30q-103 0 -172.5 30.5t-106.5 91.5t-52 137.5t-15 184.5v119h-51q-37 0 -59.5 22.5t-22.5 57.5z" />
<glyph unicode="u" horiz-adv-x="892" d="M57 371v379q0 35 22.5 57t57.5 22h139q35 0 57.5 -22t22.5 -57v-379q0 -71 19.5 -88t79.5 -17q42 0 61 17v467q0 35 23 57t59 22h135q36 0 59 -22t23 -57v-600q0 -54 -65 -89q-134 -71 -289 -71q-208 0 -306 90.5t-98 290.5z" />
<glyph unicode="v" horiz-adv-x="843" d="M6 750q0 35 22.5 57t57.5 22h152q57 0 81 -69l103 -309l102 309q24 69 82 69h152q35 0 57.5 -22t22.5 -57l-242 -682q-28 -68 -86 -68h-176q-58 0 -86 68z" />
<glyph unicode="w" horiz-adv-x="1153" d="M78 362v388q0 35 24 57t58 22h135q36 0 59 -22t23 -57v-375q0 -53 4 -75t12 -28t29 -6q8 0 19 4.5t12 10.5q-4 54 -4 86v383q0 35 23 57t58 22h111q34 0 58 -22t24 -57v-375q0 -30 3 -51.5t7 -32t10 -17t10.5 -7.5t10.5 -1q23 0 28 46t5 165q0 158 -31 260q0 43 22 67.5 t58 24.5h133q32 0 54.5 -21t27.5 -52q35 -166 35 -281q0 -85 -6.5 -149t-27 -130.5t-56.5 -109t-98 -69.5t-148 -27q-126 0 -187 84q-82 -84 -196 -84q-84 0 -143 27t-92.5 79t-48.5 117t-15 149z" />
<glyph unicode="x" horiz-adv-x="782" d="M6 88l211 326q-186 283 -211 325q0 39 22.5 64.5t57.5 25.5h131q34 0 60.5 -11.5t38 -24t24.5 -31.5l51 -78l51 78q13 19 24.5 31.5t38 24t60.5 11.5h131q35 0 57.5 -25.5t22.5 -64.5q-25 -42 -211 -325l211 -326q0 -38 -22.5 -63t-57.5 -25h-131q-86 0 -123 63 q-7 11 -24.5 37.5t-26.5 42.5q-9 -16 -26.5 -42.5t-24.5 -37.5q-37 -63 -123 -63h-131q-35 0 -57.5 25t-22.5 63z" />
<glyph unicode="y" horiz-adv-x="870" d="M57 338v412q0 35 22.5 57t57.5 22h139q35 0 57.5 -22t22.5 -57v-404q0 -38 5.5 -61t18 -33t24.5 -13t32 -3q12 0 26.5 6.5t23.5 13.5l8 6v488q0 35 22.5 57t56.5 22h140q35 0 57.5 -22t22.5 -57v-762q0 -40 -1 -66.5t-9 -76.5t-22 -85t-44 -77.5t-71 -68.5t-106 -44.5 t-147 -18.5q-30 0 -62.5 6.5t-72.5 25.5t-71.5 48.5t-52.5 81t-21 117.5q0 54 18.5 107t50.5 90q-61 43 -93 125.5t-32 185.5zM399 -123q0 -53 41 -53q24 0 39 18.5t15 55.5v120q-95 -52 -95 -141z" />
<glyph unicode="z" horiz-adv-x="765" d="M37 80v178l276 295h-196q-35 0 -57.5 22.5t-22.5 57.5v117q0 35 22.5 57t57.5 22h532q35 0 57.5 -22t22.5 -57v-172l-285 -302h205q35 0 57.5 -22t22.5 -57v-117q0 -35 -22.5 -57.5t-57.5 -22.5h-532q-35 0 -57.5 22.5t-22.5 57.5z" />
<glyph unicode="{" horiz-adv-x="970" d="M98 504v114q0 35 22.5 57.5t57.5 22.5h12q61 0 94 17t33 65v226q0 75 4.5 129.5t17 109t35.5 91t59.5 65.5t90 43t125.5 14q74 0 170 -26q26 -8 39.5 -38t13.5 -65l-28 -110q-8 -24 -32 -40t-56 -16q-62 17 -76 17q-59 0 -59 -127v-291q0 -140 -95 -201q95 -74 95 -205 v-252q0 -45 13.5 -84.5t45.5 -39.5q25 0 76 14q32 0 56 -20t36 -54l24 -90q0 -35 -13.5 -63.5t-39.5 -36.5q-111 -29 -170 -29q-61 0 -109.5 11t-83.5 30.5t-60 51t-40 67t-24 84.5t-12 97t-3 112v186q0 47 -33 63.5t-94 16.5h-12q-36 0 -58 23t-22 61z" />
<glyph unicode="|" horiz-adv-x="495" d="M98 -215v1589q0 37 22.5 60.5t57.5 23.5h135q36 0 60 -24t24 -60v-1589q0 -36 -24 -60t-60 -24h-135q-35 0 -57.5 23.5t-22.5 60.5z" />
<glyph unicode="}" horiz-adv-x="970" d="M98 -170l25 90q12 34 36 54t56 20q51 -14 76 -14q32 0 45.5 39.5t13.5 84.5v252q0 132 94 205q-94 61 -94 201v291q0 127 -59 127q-14 0 -76 -17q-32 0 -56 16t-32 40l-29 110q0 35 14 65t40 38q96 26 170 26q85 0 146 -21.5t96.5 -57.5t55.5 -96.5t26.5 -123t6.5 -153.5 v-226q0 -48 33 -65t94 -17h13q35 0 57 -22.5t22 -57.5v-114q0 -38 -22 -61t-57 -23h-13q-61 0 -94 -16.5t-33 -63.5v-186q0 -91 -6.5 -153.5t-26.5 -123.5t-55.5 -96.5t-96.5 -57.5t-146 -22q-59 0 -170 29q-26 9 -40 37t-14 63z" />
<glyph unicode="~" horiz-adv-x="894" d="M78 479q0 38 33 68q45 33 105 55.5t103 22.5q44 0 127.5 -33t126.5 -33q17 0 49 14.5t52 14.5q40 0 67 -35l58 -80q18 -27 18 -45q0 -37 -35 -68q-43 -34 -103.5 -55.5t-105.5 -21.5q-44 0 -126.5 32.5t-127.5 32.5q-17 0 -49.5 -15.5t-52.5 -15.5q-19 0 -37.5 10 t-29.5 25l-60 78q-12 20 -12 49z" />
<glyph unicode="&#xa1;" horiz-adv-x="477" d="M78 1001q0 68 46.5 115t113.5 47t114 -47t47 -115q0 -69 -46.5 -115t-114.5 -46t-114 46t-46 115zM90 74l14 633q0 37 22.5 60.5t57.5 23.5h103q36 0 60 -24t24 -60l18 -633q0 -36 -24 -60t-60 -24h-135q-35 0 -57.5 23.5t-22.5 60.5z" />
<glyph unicode="&#xa2;" horiz-adv-x="1019" d="M78 573q0 128 24 228.5t64 165.5t98.5 109t122.5 64.5t141 26.5v142q0 71 54 71h43q55 0 55 -71v-144q109 -12 211 -78q22 -12 36.5 -33t14.5 -44q0 -11 -49 -107q-12 -24 -32.5 -37.5t-41.5 -13.5q-13 0 -43 12q-56 22 -96 25v-619q54 12 106 37q20 10 33 10 q23 0 44 -13t30 -36l43 -94q2 -8 2 -24q0 -43 -45 -70q-105 -69 -213 -84v-115q0 -71 -55 -71h-43q-54 0 -54 71v113q-95 11 -173.5 47.5t-142 103.5t-99 176t-35.5 252zM377 573q0 -115 43 -184t108 -100v588q-151 -55 -151 -304z" />
<glyph unicode="&#xa3;" horiz-adv-x="1073" d="M78 520v113q0 35 24.5 58.5t59.5 23.5h67v33q0 202 107.5 312.5t310.5 110.5q168 0 279 -84q45 -33 45 -77q0 -13 -47 -111q-14 -47 -72 -47q-10 0 -45 14q-59 27 -143 27q-57 0 -96.5 -36t-39.5 -109v-33h129q38 0 61 -23t23 -59v-113q0 -36 -23 -60t-61 -24h-129v-160 h383q36 0 60 -23t24 -58v-111q0 -36 -24 -60t-60 -24h-600q-37 0 -59.5 23.5t-22.5 60.5v352h-67q-35 0 -59.5 24.5t-24.5 59.5z" />
<glyph unicode="&#xa4;" horiz-adv-x="983" d="M78 174q0 28 22 47l95 96q-21 55 -21 115q0 58 23 115l-97 96q-22 19 -22 47q0 30 20 47l74 76q21 21 47 21q22 0 45 -19l94 -96q59 29 134 29q74 0 133 -29l94 96q23 19 45 19q26 0 47 -21l74 -76q20 -17 20 -47q0 -28 -22 -47l-97 -96q23 -58 23 -115q0 -60 -21 -115 l95 -96q22 -19 22 -47q0 -27 -20 -47l-74 -76q-20 -20 -47 -20q-23 0 -45 18l-94 96q-51 -30 -133 -30q-83 0 -134 30l-94 -96q-22 -18 -45 -18q-27 0 -47 20l-74 76q-20 20 -20 47zM412 432q0 -33 23.5 -56.5t56.5 -23.5q32 0 55.5 23t23.5 57q0 32 -23.5 55t-55.5 23 t-56 -23t-24 -55z" />
<glyph unicode="&#xa5;" horiz-adv-x="1150" d="M78 1073q0 39 24 64.5t60 25.5h151q54 0 86 -69l172 -369l181 369q32 69 86 69h151q36 0 60 -25.5t24 -64.5l-233 -483q29 -6 47 -27.5t18 -52.5v-51q0 -36 -23 -60t-61 -24h-86l-14 -33v-18h100q38 0 61 -23t23 -59v-52q0 -36 -23 -60t-61 -24h-100v-22 q0 -37 -22.5 -60.5t-59.5 -23.5h-133q-36 0 -60 24t-24 60v22h-96q-35 0 -59.5 24.5t-24.5 59.5v52q0 35 24.5 58.5t59.5 23.5h96v18l-16 33h-80q-35 0 -59.5 24.5t-24.5 59.5v51q0 29 17.5 51.5t45.5 28.5z" />
<glyph unicode="&#xa6;" horiz-adv-x="454" d="M78 -215v534q0 37 22.5 60.5t57.5 23.5h135q36 0 60 -24t24 -60v-534q0 -36 -24 -60t-60 -24h-135q-35 0 -57.5 23.5t-22.5 60.5zM78 840v534q0 37 22.5 60.5t57.5 23.5h135q36 0 60 -24t24 -60v-534q0 -36 -24 -60t-60 -24h-135q-35 0 -57.5 23.5t-22.5 60.5z" />
<glyph unicode="&#xa7;" horiz-adv-x="921" d="M78 575q0 119 80 193q-31 57 -31 127q0 57 19.5 105t61 87t115 61.5t171.5 22.5t202 -26q30 -3 55 -25.5t25 -54.5t-10 -111q-9 -37 -24.5 -51t-41.5 -14l-24 2q-4 0 -13.5 1t-13.5 1q-82 8 -98 8q-121 0 -121 -31q0 -13 23 -22.5t59.5 -17.5t80.5 -17.5t88 -26t80.5 -39 t59.5 -62t23 -89.5q0 -122 -82 -195q31 -57 31 -125q0 -136 -102 -211t-283 -75q-49 0 -124.5 13t-129.5 34q-60 33 -60 86q4 33 31 106q7 25 29 37.5t49 12.5q8 0 28 -5q77 -22 177 -22q84 0 84 18q0 12 -30.5 22.5t-76.5 20t-100 29t-100 46t-76.5 75t-30.5 112.5z M358 571q0 -24 101 -24q106 0 106 28q0 10 -15 16.5t-26.5 7.5t-19.5 1q-78 0 -112 -5t-34 -24z" />
<glyph unicode="&#xa8;" horiz-adv-x="858" d="M78 1010q0 69 46 115t114 46t114.5 -46t46.5 -115q0 -68 -47 -115t-114 -47t-113.5 47t-46.5 115zM459 1010q0 69 45.5 115t113.5 46t115 -46t47 -115q0 -68 -47 -115t-115 -47q-67 0 -113 47t-46 115z" />
<glyph unicode="&#xa9;" horiz-adv-x="1337" d="M78 580q0 161 78.5 297t214.5 215t297 79t297.5 -79t215.5 -215t79 -297t-79 -297t-215.5 -214.5t-297.5 -78.5t-297 78.5t-214.5 214.5t-78.5 297zM272 582q0 -165 116.5 -281.5t281.5 -116.5q166 0 281.5 116t115.5 282q0 165 -116 281t-281 116q-164 0 -281 -116.5 t-117 -280.5zM375 578q0 146 76 223.5t221 77.5q124 0 202 -60q23 -15 23 -37q0 -16 -33 -88q-9 -18 -30 -18q-12 0 -21 6q-55 25 -127 25q-56 0 -87.5 -28.5t-31.5 -100.5q0 -134 119 -134q74 0 127 29q12 4 21 4q21 0 38 -35q25 -55 25 -75q0 -18 -23 -37 q-78 -58 -202 -58q-145 0 -221 80t-76 226z" />
<glyph unicode="&#xaa;" horiz-adv-x="749" d="M78 817q0 159 90 256.5t248 97.5q113 0 215 -38q41 -12 41 -56v-516q0 -23 -16.5 -39t-39.5 -16h-86q-32 0 -57 31l-12 14q-62 -53 -146 -53q-65 0 -112.5 26t-74 72t-38.5 100.5t-12 120.5zM305 815q0 -119 78 -119q16 0 31 8t22 16l8 7v246q-71 -6 -105 -50.5 t-34 -107.5z" />
<glyph unicode="&#xab;" horiz-adv-x="999" d="M78 395v56q0 2 8 34l94 295q18 62 66 62h170q29 0 47 -19t18 -47l-100 -303q-4 -8 -4 -22v-56q0 -12 4 -20l100 -303q0 -31 -18 -51.5t-47 -20.5h-170q-48 0 -66 59l-94 303q-8 32 -8 33zM518 395v56q0 2 8 34l95 295q18 62 65 62h170q29 0 47.5 -19t18.5 -47l-101 -303 q-4 -8 -4 -22v-56q0 -12 4 -20l101 -303q0 -31 -18.5 -51.5t-47.5 -20.5h-170q-47 0 -65 59l-95 303q-8 32 -8 33z" />
<glyph unicode="&#xac;" horiz-adv-x="921" d="M78 360v111q0 36 24 60t60 24h600q37 0 59.5 -23.5t22.5 -60.5v-289q0 -37 -22.5 -60.5t-59.5 -23.5h-133q-36 0 -60 24t-24 60v97h-383q-36 0 -60 23t-24 58z" />
<glyph unicode="&#xad;" horiz-adv-x="387" />
<glyph unicode="&#xae;" horiz-adv-x="1337" d="M78 580q0 161 78.5 297t214.5 215t297 79t297.5 -79t215.5 -215t79 -297t-79 -297t-215.5 -214.5t-297.5 -78.5t-297 78.5t-214.5 214.5t-78.5 297zM272 582q0 -165 116.5 -281.5t281.5 -116.5q166 0 281.5 116t115.5 282q0 165 -116 281t-281 116q-164 0 -281 -116.5 t-117 -280.5zM465 322v548q0 11 7 18t17 7h185q107 0 171 -59.5t64 -161.5q0 -134 -69 -178l30 -70q14 -34 25 -41q10 -7 10 -23v-20q0 -16 -13.5 -27.5t-34.5 -16t-36 -6t-30 -1.5q-16 0 -27.5 2.5t-21.5 10.5t-16 14.5t-13.5 23t-11.5 28t-13.5 37t-15.5 42.5h-21v-127 q0 -11 -7 -18t-17 -7h-138q-10 0 -17 7t-7 18zM651 606h8q38 0 48 10.5t10 53.5q0 42 -11 54.5t-47 12.5h-8v-131z" />
<glyph unicode="&#xaf;" horiz-adv-x="819" d="M78 969v112q0 35 24.5 58.5t59.5 23.5h495q38 0 61 -23t23 -59v-112q0 -36 -23 -60t-61 -24h-495q-35 0 -59.5 24.5t-24.5 59.5z" />
<glyph unicode="&#xb0;" horiz-adv-x="651" d="M78 909q0 129 67.5 195.5t180.5 66.5t180 -66.5t67 -195.5t-66.5 -193.5t-180.5 -64.5t-181 64.5t-67 193.5zM279 909q0 -32 15 -44.5t32 -12.5q10 0 19.5 3.5t18.5 17t9 36.5q0 32 -15 46t-32 14t-32 -14t-15 -46z" />
<glyph unicode="&#xb1;" horiz-adv-x="811" d="M78 84v113q0 35 24.5 58.5t59.5 23.5h487q38 0 61 -23t23 -59v-113q0 -38 -23 -61t-61 -23h-487q-36 0 -60 23t-24 61zM78 612v113q0 35 24.5 58.5t59.5 23.5h94v115q0 36 24 60t60 24h131q38 0 61 -23.5t23 -60.5v-115h94q38 0 61 -23t23 -59v-113q0 -38 -23 -61 t-61 -23h-94v-112q0 -36 -23 -60t-61 -24h-131q-35 0 -59.5 24.5t-24.5 59.5v112h-94q-36 0 -60 23t-24 61z" />
<glyph unicode="&#xb2;" horiz-adv-x="620" d="M78 518v154q0 47 17.5 86t43 62t56 42t56 30t43 23t17.5 23q0 16 -13.5 24.5t-61.5 8.5q-8 0 -23.5 -1.5t-40 -4t-41.5 -4.5q-11 0 -16 0.5t-10.5 5.5t-6.5 14q-4 39 -4 143q0 9 8.5 16t18.5 9q78 22 162 22q100 0 157.5 -24.5t78 -67.5t20.5 -114q0 -49 -15.5 -88.5 t-39 -62t-51 -41t-51 -28.5t-39 -21t-15.5 -22v-10h188q11 0 19 -8t8 -18v-148q0 -10 -8 -18t-19 -8h-412q-10 0 -18 8t-8 18z" />
<glyph unicode="&#xb3;" horiz-adv-x="618" d="M78 541q0 59 4 137q2 24 33 24q90 -12 135 -12q35 0 46 5.5t11 25.5q0 13 -6.5 19t-14 7t-24.5 1h-53q-11 0 -19 7t-8 17v115q0 10 8 17t19 7h39q32 0 46 3t16.5 7.5t2.5 16.5q0 17 -9.5 25t-41.5 8q-19 0 -147 -17q-31 0 -33 25q-4 78 -4 135q0 30 26 37q37 9 109 14.5 t104 5.5q111 0 167.5 -56t56.5 -148q0 -40 -23 -79.5t-51 -58.5q30 -23 49 -58t19 -73q0 -96 -58.5 -151t-171.5 -55q-27 0 -94 6.5t-105 15.5q-28 8 -28 27z" />
<glyph unicode="&#xb4;" horiz-adv-x="587" d="M78 889q0 21 12 45l182 207q30 30 70 30q42 0 59 -22l80 -92q29 -33 29 -68q0 -15 -7.5 -29t-15 -21t-22.5 -19l-178 -146q-39 -24 -74 -24q-30 0 -66 32l-34 37q-35 35 -35 70z" />
<glyph unicode="&#xb5;" horiz-adv-x="913" d="M78 -317v1067q0 35 22.5 57t57.5 22h139q35 0 57.5 -22t22.5 -57v-402q0 -56 19.5 -69t78.5 -13q43 0 62 17v467q0 35 23 57t58 22h136q36 0 59 -22t23 -57v-600q0 -53 -66 -89q-134 -71 -289 -71q-57 0 -104 6v-313q0 -36 -24 -60t-60 -24h-135q-35 0 -57.5 23.5 t-22.5 60.5z" />
<glyph unicode="&#xb6;" horiz-adv-x="1126" d="M78 805q0 151 102.5 254.5t253.5 103.5h531q37 0 60.5 -23.5t23.5 -60.5v-995q0 -37 -23.5 -60.5t-60.5 -23.5h-131q-37 0 -60.5 23.5t-23.5 60.5v801h-76v-801q0 -37 -22.5 -60.5t-57.5 -23.5h-137q-35 0 -58.5 23.5t-23.5 60.5v371q-130 22 -213.5 119.5t-83.5 230.5z " />
<glyph unicode="&#xb7;" horiz-adv-x="477" d="M78 358q0 69 46 115.5t114 46.5t114.5 -46.5t46.5 -115.5q0 -68 -46.5 -114.5t-114.5 -46.5q-67 0 -113.5 46.5t-46.5 114.5z" />
<glyph unicode="&#xb8;" horiz-adv-x="604" d="M78 -213q0 48 16 65t56 17l22 -4q24 -6 37 -6q27 0 38 5t11 23q0 17 -2 25q0 31 21.5 54.5t54.5 23.5h112q28 0 53 -25t27 -53q2 -16 2 -51q0 -125 -61.5 -180.5t-181.5 -55.5q-72 0 -138.5 25t-66.5 59v78z" />
<glyph unicode="&#xb9;" horiz-adv-x="569" d="M78 864v146q0 18 12 30l193 123h166q19 0 31 -12t12 -31v-569q0 -20 -12 -32.5t-31 -12.5h-140q-18 0 -31.5 12.5t-13.5 32.5v356l-137 -88q-21 0 -35 13t-14 32z" />
<glyph unicode="&#xba;" horiz-adv-x="651" d="M78 909q0 129 67.5 195.5t180.5 66.5t180 -66.5t67 -195.5t-66.5 -193.5t-180.5 -64.5t-181 64.5t-67 193.5zM279 909q0 -32 15 -44.5t32 -12.5q10 0 19.5 3.5t18.5 17t9 36.5q0 32 -15 46t-32 14t-32 -14t-15 -46z" />
<glyph unicode="&#xbb;" horiz-adv-x="999" d="M78 72l100 303q4 8 4 20v56q0 14 -4 22l-100 303q0 28 18 47t47 19h170q48 0 66 -62l94 -295q8 -32 8 -34v-56q0 -1 -8 -33l-94 -303q-18 -59 -66 -59h-170q-29 0 -47 20.5t-18 51.5zM518 72l100 303q5 10 5 20v56q0 12 -5 22l-100 303q0 28 18.5 47t47.5 19h170 q47 0 65 -62l94 -295q1 -3 3.5 -10t4 -13.5t1.5 -10.5v-56q0 -5 -4 -19l-5 -14l-94 -303q-18 -59 -65 -59h-170q-29 0 -47.5 20.5t-18.5 51.5z" />
<glyph unicode="&#xbc;" horiz-adv-x="1505" d="M78 864v146q0 18 12 30l193 123h166q19 0 31 -12t12 -31v-569q0 -20 -12 -32.5t-31 -12.5h-140q-18 0 -31.5 12.5t-13.5 32.5v356l-137 -88q-21 0 -35 13t-14 32zM352 70l506 1034q34 59 90 59h96q28 0 46 -19t18 -50l-504 -1035q-33 -59 -72 -59h-114q-28 0 -47 20 t-19 50zM858 135v156l246 360q25 29 47 29h149q19 0 31 -12t12 -31v-346h41q9 0 18 -9.5t9 -19.5v-127q0 -10 -9 -18t-18 -8h-41v-64q0 -20 -12 -32.5t-31 -12.5h-122q-18 0 -31.5 12.5t-13.5 32.5v64h-246q-12 0 -20.5 7.5t-8.5 18.5zM1069 291h78v117z" />
<glyph unicode="&#xbd;" horiz-adv-x="1476" d="M78 864v146q0 18 12 30l193 123h166q19 0 31 -12t12 -31v-569q0 -20 -12 -32.5t-31 -12.5h-140q-18 0 -31.5 12.5t-13.5 32.5v356l-137 -88q-21 0 -35 13t-14 32zM352 70l506 1034q34 59 90 59h96q28 0 46 -19t18 -50l-504 -1035q-33 -59 -72 -59h-114q-28 0 -47 20 t-19 50zM934 27v153q0 47 17.5 86t43 62t56 42t56 30t43 23t17.5 23q0 16 -13.5 24.5t-61.5 8.5q-8 0 -23.5 -1.5t-40 -4t-41.5 -4.5q-11 0 -16 0.5t-10.5 5.5t-6.5 14q-4 39 -4 144q0 8 8.5 15t18.5 9q82 23 162 23q147 0 201.5 -49.5t54.5 -157.5q0 -49 -15.5 -88.5 t-39 -62t-51 -40.5t-51 -28t-39 -21t-15.5 -22v-10h188q10 0 18.5 -8.5t8.5 -18.5v-147q0 -11 -8.5 -19t-18.5 -8h-411q-11 0 -19 8t-8 19z" />
<glyph unicode="&#xbe;" horiz-adv-x="1454" d="M78 541q0 59 4 137q2 24 33 24q90 -12 135 -12q35 0 46 5.5t11 25.5q0 13 -6.5 19t-14 7t-24.5 1h-53q-11 0 -19 7t-8 17v115q0 10 8 17t19 7h39q32 0 46 3t16.5 7.5t2.5 16.5q0 17 -9.5 25t-41.5 8q-19 0 -147 -17q-31 0 -33 25q-4 78 -4 135q0 30 26 37q37 9 109 14.5 t104 5.5q111 0 167.5 -56t56.5 -148q0 -40 -23 -79.5t-51 -58.5q30 -23 49 -58t19 -73q0 -96 -58.5 -151t-171.5 -55q-27 0 -94 6.5t-105 15.5q-28 8 -28 27zM358 70q0 -30 19 -50t47 -20h115q38 0 71 59l504 1035q0 31 -17.5 50t-45.5 19h-97q-56 0 -90 -59zM823 135v156 l246 360q25 29 47 29h150q19 0 31 -12t12 -31v-346h41q9 0 17.5 -9.5t8.5 -19.5v-127q0 -10 -8.5 -18t-17.5 -8h-41v-64q0 -20 -12 -32.5t-31 -12.5h-123q-18 0 -31.5 12.5t-13.5 32.5v64h-246q-12 0 -20.5 7.5t-8.5 18.5zM1034 291h78v117z" />
<glyph unicode="&#xbf;" horiz-adv-x="901" d="M78 350q0 39 7 72t16 56.5t27.5 44.5t32.5 33t40.5 26t41 20.5t44.5 18.5l27.5 11t28.5 12t21 12t20 17t10 20.5t5 27.5v12q0 36 23 58t59 22h135q36 0 59 -22t23 -58v-22q0 -40 -4.5 -73.5t-11 -58.5t-19.5 -47t-23 -36.5t-30 -28.5t-32 -21t-37 -16t-36.5 -12.5 t-39.5 -11.5q-25 -7 -40 -12.5t-31.5 -20.5t-16.5 -35q0 -40 30 -55t111 -15q32 0 150 15l51 6q45 0 69.5 -14.5t28.5 -61.5q0 -19 3 -60t3 -44q0 -30 -22.5 -52.5t-50.5 -29.5q-63 -17 -136 -27t-110 -10q-71 0 -128.5 7t-100 21t-74.5 32t-53.5 44t-35.5 52.5t-21.5 62 t-10 67.5t-2.5 74zM391 1014q0 -66 46 -112t112 -46t112 46t46 112t-46 111.5t-112 45.5t-112 -45.5t-46 -111.5z" />
<glyph unicode="&#xc0;" horiz-adv-x="1052" d="M6 84l348 1008q10 32 34.5 51.5t53.5 19.5h172q29 0 54 -19.5t37 -51.5l280 -807q19 -51 23 -52q49 -25 49 -73v-68q0 -36 -28 -60.5t-62.5 -33t-71.5 -8.5q-29 0 -53 6t-41.5 20.5t-29 26t-23 34.5t-16 34t-13.5 36l-37 99h-301l-59 -170q-8 -32 -32 -54t-54 -22h-148 q-35 0 -58.5 23.5t-23.5 60.5zM272 1505q0 35 29 68l80 92q18 23 59 23q39 0 70 -31l182 -207q13 -26 13 -45q0 -35 -35 -70l-35 -37q-36 -32 -66 -32q-34 0 -73 24l-179 146q-15 12 -22.5 19t-15 21t-7.5 29zM467 506h125l-62 186z" />
<glyph unicode="&#xc1;" horiz-adv-x="1052" d="M6 84l348 1008q10 32 34.5 51.5t53.5 19.5h172q29 0 54 -19.5t37 -51.5l280 -807q19 -51 23 -52q49 -25 49 -73v-68q0 -36 -28 -60.5t-62.5 -33t-71.5 -8.5q-29 0 -53 6t-41.5 20.5t-29 26t-23 34.5t-16 34t-13.5 36l-37 99h-301l-59 -170q-8 -32 -32 -54t-54 -22h-148 q-35 0 -58.5 23.5t-23.5 60.5zM272 1405q0 19 13 45l182 207q31 31 70 31q41 0 59 -23l80 -92q29 -33 29 -68q0 -15 -7.5 -29t-15.5 -21t-23 -19l-178 -146q-39 -24 -73 -24q-30 0 -66 32l-35 37q-35 35 -35 70zM467 506h125l-62 186z" />
<glyph unicode="&#xc2;" horiz-adv-x="1052" d="M6 84l348 1008q10 32 34.5 51.5t53.5 19.5h172q29 0 54 -19.5t37 -51.5l280 -807q19 -51 23 -52q49 -25 49 -73v-68q0 -36 -28 -60.5t-62.5 -33t-71.5 -8.5q-29 0 -53 6t-41.5 20.5t-29 26t-23 34.5t-16 34t-13.5 36l-37 99h-301l-59 -170q-8 -32 -32 -54t-54 -22h-148 q-35 0 -58.5 23.5t-23.5 60.5zM215 1356l143 243q39 68 86 68h177q47 0 86 -68l143 -243q0 -38 -24.5 -64t-59.5 -26h-92q-33 0 -55 18.5t-44 52.5l-43 66l-43 -66q-15 -23 -24.5 -35t-29 -24t-42.5 -12h-94q-35 0 -59.5 26t-24.5 64zM467 506h125l-62 186z" />
<glyph unicode="&#xc3;" horiz-adv-x="1052" d="M6 84l348 1008q10 32 34.5 51.5t53.5 19.5h172q29 0 54 -19.5t37 -51.5l280 -807q19 -51 23 -52q49 -25 49 -73v-68q0 -36 -28 -60.5t-62.5 -33t-71.5 -8.5q-29 0 -53 6t-41.5 20.5t-29 26t-23 34.5t-16 34t-13.5 36l-37 99h-301l-59 -170q-8 -32 -32 -54t-54 -22h-148 q-35 0 -58.5 23.5t-23.5 60.5zM162 1462q0 38 33 68q45 33 105 55.5t103 22.5q44 0 127.5 -33t126.5 -33q17 0 49 14.5t52 14.5q40 0 67 -35l58 -80q18 -27 18 -45q0 -37 -35 -68q-43 -34 -103.5 -55.5t-105.5 -21.5q-44 0 -126.5 32.5t-127.5 32.5q-17 0 -49.5 -15.5 t-52.5 -15.5q-43 0 -68 35l-59 78q-12 20 -12 49zM467 506h125l-62 186z" />
<glyph unicode="&#xc4;" horiz-adv-x="1052" d="M6 84l348 1008q10 32 34.5 51.5t53.5 19.5h172q29 0 54 -19.5t37 -51.5l280 -807q19 -51 23 -52q49 -25 49 -73v-68q0 -36 -28 -60.5t-62.5 -33t-71.5 -8.5q-29 0 -53 6t-41.5 20.5t-29 26t-23 34.5t-16 34t-13.5 36l-37 99h-301l-59 -170q-8 -32 -32 -54t-54 -22h-148 q-35 0 -58.5 23.5t-23.5 60.5zM178 1427q0 69 46 115.5t114 46.5t115 -46.5t47 -115.5q0 -67 -47 -114t-115 -47q-67 0 -113.5 46.5t-46.5 114.5zM467 506h125l-62 186zM557 1427q0 69 46 115.5t114 46.5t115 -46.5t47 -115.5q0 -67 -47 -114t-115 -47q-67 0 -113.5 46.5 t-46.5 114.5z" />
<glyph unicode="&#xc5;" horiz-adv-x="1052" d="M6 84l348 1008q10 32 34.5 51.5t53.5 19.5h172q29 0 54 -19.5t37 -51.5l280 -807q19 -51 23 -52q49 -25 49 -73v-68q0 -36 -28 -60.5t-62.5 -33t-71.5 -8.5q-29 0 -53 6t-41.5 20.5t-29 26t-23 34.5t-16 34t-13.5 36l-37 99h-301l-59 -170q-8 -32 -32 -54t-54 -22h-148 q-35 0 -58.5 23.5t-23.5 60.5zM283 1524q0 129 67 195.5t180 66.5t180.5 -66.5t67.5 -195.5t-67 -193.5t-181 -64.5t-180.5 64.5t-66.5 193.5zM467 506h125l-62 186zM483 1524q0 -32 15 -45t32 -13t32.5 13t15.5 45t-15.5 45.5t-32.5 13.5t-32 -13.5t-15 -45.5z" />
<glyph unicode="&#xc6;" horiz-adv-x="1552" d="M-4 94l565 1006q18 27 46.5 45t56.5 18h759q37 0 59.5 -23.5t22.5 -60.5v-112q0 -36 -23 -59t-59 -23h-411v-166h293q35 0 57 -24t22 -60v-111q0 -36 -22 -60t-57 -24h-293v-164h411q37 0 59.5 -23t22.5 -58v-111q0 -37 -22.5 -60.5t-59.5 -23.5h-626q-37 0 -60.5 23.5 t-23.5 60.5v162h-289l-100 -180q-13 -22 -21.5 -33.5t-25.5 -22t-39 -10.5h-160q-36 0 -59 27t-23 67zM569 506h144v264z" />
<glyph unicode="&#xc7;" horiz-adv-x="937" d="M47 573q0 102 15 186t41 145t65 108t83 76.5t98 48.5t108 26.5t116 7.5q162 0 287 -84q22 -12 36.5 -33t14.5 -44q0 -11 -49 -107q-12 -24 -32.5 -37.5t-41.5 -13.5q-13 0 -43 12q-63 29 -153 29q-246 0 -246 -320q0 -71 18.5 -127t45.5 -88.5t62 -54.5t64.5 -29.5 t55.5 -7.5q77 0 164 41q20 10 32 10q23 0 44 -13t30 -36l43 -94q2 -8 2 -24q0 -43 -45 -70q-74 -50 -145 -70q4 -46 4 -82q0 -125 -62 -180t-182 -55q-72 0 -138.5 25t-66.5 59v78q0 48 16 65t56 17l23 -5q24 -6 36 -6q27 0 38.5 5.5t11.5 23.5q0 14 -11 47 q-85 17 -154.5 57.5t-124.5 107.5t-85.5 170.5t-30.5 235.5z" />
<glyph unicode="&#xc8;" horiz-adv-x="897" d="M78 84v995q0 37 22.5 60.5t59.5 23.5h628q37 0 59.5 -23.5t22.5 -60.5v-112q0 -36 -23 -59t-59 -23h-411v-166h293q35 0 57.5 -24t22.5 -60v-111q0 -36 -22.5 -60t-57.5 -24h-293v-164h411q36 0 59 -23t23 -58v-111q0 -37 -22.5 -60.5t-59.5 -23.5h-628q-37 0 -59.5 23.5 t-22.5 60.5zM233 1505q0 35 29 68l80 92q18 23 59 23q39 0 70 -31l182 -207q13 -26 13 -45q0 -35 -35 -70l-35 -37q-36 -32 -66 -32q-34 0 -73 24l-178 146q-15 12 -23 19t-15.5 21t-7.5 29z" />
<glyph unicode="&#xc9;" horiz-adv-x="897" d="M78 84v995q0 37 22.5 60.5t59.5 23.5h628q37 0 59.5 -23.5t22.5 -60.5v-112q0 -36 -23 -59t-59 -23h-411v-166h293q35 0 57.5 -24t22.5 -60v-111q0 -36 -22.5 -60t-57.5 -24h-293v-164h411q36 0 59 -23t23 -58v-111q0 -37 -22.5 -60.5t-59.5 -23.5h-628q-37 0 -59.5 23.5 t-22.5 60.5zM233 1405q0 19 13 45l182 207q31 31 70 31q41 0 59 -23l80 -92q29 -33 29 -68q0 -15 -7.5 -29t-15 -21t-22.5 -19l-179 -146q-39 -24 -73 -24q-30 0 -66 32l-35 37q-35 35 -35 70z" />
<glyph unicode="&#xca;" horiz-adv-x="897" d="M78 84v995q0 37 22.5 60.5t59.5 23.5h628q37 0 59.5 -23.5t22.5 -60.5v-112q0 -36 -23 -59t-59 -23h-411v-166h293q35 0 57.5 -24t22.5 -60v-111q0 -36 -22.5 -60t-57.5 -24h-293v-164h411q36 0 59 -23t23 -58v-111q0 -37 -22.5 -60.5t-59.5 -23.5h-628q-37 0 -59.5 23.5 t-22.5 60.5zM164 1356l143 243q39 68 86 68h176q47 0 86 -68l144 -243q0 -38 -24.5 -64t-59.5 -26h-92q-33 0 -55 18.5t-44 52.5l-43 66l-43 -66q-15 -23 -24.5 -35t-29 -24t-42.5 -12h-94q-35 0 -59.5 26t-24.5 64z" />
<glyph unicode="&#xcb;" horiz-adv-x="897" d="M78 84v995q0 37 22.5 60.5t59.5 23.5h628q37 0 59.5 -23.5t22.5 -60.5v-112q0 -36 -23 -59t-59 -23h-411v-166h293q35 0 57.5 -24t22.5 -60v-111q0 -36 -22.5 -60t-57.5 -24h-293v-164h411q36 0 59 -23t23 -58v-111q0 -37 -22.5 -60.5t-59.5 -23.5h-628q-37 0 -59.5 23.5 t-22.5 60.5zM121 1427q0 69 46 115.5t114 46.5t114.5 -46.5t46.5 -115.5q0 -67 -47 -114t-114 -47t-113.5 46.5t-46.5 114.5zM502 1427q0 69 46 115.5t114 46.5t114.5 -46.5t46.5 -115.5q0 -67 -46.5 -114t-114.5 -47q-67 0 -113.5 46.5t-46.5 114.5z" />
<glyph unicode="&#xcc;" horiz-adv-x="458" d="M12 1505q0 35 29 68l80 92q18 23 59 23q39 0 70 -31l182 -207q12 -24 12 -45q0 -36 -34 -70l-35 -37q-36 -32 -66 -32q-34 0 -73 24l-179 146q-15 12 -22.5 19t-15 21t-7.5 29zM80 84v995q0 37 22.5 60.5t57.5 23.5h135q36 0 60 -24t24 -60v-995q0 -36 -24 -60t-60 -24 h-135q-35 0 -57.5 23.5t-22.5 60.5z" />
<glyph unicode="&#xcd;" horiz-adv-x="458" d="M14 1405q0 19 13 45l182 207q31 31 70 31q41 0 59 -23l80 -92q28 -32 28 -68q0 -15 -7.5 -29t-15 -21t-22.5 -19l-178 -146q-39 -24 -73 -24q-30 0 -66 32l-35 37q-35 35 -35 70zM80 84v995q0 36 24 60t60 24h135q35 0 57.5 -23.5t22.5 -60.5v-995q0 -37 -22.5 -60.5 t-57.5 -23.5h-135q-36 0 -60 24t-24 60z" />
<glyph unicode="&#xce;" horiz-adv-x="458" d="M-88 1356l143 243q39 68 86 68h176q47 0 86 -68l144 -243q0 -38 -24.5 -64t-59.5 -26h-92q-33 0 -55 18.5t-44 52.5l-43 66l-43 -66q-15 -23 -24.5 -35t-29 -24t-42.5 -12h-94q-35 0 -59.5 26t-24.5 64zM80 84v995q0 37 22.5 60.5t57.5 23.5h135q36 0 60 -24t24 -60v-995 q0 -36 -24 -60t-60 -24h-135q-35 0 -57.5 23.5t-22.5 60.5z" />
<glyph unicode="&#xcf;" horiz-adv-x="458" d="M-121 1427q0 69 46 115.5t114 46.5t115 -46.5t47 -115.5q0 -67 -47 -114t-115 -47q-67 0 -113.5 46.5t-46.5 114.5zM80 84v995q0 37 22.5 60.5t57.5 23.5h135q36 0 60 -24t24 -60v-995q0 -36 -24 -60t-60 -24h-135q-35 0 -57.5 23.5t-22.5 60.5zM258 1427q0 69 46 115.5 t114 46.5t115 -46.5t47 -115.5q0 -67 -47 -114t-115 -47q-67 0 -113.5 46.5t-46.5 114.5z" />
<glyph unicode="&#xd0;" horiz-adv-x="1085" d="M6 518v113q0 35 24.5 58.5t59.5 23.5h84v366q0 36 24 60t60 24h358q210 0 316 -111t106 -323v-295q0 -212 -106 -323t-316 -111h-358q-35 0 -59.5 25.5t-24.5 60.5v348h-84q-35 0 -59.5 24.5t-24.5 59.5zM473 276h139q56 0 91.5 38t35.5 116v301q0 78 -35.5 116t-91.5 38 h-139v-172h113q38 0 61 -23t23 -59v-113q0 -36 -23 -60t-61 -24h-113v-158z" />
<glyph unicode="&#xd1;" horiz-adv-x="1083" d="M78 84v995q0 36 24 60t60 24h145q55 0 94 -57l306 -473v446q0 37 23 60.5t58 23.5h136q35 0 58.5 -23.5t23.5 -60.5v-995q0 -37 -23.5 -60.5t-58.5 -23.5h-111q-24 0 -49.5 15t-42.5 42q-55 94 -175.5 275t-168.5 260v-508q0 -37 -23.5 -60.5t-58.5 -23.5h-133 q-36 0 -60 24t-24 60zM166 1462q0 38 33 68q45 33 105.5 55.5t103.5 22.5q44 0 127.5 -33t126.5 -33q17 0 48.5 14.5t51.5 14.5q40 0 67 -35l58 -80q18 -27 18 -45q0 -37 -35 -68q-43 -34 -103 -55.5t-105 -21.5q-44 0 -126.5 32.5t-127.5 32.5q-17 0 -50 -15.5t-53 -15.5 q-19 0 -37.5 10t-29.5 25l-60 78q-12 20 -12 49z" />
<glyph unicode="&#xd2;" horiz-adv-x="1138" d="M57 573q0 118 18.5 212t53.5 158.5t80.5 110t105 70.5t121 36t133.5 11t133.5 -11t121 -36t105 -70.5t80.5 -110t53.5 -158.5t18.5 -212q0 -583 -516 -583q-508 0 -508 583zM354 1505q0 35 29 68l80 92q18 23 59 23q39 0 70 -31l182 -207q12 -24 12 -45q0 -36 -34 -70 l-35 -37q-36 -32 -66 -32q-34 0 -73 24l-179 146q-15 12 -22.5 19t-15 21t-7.5 29zM356 573q0 -82 15.5 -142t37.5 -90.5t54 -48.5t55 -22t51 -4q213 0 213 307q0 86 -16 148.5t-37.5 94.5t-54 50.5t-55 22.5t-50.5 4t-50.5 -4t-55 -22.5t-54 -50.5t-37.5 -94.5t-16 -148.5z " />
<glyph unicode="&#xd3;" horiz-adv-x="1138" d="M57 573q0 118 18.5 212t53.5 158.5t80.5 110t105 70.5t121 36t133.5 11t133.5 -11t121 -36t105 -70.5t80.5 -110t53.5 -158.5t18.5 -212q0 -583 -508 -583q-516 0 -516 583zM352 1405q0 19 13 45l182 207q31 31 69 31q42 0 60 -23l80 -92q28 -32 28 -68q0 -15 -7.5 -29 t-15 -21t-22.5 -19l-178 -146q-39 -24 -74 -24q-29 0 -65 32l-35 37q-35 35 -35 70zM356 573q0 -307 213 -307q28 0 51 4t55 22t54 48.5t37.5 90.5t15.5 142q0 86 -16 148.5t-37.5 94.5t-54 50.5t-55 22.5t-50.5 4t-50.5 -4t-55 -22.5t-54 -50.5t-37.5 -94.5t-16 -148.5z " />
<glyph unicode="&#xd4;" horiz-adv-x="1138" d="M57 573q0 118 18.5 212t53.5 158.5t80.5 110t105 70.5t121 36t133.5 11t133.5 -11t121 -36t105 -70.5t80.5 -110t53.5 -158.5t18.5 -212q0 -583 -508 -583q-516 0 -516 583zM252 1356l143 243q39 68 86 68h176q47 0 86 -68l144 -243q0 -38 -24.5 -64t-59.5 -26h-92 q-33 0 -55 18.5t-44 52.5l-43 66l-43 -66q-15 -23 -24.5 -35t-29 -24t-42.5 -12h-94q-35 0 -59.5 26t-24.5 64zM356 573q0 -307 213 -307q28 0 51 4t55 22t54 48.5t37.5 90.5t15.5 142q0 86 -16 148.5t-37.5 94.5t-54 50.5t-55 22.5t-50.5 4t-50.5 -4t-55 -22.5t-54 -50.5 t-37.5 -94.5t-16 -148.5z" />
<glyph unicode="&#xd5;" horiz-adv-x="1138" d="M57 573q0 118 18.5 212t53.5 158.5t80.5 110t105 70.5t121 36t133.5 11t133.5 -11t121 -36t105 -70.5t80.5 -110t53.5 -158.5t18.5 -212q0 -583 -508 -583q-516 0 -516 583zM205 1462q0 38 33 68q45 33 105 55.5t103 22.5q44 0 127.5 -33t126.5 -33q17 0 49 14.5t52 14.5 q40 0 67 -35l58 -80q18 -27 18 -45q0 -37 -35 -68q-43 -34 -103.5 -55.5t-105.5 -21.5q-44 0 -126.5 32.5t-127.5 32.5q-17 0 -49.5 -15.5t-52.5 -15.5q-19 0 -38 10t-30 25l-59 78q-12 20 -12 49zM356 573q0 -307 213 -307q28 0 51 4t55 22t54 48.5t37.5 90.5t15.5 142 q0 86 -16 148.5t-37.5 94.5t-54 50.5t-55 22.5t-50.5 4t-50.5 -4t-55 -22.5t-54 -50.5t-37.5 -94.5t-16 -148.5z" />
<glyph unicode="&#xd6;" horiz-adv-x="1138" d="M57 573q0 118 18.5 212t53.5 158.5t80.5 110t105 70.5t121 36t133.5 11t133.5 -11t121 -36t105 -70.5t80.5 -110t53.5 -158.5t18.5 -212q0 -583 -508 -583q-516 0 -516 583zM217 1427q0 69 46 115.5t114 46.5t115 -46.5t47 -115.5q0 -67 -47 -114t-115 -47 q-67 0 -113.5 46.5t-46.5 114.5zM356 573q0 -307 213 -307q28 0 51 4t55 22t54 48.5t37.5 90.5t15.5 142q0 86 -16 148.5t-37.5 94.5t-54 50.5t-55 22.5t-50.5 4t-50.5 -4t-55 -22.5t-54 -50.5t-37.5 -94.5t-16 -148.5zM596 1427q0 69 46 115.5t114 46.5t115 -46.5 t47 -115.5q0 -67 -47 -114t-115 -47q-67 0 -113.5 46.5t-46.5 114.5z" />
<glyph unicode="&#xd7;" horiz-adv-x="872" d="M78 139l184 285q-45 69 -83 125t-56 83t-37 58q0 39 22.5 64.5t57.5 25.5h131q35 0 62 -13t40 -27.5t37 -45.5q24 31 37 45.5t40 27.5t62 13h132q35 0 57 -25.5t22 -64.5q-19 -31 -37 -58t-56 -83t-83 -125l185 -285q0 -38 -22.5 -63t-57.5 -25h-131q-85 0 -123 64 l-25 39l-24 -39q-38 -64 -123 -64h-131q-35 0 -57.5 25t-22.5 63z" />
<glyph unicode="&#xd8;" horiz-adv-x="1138" d="M57 573q0 118 18.5 212t53.5 158.5t80.5 110t105 70.5t121 36t133.5 11q64 0 111 -8l47 148q17 47 66 47h32q23 0 38.5 -16t15.5 -39l-58 -179q260 -118 260 -551q0 -583 -516 -583q-53 0 -102 6l-53 -170q-17 -47 -68 -47h-31q-24 0 -38.5 15.5t-14.5 39.5l64 201 q-265 119 -265 538zM356 573q0 -167 60 -241l178 559q-10 2 -25 2q-28 0 -50.5 -4t-55 -22.5t-54 -50.5t-37.5 -94.5t-16 -148.5zM549 266h20q213 0 213 307q0 165 -57 246z" />
<glyph unicode="&#xd9;" horiz-adv-x="1085" d="M78 522v557q0 36 24 60t60 24h133q35 0 58.5 -23.5t23.5 -60.5v-571q0 -65 11 -111.5t26.5 -71t40 -38.5t44 -17.5t44.5 -3.5t44.5 3.5t44 17.5t40 38.5t26.5 71t11 111.5v571q0 37 23.5 60.5t58.5 23.5h133q36 0 60 -24t24 -60v-557q0 -113 -14 -198.5t-43.5 -143.5 t-67.5 -96t-93.5 -58.5t-112.5 -28t-134 -7.5t-134 7.5t-112.5 28t-93.5 58.5t-67.5 96t-43.5 143.5t-14 198.5zM328 1505q0 36 28 68l80 92q18 23 60 23q38 0 69 -31l183 -207q12 -24 12 -45q0 -35 -35 -70l-35 -37q-36 -32 -65 -32q-35 0 -74 24l-178 146q-15 12 -22.5 19 t-15 21t-7.5 29z" />
<glyph unicode="&#xda;" horiz-adv-x="1085" d="M78 522v557q0 36 24 60t60 24h133q35 0 58.5 -23.5t23.5 -60.5v-571q0 -65 11 -111.5t26.5 -71t40 -38.5t44 -17.5t44.5 -3.5t44.5 3.5t44 17.5t40 38.5t26.5 71t11 111.5v571q0 37 23.5 60.5t58.5 23.5h133q36 0 60 -24t24 -60v-557q0 -113 -14 -198.5t-43.5 -143.5 t-67.5 -96t-93.5 -58.5t-112.5 -28t-134 -7.5t-134 7.5t-112.5 28t-93.5 58.5t-67.5 96t-43.5 143.5t-14 198.5zM326 1405q0 21 12 45l182 207q31 31 70 31q41 0 59 -23l80 -92q29 -33 29 -68q0 -15 -7.5 -29t-15 -21t-22.5 -19l-178 -146q-39 -24 -74 -24q-30 0 -66 32 l-35 37q-34 34 -34 70z" />
<glyph unicode="&#xdb;" horiz-adv-x="1085" d="M78 522v557q0 36 24 60t60 24h133q35 0 58.5 -23.5t23.5 -60.5v-571q0 -65 11 -111.5t26.5 -71t40 -38.5t44 -17.5t44.5 -3.5t44.5 3.5t44 17.5t40 38.5t26.5 71t11 111.5v571q0 37 23.5 60.5t58.5 23.5h133q36 0 60 -24t24 -60v-557q0 -113 -14 -198.5t-43.5 -143.5 t-67.5 -96t-93.5 -58.5t-112.5 -28t-134 -7.5t-134 7.5t-112.5 28t-93.5 58.5t-67.5 96t-43.5 143.5t-14 198.5zM225 1356l144 243q39 68 86 68h176q47 0 86 -68l143 -243q0 -38 -24.5 -64t-59.5 -26h-92q-33 0 -54.5 18.5t-43.5 52.5l-43 66l-43 -66q-15 -23 -25 -35.5 t-29.5 -24t-42.5 -11.5h-94q-35 0 -59.5 26t-24.5 64z" />
<glyph unicode="&#xdc;" horiz-adv-x="1085" d="M78 522v557q0 36 24 60t60 24h133q35 0 58.5 -23.5t23.5 -60.5v-571q0 -65 11 -111.5t26.5 -71t40 -38.5t44 -17.5t44.5 -3.5t44.5 3.5t44 17.5t40 38.5t26.5 71t11 111.5v571q0 37 23.5 60.5t58.5 23.5h133q36 0 60 -24t24 -60v-557q0 -113 -14 -198.5t-43.5 -143.5 t-67.5 -96t-93.5 -58.5t-112.5 -28t-134 -7.5t-134 7.5t-112.5 28t-93.5 58.5t-67.5 96t-43.5 143.5t-14 198.5zM193 1427q0 69 45.5 115.5t113.5 46.5t115 -46.5t47 -115.5q0 -67 -47 -114t-115 -47q-67 0 -113 46.5t-46 114.5zM571 1427q0 69 46 115.5t114 46.5t115 -46.5 t47 -115.5q0 -67 -47 -114t-115 -47q-67 0 -113.5 46.5t-46.5 114.5z" />
<glyph unicode="&#xdd;" horiz-adv-x="1007" d="M6 1073q0 39 24 64.5t60 25.5h152q54 0 86 -69l172 -369l180 369q32 69 86 69h152q36 0 59.5 -25.5t23.5 -64.5l-352 -731v-258q0 -37 -22.5 -60.5t-59.5 -23.5h-133q-36 0 -60 24t-24 60v258zM283 1405q0 21 12 45l182 207q31 31 70 31q41 0 59 -23l80 -92 q29 -33 29 -68q0 -15 -7.5 -29t-15 -21t-22.5 -19l-178 -146q-39 -24 -74 -24q-30 0 -66 32l-35 37q-34 34 -34 70z" />
<glyph unicode="&#xde;" horiz-adv-x="935" d="M78 84v995q0 37 22.5 60.5t57.5 23.5h135q36 0 60 -24t24 -60v-86h110q216 0 324.5 -98t108.5 -305t-108.5 -303.5t-324.5 -96.5h-110v-106q0 -37 -23.5 -60.5t-60.5 -23.5h-131q-37 0 -60.5 23.5t-23.5 60.5zM377 467h135q50 0 79.5 33.5t29.5 91.5q0 57 -29.5 90 t-79.5 33h-135v-248z" />
<glyph unicode="&#xdf;" horiz-adv-x="1034" d="M78 80v651q0 206 99 319t300 113h86q198 0 306 -105t108 -270q0 -61 -20 -121.5t-54 -101.5q38 -39 61 -96.5t23 -116.5q0 -176 -91.5 -269t-291.5 -93q-24 0 -48 3.5t-53 13.5t-47 33t-18 56q0 29 8 113q1 37 20.5 57.5t51.5 20.5q16 0 41.5 -10.5t44.5 -10.5 q47 0 65.5 26t18.5 58q0 28 -20 52.5t-72 25.5h-33q-35 0 -57.5 23.5t-22.5 58.5v113q0 35 22.5 57t57.5 22h15q40 0 64.5 21.5t30 42.5t5.5 41q0 26 -29.5 53t-81.5 27h-82q-53 0 -80.5 -35.5t-27.5 -75.5v-696q0 -35 -23.5 -57.5t-58.5 -22.5h-135q-35 0 -58.5 22.5 t-23.5 57.5z" />
<glyph unicode="&#xe0;" d="M27 393q0 200 114.5 324.5t313.5 124.5q121 0 264 -49q53 -23 53 -82v-631q0 -35 -22.5 -57.5t-57.5 -22.5h-96q-60 0 -80 39l-8 16q-83 -65 -176 -65q-83 0 -144.5 33t-95.5 91t-49.5 127t-15.5 152zM238 1155q0 36 28 68l80 92q17 22 60 22q39 0 69 -30l182 -207 q13 -26 13 -45q0 -35 -35 -70l-35 -37q-37 -33 -65 -33q-33 0 -74 25l-178 145q-45 35 -45 70zM328 393q0 -74 24.5 -100.5t63.5 -26.5q12 0 26 6t22 12l9 7v270q-145 -16 -145 -168z" />
<glyph unicode="&#xe1;" d="M27 393q0 200 114.5 324.5t313.5 124.5q121 0 264 -49q53 -23 53 -82v-631q0 -35 -22.5 -57.5t-57.5 -22.5h-96q-60 0 -80 39l-8 16q-83 -65 -176 -65q-83 0 -144.5 33t-95.5 91t-49.5 127t-15.5 152zM238 1055q0 21 12 45l182 207q30 30 70 30q42 0 59 -22l80 -92 q29 -33 29 -68t-45 -70l-179 -145q-41 -25 -73 -25q-29 0 -66 33l-35 37q-34 34 -34 70zM328 393q0 -74 24.5 -100.5t63.5 -26.5q12 0 26 6t22 12l9 7v270q-145 -16 -145 -168z" />
<glyph unicode="&#xe2;" d="M27 393q0 200 114.5 324.5t313.5 124.5q121 0 264 -49q53 -23 53 -82v-631q0 -35 -22.5 -57.5t-57.5 -22.5h-96q-60 0 -80 39l-8 16q-83 -65 -176 -65q-83 0 -144.5 33t-95.5 91t-49.5 127t-15.5 152zM84 1006l143 243q39 68 86 68h176q47 0 86 -68l144 -243 q0 -38 -24.5 -64.5t-59.5 -26.5h-92q-33 0 -55 19t-44 53l-43 66l-43 -66q-16 -24 -25 -35.5t-28.5 -24t-42.5 -12.5h-94q-35 0 -59.5 26.5t-24.5 64.5zM328 393q0 -74 24.5 -100.5t63.5 -26.5q12 0 26 6t22 12l9 7v270q-145 -16 -145 -168z" />
<glyph unicode="&#xe3;" d="M27 393q0 200 114.5 324.5t313.5 124.5q121 0 264 -49q53 -23 53 -82v-631q0 -35 -22.5 -57.5t-57.5 -22.5h-96q-60 0 -80 39l-8 16q-83 -65 -176 -65q-83 0 -144.5 33t-95.5 91t-49.5 127t-15.5 152zM27 1112q0 39 32 68q45 33 105.5 55t103.5 22q44 0 122.5 -32.5 t121.5 -32.5q17 0 48.5 14.5t51.5 14.5q41 0 68 -35l57 -80q19 -28 19 -45q0 -37 -35 -68q-43 -34 -103.5 -56t-105.5 -22q-44 0 -121.5 33t-122.5 33q-17 0 -49.5 -15.5t-52.5 -15.5q-19 0 -38 10t-30 25l-59 78q-12 20 -12 49zM328 393q0 -74 24.5 -100.5t63.5 -26.5 q12 0 26 6t22 12l9 7v270q-145 -16 -145 -168z" />
<glyph unicode="&#xe4;" d="M27 393q0 200 114.5 324.5t313.5 124.5q121 0 264 -49q53 -23 53 -82v-631q0 -35 -22.5 -57.5t-57.5 -22.5h-96q-60 0 -80 39l-8 16q-83 -65 -176 -65q-83 0 -144.5 33t-95.5 91t-49.5 127t-15.5 152zM45 1077q0 69 46 115.5t114 46.5t115 -46.5t47 -115.5 q0 -67 -47.5 -114.5t-114.5 -47.5t-113.5 47t-46.5 115zM328 393q0 -74 24.5 -100.5t63.5 -26.5q12 0 26 6t22 12l9 7v270q-145 -16 -145 -168zM424 1077q0 69 46 115.5t114 46.5t114.5 -46.5t46.5 -115.5q0 -68 -47 -115t-114 -47t-113.5 47t-46.5 115z" />
<glyph unicode="&#xe5;" d="M27 393q0 200 114.5 324.5t313.5 124.5q121 0 264 -49q53 -23 53 -82v-631q0 -35 -22.5 -57.5t-57.5 -22.5h-96q-60 0 -80 39l-8 16q-83 -65 -176 -65q-83 0 -144.5 33t-95.5 91t-49.5 127t-15.5 152zM193 1174q0 129 67 195.5t180 66.5t180.5 -66.5t67.5 -195.5 t-67 -194t-181 -65q-113 0 -180 65t-67 194zM328 393q0 -74 24.5 -100.5t63.5 -26.5q12 0 26 6t22 12l9 7v270q-145 -16 -145 -168zM393 1174q0 -32 15 -45t32 -13t32 13t15 45t-15 45.5t-32 13.5t-32 -13.5t-15 -45.5z" />
<glyph unicode="&#xe6;" horiz-adv-x="1269" d="M27 393q0 200 114.5 324.5t313.5 124.5q108 0 200 -51q67 51 213 51q163 0 257 -77t94 -200q0 -72 -31 -123t-86 -78t-117.5 -39t-138.5 -12q-49 0 -74 2v-30q38 -29 123 -29q129 0 192 43q9 6 23 6q17 0 33 -12t24 -29l39 -84q8 -24 8 -30q0 -44 -43 -78 q-63 -51 -133.5 -66.5t-158.5 -15.5q-182 0 -285 92q-28 -32 -70.5 -53t-86.5 -28t-65 -9t-40 -2q-83 0 -144.5 33t-95.5 91t-49.5 127t-15.5 152zM328 393q0 -74 24.5 -100.5t63.5 -26.5q12 0 26 6t22 12l9 7v270q-145 -16 -145 -168zM772 535q11 -14 37 -23.5t53 -9.5 q58 0 58 43q0 35 -68 35q-26 0 -43.5 -10t-36.5 -35z" />
<glyph unicode="&#xe7;" horiz-adv-x="829" d="M47 418q0 202 107.5 313t310.5 111q167 0 278 -84q45 -33 45 -78q0 -13 -47 -111q-14 -47 -71 -47q-8 0 -45 15q-57 26 -144 26q-57 0 -96 -36t-39 -109q0 -75 39.5 -113.5t95.5 -38.5q103 0 148 31q17 10 41 10q21 0 41.5 -13.5t29.5 -33.5q3 -7 22 -47t25 -59 q0 -52 -45 -82q-68 -49 -147 -68q4 -46 4 -76q0 -125 -62 -180t-182 -55q-72 0 -138 25t-66 59v78q0 48 15.5 65t55.5 17l23 -5q24 -6 37 -6q27 0 38 5.5t11 23.5q0 29 -13 51q-134 36 -203 142t-69 270z" />
<glyph unicode="&#xe8;" horiz-adv-x="843" d="M47 424q0 197 96.5 307.5t298.5 110.5q163 0 257 -77t94 -200q0 -72 -31 -123t-86 -78t-117.5 -39t-138.5 -12q-52 0 -105 6q23 -39 62 -51t92 -12q130 0 193 43q9 6 22 6q17 0 33 -12t24 -29l39 -84q8 -24 8 -30q0 -44 -43 -78q-63 -51 -133.5 -66.5t-158.5 -15.5 q-203 0 -304.5 113.5t-101.5 320.5zM236 1155q0 36 28 68l80 92q17 22 59 22q40 0 70 -30l182 -207q13 -26 13 -45q0 -35 -35 -70l-35 -37q-37 -33 -66 -33q-32 0 -73 25l-178 145q-45 35 -45 70zM344 537q9 -15 35.5 -25t56.5 -10q58 0 58 43q0 35 -68 35q-42 0 -82 -43z " />
<glyph unicode="&#xe9;" horiz-adv-x="843" d="M47 424q0 197 96.5 307.5t298.5 110.5q163 0 257 -77t94 -200q0 -72 -31 -123t-86 -78t-117.5 -39t-138.5 -12q-52 0 -105 6q23 -39 62 -51t92 -12q130 0 193 43q9 6 22 6q17 0 33 -12t24 -29l39 -84q8 -24 8 -30q0 -44 -43 -78q-63 -51 -133.5 -66.5t-158.5 -15.5 q-203 0 -304.5 113.5t-101.5 320.5zM236 1055q0 21 12 45l182 207q30 30 70 30q42 0 59 -22l80 -92q29 -33 29 -68t-45 -70l-179 -145q-41 -25 -73 -25q-29 0 -66 33l-35 37q-34 34 -34 70zM344 537q9 -15 35.5 -25t56.5 -10q58 0 58 43q0 35 -68 35q-42 0 -82 -43z" />
<glyph unicode="&#xea;" horiz-adv-x="843" d="M47 424q0 197 96.5 307.5t298.5 110.5q163 0 257 -77t94 -200q0 -72 -31 -123t-86 -78t-117.5 -39t-138.5 -12q-52 0 -105 6q23 -39 62 -51t92 -12q130 0 193 43q9 6 22 6q17 0 33 -12t24 -29l39 -84q8 -24 8 -30q0 -44 -43 -78q-63 -51 -133.5 -66.5t-158.5 -15.5 q-203 0 -304.5 113.5t-101.5 320.5zM121 1006l143 243q39 68 86 68h176q47 0 86 -68l144 -243q0 -38 -24.5 -64.5t-59.5 -26.5h-92q-33 0 -55 19t-44 53l-43 66l-43 -66q-16 -24 -25 -35.5t-28.5 -24t-42.5 -12.5h-94q-35 0 -59.5 26.5t-24.5 64.5zM344 537q9 -15 35.5 -25 t56.5 -10q58 0 58 43q0 35 -68 35q-42 0 -82 -43z" />
<glyph unicode="&#xeb;" horiz-adv-x="843" d="M47 424q0 197 96.5 307.5t298.5 110.5q163 0 257 -77t94 -200q0 -72 -31 -123t-86 -78t-117.5 -39t-138.5 -12q-52 0 -105 6q23 -39 62 -51t92 -12q130 0 193 43q9 6 22 6q17 0 33 -12t24 -29l39 -84q8 -24 8 -30q0 -44 -43 -78q-63 -51 -133.5 -66.5t-158.5 -15.5 q-203 0 -304.5 113.5t-101.5 320.5zM68 1077q0 69 45.5 115.5t113.5 46.5t115 -46.5t47 -115.5q0 -67 -47.5 -114.5t-114.5 -47.5t-113 47t-46 115zM344 537q9 -15 35.5 -25t56.5 -10q58 0 58 43q0 35 -68 35q-42 0 -82 -43zM446 1077q0 69 46 115.5t114 46.5t115 -46.5 t47 -115.5q0 -67 -47 -114.5t-115 -47.5q-67 0 -113.5 47t-46.5 115z" />
<glyph unicode="&#xec;" horiz-adv-x="458" d="M12 1155q0 35 29 68l80 92q17 22 59 22q40 0 70 -30l182 -207q12 -24 12 -45q0 -36 -34 -70l-35 -37q-37 -33 -66 -33q-32 0 -73 25l-179 145q-45 35 -45 70zM80 82v666q0 35 22.5 58t57.5 23h137q35 0 58.5 -23t23.5 -58v-666q0 -35 -23.5 -58.5t-58.5 -23.5h-137 q-35 0 -57.5 23.5t-22.5 58.5z" />
<glyph unicode="&#xed;" horiz-adv-x="458" d="M14 1055q0 19 13 45l182 207q30 30 70 30q42 0 59 -22l80 -92q28 -32 28 -68q0 -35 -45 -70l-178 -145q-41 -25 -73 -25q-29 0 -66 33l-35 37q-35 35 -35 70zM80 82v666q0 35 23.5 58t58.5 23h137q35 0 57.5 -23t22.5 -58v-666q0 -35 -22.5 -58.5t-57.5 -23.5h-137 q-35 0 -58.5 23.5t-23.5 58.5z" />
<glyph unicode="&#xee;" horiz-adv-x="458" d="M-88 1006l143 243q39 68 86 68h176q47 0 86 -68l144 -243q0 -38 -24.5 -64.5t-59.5 -26.5h-92q-33 0 -55 19t-44 53l-43 66l-43 -66q-16 -24 -25 -35.5t-28.5 -24t-42.5 -12.5h-94q-35 0 -59.5 26.5t-24.5 64.5zM80 82v666q0 35 22.5 58t57.5 23h137q35 0 58.5 -23 t23.5 -58v-666q0 -35 -23.5 -58.5t-58.5 -23.5h-137q-35 0 -57.5 23.5t-22.5 58.5z" />
<glyph unicode="&#xef;" horiz-adv-x="458" d="M-121 1077q0 69 46 115.5t114 46.5t115 -46.5t47 -115.5q0 -67 -47.5 -114.5t-114.5 -47.5t-113.5 47t-46.5 115zM80 82v666q0 35 22.5 58t57.5 23h137q35 0 58.5 -23t23.5 -58v-666q0 -35 -23.5 -58.5t-58.5 -23.5h-137q-35 0 -57.5 23.5t-22.5 58.5zM258 1077 q0 69 46 115.5t114 46.5t115 -46.5t47 -115.5q0 -67 -47 -114.5t-115 -47.5q-67 0 -113.5 47t-46.5 115z" />
<glyph unicode="&#xf0;" horiz-adv-x="927" d="M47 379q0 105 24.5 174t77 108t123.5 54.5t177 15.5q70 0 133 -24v47q0 48 -31 82l-12 -23q-37 -53 -103 -53h-76q-31 0 -50 22t-19 56l26 49q-39 -6 -75 -25q-17 -10 -43 -10q-47 0 -64 49l-39 96q-4 12 -4 25q0 24 9.5 36.5t31.5 26.5q119 86 291 86q21 0 57 -4l15 25 q37 53 102 53h76q31 0 50 -22t19 -56l-41 -69q179 -117 179 -367v-338q0 -195 -103.5 -299t-312.5 -104q-418 0 -418 389zM346 362q0 -39 28 -67.5t89 -28.5t90 30t29 66q0 38 -26.5 67.5t-92.5 29.5q-67 0 -92 -29t-25 -68z" />
<glyph unicode="&#xf1;" horiz-adv-x="870" d="M78 80v635q0 63 65 88q101 39 287 39q204 0 293.5 -96t89.5 -304v-362q0 -35 -22.5 -57.5t-59.5 -22.5h-137q-35 0 -57.5 22.5t-22.5 57.5v360q0 80 -12.5 101.5t-65.5 21.5q-39 0 -59 -4v-479q0 -35 -23.5 -57.5t-58.5 -22.5h-137q-35 0 -57.5 22.5t-22.5 57.5zM80 1112 q0 38 33 68q45 33 105.5 55t103.5 22q44 0 122 -32.5t121 -32.5q17 0 49 14.5t52 14.5q40 0 67 -35l58 -80q18 -27 18 -45q0 -37 -35 -68q-43 -34 -103.5 -56t-105.5 -22q-44 0 -121 33t-122 33q-17 0 -50 -15.5t-53 -15.5q-19 0 -37.5 10t-29.5 25l-60 78q-12 20 -12 49z " />
<glyph unicode="&#xf2;" horiz-adv-x="905" d="M47 424q0 196 101.5 307t304.5 111t304 -111t101 -307q0 -208 -100.5 -321t-304.5 -113t-305 113t-101 321zM238 1155q0 36 28 68l80 92q17 22 60 22q39 0 69 -30l182 -207q13 -26 13 -45q0 -35 -35 -70l-35 -37q-37 -33 -65 -33q-33 0 -74 25l-178 145q-45 35 -45 70z M346 422q0 -156 107 -156q106 0 106 156q0 34 -8 63.5t-33 53.5t-65 24t-65.5 -24t-33.5 -53.5t-8 -63.5z" />
<glyph unicode="&#xf3;" horiz-adv-x="905" d="M47 424q0 196 101.5 307t304.5 111t304 -111t101 -307q0 -208 -100.5 -321t-304.5 -113t-305 113t-101 321zM236 1055q0 21 12 45l182 207q30 30 70 30q42 0 59 -22l80 -92q29 -33 29 -68t-45 -70l-179 -145q-41 -25 -73 -25q-29 0 -66 33l-35 37q-34 34 -34 70zM346 422 q0 -156 107 -156q106 0 106 156q0 34 -8 63.5t-33 53.5t-65 24t-65.5 -24t-33.5 -53.5t-8 -63.5z" />
<glyph unicode="&#xf4;" horiz-adv-x="905" d="M47 424q0 196 101.5 307t304.5 111t304 -111t101 -307q0 -208 -100.5 -321t-304.5 -113t-305 113t-101 321zM137 1006l144 243q39 68 86 68h176q47 0 86 -68l143 -243q0 -38 -24.5 -64.5t-59.5 -26.5h-92q-23 0 -42.5 12t-30 24.5t-25.5 35.5l-43 66l-43 -66 q-15 -23 -25 -35.5t-29.5 -24.5t-42.5 -12h-94q-35 0 -59.5 26.5t-24.5 64.5zM346 422q0 -156 107 -156q106 0 106 156q0 34 -8 63.5t-33 53.5t-65 24t-65.5 -24t-33.5 -53.5t-8 -63.5z" />
<glyph unicode="&#xf5;" horiz-adv-x="905" d="M47 424q0 196 101.5 307t304.5 111t304 -111t101 -307q0 -208 -100.5 -321t-304.5 -113t-305 113t-101 321zM86 1112q0 38 33 68q45 33 105.5 55t103.5 22q44 0 122 -32.5t121 -32.5q17 0 49 14.5t52 14.5q40 0 67 -35l58 -80q18 -27 18 -45q0 -37 -35 -68 q-43 -34 -103.5 -56t-105.5 -22q-44 0 -121 33t-122 33q-17 0 -50 -15.5t-53 -15.5q-19 0 -37.5 10t-29.5 25l-60 78q-12 20 -12 49zM346 422q0 -156 107 -156q106 0 106 156q0 34 -8 63.5t-33 53.5t-65 24t-65.5 -24t-33.5 -53.5t-8 -63.5z" />
<glyph unicode="&#xf6;" horiz-adv-x="905" d="M47 424q0 196 101.5 307t304.5 111t304 -111t101 -307q0 -208 -100.5 -321t-304.5 -113t-305 113t-101 321zM104 1077q0 69 46 115.5t114 46.5t115 -46.5t47 -115.5q0 -67 -47 -114.5t-115 -47.5q-67 0 -113.5 47t-46.5 115zM346 422q0 -156 107 -156q106 0 106 156 q0 34 -8 63.5t-33 53.5t-65 24t-65.5 -24t-33.5 -53.5t-8 -63.5zM483 1077q0 69 46 115.5t114 46.5t115 -46.5t47 -115.5q0 -67 -47.5 -114.5t-114.5 -47.5t-113.5 47t-46.5 115z" />
<glyph unicode="&#xf7;" horiz-adv-x="819" d="M78 412v112q0 35 24.5 58.5t59.5 23.5h495q38 0 61 -23t23 -59v-112q0 -36 -23 -60t-61 -24h-495q-35 0 -59.5 24.5t-24.5 59.5zM252 141q0 64 43 108t106 44t107.5 -44t44.5 -108q0 -63 -44.5 -107t-107.5 -44t-106 44t-43 107zM252 793q0 63 43 107t106 44t107.5 -44 t44.5 -107q0 -64 -44.5 -108t-107.5 -44t-106 44t-43 108z" />
<glyph unicode="&#xf8;" horiz-adv-x="905" d="M47 424q0 196 101.5 307t304.5 111q23 0 63 -4l45 137q17 47 66 47h32q23 0 38.5 -16t15.5 -39l-54 -166q199 -97 199 -377q0 -208 -100.5 -321t-304.5 -113q-9 0 -27.5 1t-26.5 1l-41 -131q-9 -23 -23 -35t-44 -12h-31q-24 0 -38.5 15.5t-14.5 39.5l49 156 q-209 92 -209 399zM346 422q0 -50 10 -86l72 225q-31 -7 -50.5 -31t-25.5 -51t-6 -57zM489 272q70 23 70 150q0 25 -6 49z" />
<glyph unicode="&#xf9;" horiz-adv-x="892" d="M57 371v379q0 35 22.5 57t57.5 22h139q35 0 57.5 -22t22.5 -57v-379q0 -71 19.5 -88t79.5 -17q42 0 61 17v467q0 35 23 57t59 22h135q36 0 59 -22t23 -57v-600q0 -54 -65 -89q-134 -71 -289 -71q-208 0 -306 90.5t-98 290.5zM225 1155q0 35 29 68l80 92q17 22 59 22 q40 0 70 -30l182 -207q12 -24 12 -45q0 -36 -34 -70l-35 -37q-37 -33 -66 -33q-32 0 -73 25l-179 145q-45 35 -45 70z" />
<glyph unicode="&#xfa;" horiz-adv-x="892" d="M57 371v379q0 35 22.5 57t57.5 22h139q35 0 57.5 -22t22.5 -57v-379q0 -71 19.5 -88t79.5 -17q42 0 61 17v467q0 35 23 57t59 22h135q36 0 59 -22t23 -57v-600q0 -54 -65 -89q-134 -71 -289 -71q-208 0 -306 90.5t-98 290.5zM225 1055q0 19 13 45l182 207q30 30 69 30 q43 0 60 -22l80 -92q28 -32 28 -68q0 -35 -45 -70l-178 -145q-41 -25 -74 -25q-28 0 -65 33l-35 37q-35 35 -35 70z" />
<glyph unicode="&#xfb;" horiz-adv-x="892" d="M57 371v379q0 35 22.5 57t57.5 22h139q35 0 57.5 -22t22.5 -57v-379q0 -71 19.5 -88t79.5 -17q42 0 61 17v467q0 35 23 57t59 22h135q36 0 59 -22t23 -57v-600q0 -54 -65 -89q-134 -71 -289 -71q-208 0 -306 90.5t-98 290.5zM119 1006l143 243q39 68 86 68h176 q47 0 86 -68l144 -243q0 -38 -24.5 -64.5t-59.5 -26.5h-92q-33 0 -55 19t-44 53l-43 66l-43 -66q-16 -24 -25 -35.5t-28.5 -24t-42.5 -12.5h-94q-35 0 -59.5 26.5t-24.5 64.5z" />
<glyph unicode="&#xfc;" horiz-adv-x="892" d="M57 371v379q0 35 22.5 57t57.5 22h139q35 0 57.5 -22t22.5 -57v-379q0 -71 19.5 -88t79.5 -17q42 0 61 17v467q0 35 23 57t59 22h135q36 0 59 -22t23 -57v-600q0 -54 -65 -89q-134 -71 -289 -71q-208 0 -306 90.5t-98 290.5zM84 1077q0 69 46 115.5t114 46.5t115 -46.5 t47 -115.5q0 -67 -47 -114.5t-115 -47.5q-67 0 -113.5 47t-46.5 115zM463 1077q0 69 46 115.5t114 46.5t114.5 -46.5t46.5 -115.5q0 -68 -47 -115t-114 -47t-113.5 47t-46.5 115z" />
<glyph unicode="&#xfd;" horiz-adv-x="870" d="M57 338v412q0 35 22.5 57t57.5 22h139q35 0 57.5 -22t22.5 -57v-404q0 -38 5.5 -61t18 -33t24.5 -13t32 -3q12 0 26.5 6.5t23.5 13.5l8 6v488q0 35 22.5 57t56.5 22h140q35 0 57.5 -22t22.5 -57v-762q0 -40 -1 -66.5t-9 -76.5t-22 -85t-44 -77.5t-71 -68.5t-106 -44.5 t-147 -18.5q-30 0 -62.5 6.5t-72.5 25.5t-71.5 48.5t-52.5 81t-21 117.5q0 54 18.5 107t50.5 90q-61 43 -93 125.5t-32 185.5zM248 1055q0 21 12 45l182 207q30 30 70 30q42 0 59 -22l80 -92q29 -33 29 -68t-45 -70l-178 -145q-41 -25 -74 -25q-29 0 -66 33l-34 37 q-35 35 -35 70zM399 -123q0 -53 41 -53q24 0 39 18.5t15 55.5v120q-95 -52 -95 -141z" />
<glyph unicode="&#xfe;" horiz-adv-x="884" d="M78 -319v1398q0 37 22.5 60.5t57.5 23.5h135q36 0 60 -24t24 -60v-239q18 2 53 2q205 0 311.5 -117t106.5 -324q0 -203 -105 -307t-313 -104h-53v-309q0 -35 -22.5 -58.5t-57.5 -23.5h-139q-35 0 -57.5 23.5t-22.5 58.5zM377 266h39q56 0 94.5 32t38.5 103 q0 162 -113 162q-39 0 -59 -4v-293z" />
<glyph unicode="&#xff;" horiz-adv-x="870" d="M57 338v412q0 35 22.5 57t57.5 22h139q35 0 57.5 -22t22.5 -57v-404q0 -38 5.5 -61t18 -33t24.5 -13t32 -3q12 0 26.5 6.5t23.5 13.5l8 6v488q0 35 22.5 57t56.5 22h140q35 0 57.5 -22t22.5 -57v-762q0 -40 -1 -66.5t-9 -76.5t-22 -85t-44 -77.5t-71 -68.5t-106 -44.5 t-147 -18.5q-30 0 -62.5 6.5t-72.5 25.5t-71.5 48.5t-52.5 81t-21 117.5q0 54 18.5 107t50.5 90q-61 43 -93 125.5t-32 185.5zM80 1077q0 69 46 115.5t114 46.5t114.5 -46.5t46.5 -115.5q0 -68 -47 -115t-114 -47t-113.5 47t-46.5 115zM399 -123q0 -53 41 -53q24 0 39 18.5 t15 55.5v120q-95 -52 -95 -141zM459 1077q0 69 45.5 115.5t113.5 46.5t115 -46.5t47 -115.5q0 -67 -47 -114.5t-115 -47.5q-67 0 -113 47t-46 115z" />
<glyph unicode="&#x152;" horiz-adv-x="1413" d="M47 573q0 102 15 186t41 145t65 108t83 76.5t98 48.5t108 26.5t116 7.5q55 0 99 -8h633q36 0 58.5 -23.5t22.5 -60.5v-112q0 -36 -22.5 -59t-58.5 -23h-412v-166h293q35 0 57.5 -24t22.5 -60v-111q0 -36 -22.5 -60t-57.5 -24h-293v-164h412q36 0 58.5 -22.5t22.5 -58.5 v-111q0 -37 -22.5 -60.5t-58.5 -23.5h-631q-55 -10 -101 -10q-85 0 -160 19t-143 62.5t-117 109.5t-77.5 166t-28.5 226zM346 573q0 -71 18.5 -127t45.5 -88.5t62 -54.5t65 -29.5t57 -7.5v627q-31 0 -57 -4t-64 -22.5t-63.5 -50.5t-44.5 -94.5t-19 -148.5z" />
<glyph unicode="&#x153;" horiz-adv-x="1355" d="M47 424q0 196 101.5 307t304.5 111q152 0 252 -68q96 68 249 68q163 0 257 -77t94 -200q0 -72 -31 -123t-86 -78t-117.5 -39t-138.5 -12q-52 0 -105 6q23 -39 62 -51t92 -12q130 0 193 43q9 6 22 6q17 0 33 -12t24 -29l39 -84q8 -24 8 -30q0 -44 -43 -78 q-63 -51 -133.5 -66.5t-158.5 -15.5q-159 0 -256 69q-97 -69 -256 -69q-204 0 -305 113t-101 321zM346 422q0 -156 107 -156q106 0 106 156q0 34 -8 63.5t-33 53.5t-65 24t-65.5 -24t-33.5 -53.5t-8 -63.5zM856 537q9 -15 35.5 -25t56.5 -10q58 0 58 43q0 35 -68 35 q-42 0 -82 -43z" />
<glyph unicode="&#x178;" horiz-adv-x="1007" d="M6 1073q0 39 24 64.5t60 25.5h152q54 0 86 -69l172 -369l180 369q32 69 86 69h152q36 0 59.5 -25.5t23.5 -64.5l-352 -731v-258q0 -37 -22.5 -60.5t-59.5 -23.5h-133q-36 0 -60 24t-24 60v258zM145 1427q0 69 46 115.5t114 46.5t115 -46.5t47 -115.5q0 -67 -47 -114 t-115 -47q-67 0 -113.5 46.5t-46.5 114.5zM524 1427q0 69 46 115.5t114 46.5t115 -46.5t47 -115.5q0 -67 -47 -114t-115 -47q-67 0 -113.5 46.5t-46.5 114.5z" />
<glyph unicode="&#x2c6;" horiz-adv-x="790" d="M78 852l143 244q38 67 86 67h176q48 0 86 -67l144 -244q0 -38 -24.5 -64t-59.5 -26h-92q-33 0 -55 19t-44 53l-43 65l-43 -65q-16 -24 -25 -35.5t-28.5 -24t-42.5 -12.5h-94q-35 0 -59.5 26t-24.5 64z" />
<glyph unicode="&#x2dc;" horiz-adv-x="894" d="M78 1026q0 38 33 68q45 33 105 55t103 22q44 0 127.5 -32.5t126.5 -32.5q17 0 49 14.5t52 14.5q40 0 67 -35l58 -80q18 -27 18 -45q0 -37 -35 -68q-43 -34 -103.5 -56t-105.5 -22q-44 0 -126.5 33t-127.5 33q-17 0 -49.5 -15.5t-52.5 -15.5q-19 0 -37.5 10t-29.5 25 l-60 78q-12 20 -12 49z" />
<glyph unicode="&#x2000;" horiz-adv-x="893" />
<glyph unicode="&#x2001;" horiz-adv-x="1786" />
<glyph unicode="&#x2002;" horiz-adv-x="893" />
<glyph unicode="&#x2003;" horiz-adv-x="1786" />
<glyph unicode="&#x2004;" horiz-adv-x="595" />
<glyph unicode="&#x2005;" horiz-adv-x="446" />
<glyph unicode="&#x2006;" horiz-adv-x="297" />
<glyph unicode="&#x2007;" horiz-adv-x="297" />
<glyph unicode="&#x2008;" horiz-adv-x="223" />
<glyph unicode="&#x2009;" horiz-adv-x="357" />
<glyph unicode="&#x200a;" horiz-adv-x="99" />
<glyph unicode="&#x2010;" horiz-adv-x="819" d="M78 367v112q0 35 24.5 58.5t59.5 23.5h495q38 0 61 -23t23 -59v-112q0 -36 -23 -60t-61 -24h-495q-35 0 -59.5 24.5t-24.5 59.5z" />
<glyph unicode="&#x2011;" horiz-adv-x="819" d="M78 367v112q0 35 24.5 58.5t59.5 23.5h495q38 0 61 -23t23 -59v-112q0 -36 -23 -60t-61 -24h-495q-35 0 -59.5 24.5t-24.5 59.5z" />
<glyph unicode="&#x2012;" horiz-adv-x="819" d="M78 367v112q0 35 24.5 58.5t59.5 23.5h495q38 0 61 -23t23 -59v-112q0 -36 -23 -60t-61 -24h-495q-35 0 -59.5 24.5t-24.5 59.5z" />
<glyph unicode="&#x2013;" horiz-adv-x="819" d="M78 367v112q0 35 24.5 58.5t59.5 23.5h495q38 0 61 -23t23 -59v-112q0 -36 -23 -60t-61 -24h-495q-35 0 -59.5 24.5t-24.5 59.5z" />
<glyph unicode="&#x2014;" horiz-adv-x="987" d="M78 367v112q0 35 24.5 58.5t59.5 23.5h663q38 0 61 -23t23 -59v-112q0 -36 -23 -60t-61 -24h-663q-35 0 -59.5 24.5t-24.5 59.5z" />
<glyph unicode="&#x2018;" horiz-adv-x="559" d="M78 795q10 49 24.5 100t42.5 120t71.5 112.5t94.5 43.5h88q35 0 58.5 -24.5t23.5 -61.5l-4 -12q-47 -72 -65.5 -131t-18.5 -141q0 -44 -16 -70t-66 -26h-149q-35 0 -59.5 26t-24.5 64z" />
<glyph unicode="&#x2019;" horiz-adv-x="559" d="M78 788l4 15q47 72 65.5 130.5t18.5 141.5q0 45 15.5 70.5t64.5 25.5h153q35 0 58.5 -26t23.5 -66q-8 -47 -23 -98t-42.5 -119.5t-72 -112.5t-97.5 -44h-84q-35 0 -59.5 24t-24.5 59z" />
<glyph unicode="&#x201a;" horiz-adv-x="561" d="M78 -215l4 12q47 73 66.5 132.5t19.5 140.5q0 44 16 70t66 26h149q35 0 59.5 -26t24.5 -64q-7 -37 -17 -75.5t-30.5 -96t-45 -100t-61.5 -74t-79 -31.5h-88q-35 0 -59.5 24.5t-24.5 61.5z" />
<glyph unicode="&#x201c;" horiz-adv-x="952" d="M78 795q6 35 16 75t30 96.5t44.5 99.5t62.5 74t80 31h84q37 0 60.5 -24.5t23.5 -61.5l-4 -12q-47 -72 -65.5 -131t-18.5 -141q0 -21 -2.5 -35.5t-9.5 -29.5t-24.5 -23t-43.5 -8h-151q-36 0 -59 25.5t-23 64.5zM469 795q10 49 24.5 100t42.5 120t71.5 112.5t94.5 43.5h89 q35 0 59 -24.5t24 -61.5l-4 -12q-47 -73 -66.5 -132t-19.5 -140q0 -44 -16 -70t-66 -26h-149q-35 0 -59.5 26t-24.5 64z" />
<glyph unicode="&#x201d;" horiz-adv-x="952" d="M78 791l4 12q47 73 66.5 132t19.5 140q0 44 16 70t66 26h149q35 0 59.5 -26t24.5 -64q-10 -49 -24.5 -100t-42.5 -120t-71.5 -112.5t-94.5 -43.5h-88q-35 0 -59.5 24.5t-24.5 61.5zM473 791l4 12q47 72 65.5 131t18.5 141q0 21 2.5 35.5t9.5 29.5t24.5 23t43.5 8h152 q36 0 58.5 -25.5t22.5 -64.5q-6 -35 -16 -75t-30 -96.5t-44.5 -99.5t-62.5 -74t-80 -31h-84q-37 0 -60.5 24.5t-23.5 61.5z" />
<glyph unicode="&#x201e;" horiz-adv-x="952" d="M78 -215l4 12q47 73 66.5 132.5t19.5 140.5q0 44 16 70t66 26h149q35 0 59.5 -26t24.5 -64q-7 -37 -17 -75.5t-30.5 -96t-45 -100t-61.5 -74t-79 -31.5h-88q-35 0 -59.5 24.5t-24.5 61.5zM473 -215l4 12q47 72 65.5 131.5t18.5 141.5q0 21 2.5 35.5t9.5 29.5t24.5 23 t43.5 8h152q36 0 58.5 -25.5t22.5 -64.5q-8 -47 -23 -99.5t-42.5 -121t-71.5 -112.5t-96 -44h-84q-37 0 -60.5 24.5t-23.5 61.5z" />
<glyph unicode="&#x2022;" horiz-adv-x="477" d="M78 385q0 69 46 115.5t114 46.5t114.5 -46.5t46.5 -115.5q0 -68 -47 -115t-114 -47t-113.5 47t-46.5 115z" />
<glyph unicode="&#x2026;" horiz-adv-x="1263" d="M78 152q0 69 46 115t114 46t114.5 -46t46.5 -115q0 -68 -47 -115t-114 -47t-113.5 47t-46.5 115zM471 152q0 69 46 115t114 46t115 -46t47 -115q0 -68 -47.5 -115t-114.5 -47t-113.5 47t-46.5 115zM864 152q0 69 46 115t114 46t115 -46t47 -115q0 -68 -47 -115t-115 -47 q-67 0 -113.5 47t-46.5 115z" />
<glyph unicode="&#x202f;" horiz-adv-x="357" />
<glyph unicode="&#x2039;" horiz-adv-x="798" d="M78 362v175q0 26 20 50.5t47 37.5q51 23 151.5 68.5t183.5 83t153 67.5q38 0 63 -23.5t25 -58.5v-146q0 -50 -68 -81l-196 -86l196 -91q68 -31 68 -82v-139q0 -37 -25 -60.5t-63 -23.5l-488 219q-67 37 -67 90z" />
<glyph unicode="&#x203a;" horiz-adv-x="798" d="M78 137v139q0 52 67 82l197 91l-197 86q-67 30 -67 81v146q0 35 25 58.5t63 23.5q94 -40 282.5 -126t204.5 -93q27 -13 47.5 -37.5t20.5 -50.5v-175q0 -27 -20 -51t-48 -39l-487 -219q-38 0 -63 23.5t-25 60.5z" />
<glyph unicode="&#x205f;" horiz-adv-x="446" />
<glyph unicode="&#x20ac;" horiz-adv-x="1146" d="M78 420v47q0 35 24.5 58.5t59.5 23.5h43v61h-43q-35 0 -59.5 24.5t-24.5 59.5v47q0 35 24.5 58.5t59.5 23.5h71q93 348 498 348q162 0 287 -84q22 -12 36.5 -33t14.5 -44q0 -11 -49 -107q-12 -24 -32.5 -37.5t-41.5 -13.5q-13 0 -43 12q-63 29 -153 29q-116 0 -177 -70 h84q38 0 61 -23t23 -59v-47q0 -36 -23 -60t-61 -24h-153v-61h153q38 0 61 -23t23 -59v-47q0 -36 -23 -60t-61 -24h-69q36 -36 80.5 -53t81.5 -17q76 0 163 41q20 10 33 10q23 0 44 -13t30 -36l43 -94q2 -8 2 -24q0 -43 -45 -70q-140 -90 -289 -90q-84 0 -158.5 19t-141 59 t-117 108t-78.5 160h-74q-35 0 -59.5 24.5t-24.5 59.5z" />
<glyph unicode="&#x2122;" horiz-adv-x="1425" d="M78 1012q0 -20 12 -33.5t33 -13.5h86v-412q0 -19 14 -33t33 -14h133q21 0 34 14t13 33v412h86q19 0 32 14t13 33v106q0 20 -13 32.5t-32 12.5h-399q-21 0 -33 -12t-12 -33v-106zM614 559l15 243q7 127 16 314q2 17 18 32t48 15h108q18 0 41 -12t31 -33l90 -225l90 225 q8 21 31 33t41 12h108q32 0 48 -15t18 -32q28 -571 31 -557q-1 -27 -19.5 -40t-34.5 -13h-123q-27 0 -38 17t-11 34l-12 215l-51 -106q-17 -33 -51 -33h-54q-34 0 -51 33l-51 106l-12 -215q0 -17 -11 -34t-38 -17h-123q-16 0 -34.5 13t-19.5 40z" />
<glyph unicode="&#x25fc;" horiz-adv-x="829" d="M0 0v829h829v-829h-829z" />
</font>
</defs>
</svg>
