<?xml version="1.0" encoding="utf-8"?>
<!-- Generator: Adobe Illustrator 19.0.0, SVG Export Plug-In . SVG Version: 6.00 Build 0)  -->
<svg version="1.1" xmlns="http://www.w3.org/2000/svg" xmlns:xlink="http://www.w3.org/1999/xlink" x="0px" y="0px"
	 viewBox="0 0 1920 510" style="enable-background:new 0 0 1920 510;" xml:space="preserve">
<g id="Layer_1">
	<rect x="-625.4" y="-218.5" style="fill:#9AD6D4;" width="542.2" height="454.3"/>
	<g>
		<path style="fill:#259B48;" d="M-97.8,144.5c0,20.1-10.4,36.4-23.3,36.4c-12.9,0-23.3-16.3-23.3-36.4c0-20.1,10.5-47.4,23.4-47.4
			C-108.1,97.1-97.8,124.4-97.8,144.5z"/>
		<polygon style="fill:#532E14;" points="-114.7,215.7 -127.3,215.7 -121,138.2 		"/>
	</g>
	<path style="fill:#257D3E;" d="M-572.2,144.7c0,17.6-9.1,31.9-20.4,31.9c-11.3,0-20.4-14.3-20.4-31.9c0-17.6,9.2-41.6,20.5-41.6
		C-581.2,103.1-572.2,127.1-572.2,144.7z"/>
	<polygon style="fill:#532E14;" points="-587,207.1 -598.1,207.1 -592.5,139.1 	"/>
	<g>
		<path style="fill:#259B48;" d="M-543.7,162.1c0,12.8-6.6,23.1-14.8,23.1c-8.2,0-14.8-10.3-14.8-23.1c0-12.8,6.7-30.1,14.8-30.1
			C-550.3,132-543.7,149.4-543.7,162.1z"/>
		<polygon style="fill:#532E14;" points="-554.5,207.3 -562.5,207.3 -558.5,158.1 		"/>
	</g>
	<rect x="-374" y="72.4" style="fill:#C0593D;" width="5.8" height="7.1"/>
	<g>
		<path style="fill:#257D3E;" d="M-128.7,163c0,12.7-6.6,22.9-14.7,22.9c-8.1,0-14.7-10.3-14.7-22.9c0-12.7,6.6-29.9,14.7-29.9
			S-128.7,150.3-128.7,163z"/>
		<polygon style="fill:#532E14;" points="-139.3,207.8 -147.3,207.8 -143.3,159 		"/>
	</g>
	<rect x="-625.5" y="215.5" style="fill:#3D8B42;" width="542.2" height="62.9"/>
	<rect x="-341" y="164.9" style="fill:#67847B;" width="18.8" height="1.5"/>
	<rect x="-341.6" y="186.8" style="fill:#FFFFFF;" width="19.9" height="1.7"/>
	<g>
		<rect x="-535.5" y="125.2" style="fill:#744878;" width="54.9" height="82.1"/>
		<rect x="-539.5" y="120" style="fill:#524757;" width="63.1" height="6.3"/>
		<path style="fill:#C4C4C3;" d="M-492,167c-0.1-3.6-3-6.4-6.6-6.4c-3.6,0-6.5,2.9-6.6,6.4l0,26h13.3L-492,167L-492,167z"/>
		<path style="fill:#C4C4C3;" d="M-512.7,167c-0.1-3.6-3-6.4-6.6-6.4c-3.6,0-6.5,2.9-6.6,6.4l0,26h13.3L-512.7,167L-512.7,167z"/>
		<rect x="-535.5" y="126.2" style="fill:#37303A;" width="54.9" height="2.9"/>
	</g>
	<rect x="-625.5" y="207.1" style="fill:#A5C4BC;" width="527.5" height="8.4"/>
	<rect x="-625.5" y="207.1" style="fill:#424242;" width="542.5" height="8.4"/>
	<path style="fill:#FFFFFF;" d="M-498.7,48.5c-1,0-2,0.1-3,0.3c-2.4-4.6-7.2-7.7-12.7-7.7c-7.9,0-14.3,6.4-14.3,14.3
		c0,0.2,0,0.4,0,0.6c-5.6,0.5-10,5.2-10,10.9c0,6,4.9,10.9,10.9,10.9v0.1h26.6v-0.1c0.2,0,0.5,0,0.7,0c0.5,0.1,1.1,0.1,1.6,0.1
		c8.1,0,14.7-6.6,14.7-14.7S-490.6,48.5-498.7,48.5z"/>
	<path style="fill:#FFFFFF;" d="M-291.9,20.2c-0.9,0-1.9,0.1-2.8,0.3c-2.2-4.3-6.6-7.2-11.8-7.2c-7.3,0-13.3,5.9-13.3,13.3
		c0,0.2,0,0.4,0,0.6c-5.2,0.4-9.3,4.8-9.3,10.1c0,5.6,4.5,10.2,10.2,10.2v0.1h24.7v-0.1c0.2,0,0.4,0,0.7,0c0.5,0.1,1,0.1,1.5,0.1
		c7.5,0,13.6-6.1,13.6-13.6S-284.4,20.2-291.9,20.2z"/>
	<path style="fill:#FFFFFF;" d="M-197,12.7c-1.3,0-2.6,0.1-3.8,0.4c-3-5.8-9.1-9.8-16.1-9.8c-10,0-18.1,8.1-18.1,18.1
		c0,0.3,0,0.5,0,0.8c-7.1,0.6-12.7,6.5-12.7,13.8c0,7.7,6.2,13.9,13.9,13.9v0.1h33.7v-0.1c0.3,0,0.6,0,0.9,0
		c0.7,0.1,1.4,0.1,2.1,0.1c10.3,0,18.6-8.3,18.6-18.6C-178.4,21-186.7,12.7-197,12.7z"/>
	<g>
		<rect x="-576.6" y="203.3" style="fill:#AD1F24;" width="4" height="38.8"/>
		<rect x="-511.4" y="203.3" style="fill:#AD1F24;" width="4" height="38.8"/>
		<rect x="-580.8" y="204.8" style="fill:#F4967D;" width="77.8" height="8.3"/>
		<rect x="-580.8" y="215.6" style="fill:#F4967D;" width="77.8" height="8.3"/>
		<rect x="-580.1" y="226.4" style="fill:#D86A50;" width="77.8" height="5.4"/>
		<rect x="-578.3" y="241.8" style="fill:#AD1F24;" width="7.5" height="1.3"/>
		<rect x="-513.2" y="241.8" style="fill:#AD1F24;" width="7.5" height="1.3"/>
		<circle style="fill:#FAC0B4;" cx="-574.6" cy="208.9" r="1.2"/>
		<circle style="fill:#FAC0B4;" cx="-574.6" cy="219.7" r="1.2"/>
		<circle style="fill:#FAC0B4;" cx="-509.4" cy="208.9" r="1.2"/>
		<circle style="fill:#FAC0B4;" cx="-509.4" cy="219.7" r="1.2"/>
		<rect x="-580.1" y="229" style="fill:#B34B3D;" width="77.8" height="2.7"/>
	</g>
	<path style="fill:#FFFFFF;" d="M-440,5.4c-0.7,0-1.5,0.1-2.2,0.2c-1.7-3.3-5.2-5.6-9.2-5.6c-5.7,0-10.3,4.6-10.3,10.3
		c0,0.2,0,0.3,0,0.5c-4,0.3-7.2,3.7-7.2,7.9c0,4.4,3.5,7.9,7.9,7.9v0h19.2v0c0.2,0,0.3,0,0.5,0c0.4,0,0.8,0.1,1.2,0.1
		c5.9,0,10.6-4.8,10.6-10.6C-429.4,10.1-434.1,5.4-440,5.4z"/>
	<g>
		<path style="fill:#259B48;" d="M1489.4,230.5c0,41.8-21.7,75.7-48.4,75.7s-48.4-33.9-48.4-75.7c0-41.8,21.9-98.6,48.6-98.6
			C1467.9,132,1489.4,188.7,1489.4,230.5z"/>
		<polygon style="fill:#532E14;" points="1454.2,378.4 1428,378.4 1441.1,217.3 		"/>
	</g>
	<path style="fill:#257D3E;" d="M503.2,230.9c0,36.6-19,66.4-42.4,66.4c-23.4,0-42.4-29.7-42.4-66.4c0-36.6,19.2-86.4,42.6-86.4
		C484.4,144.5,503.2,194.2,503.2,230.9z"/>
	<polygon style="fill:#532E14;" points="472.3,360.5 449.4,360.5 460.9,219.3 	"/>
	<g>
		<path style="fill:#259B48;" d="M562.3,267.1c0,26.5-13.8,48.1-30.7,48.1c-17,0-30.7-21.5-30.7-48.1c0-26.5,13.9-62.6,30.9-62.6
			S562.3,240.5,562.3,267.1z"/>
		<polygon style="fill:#532E14;" points="540,361 523.4,361 531.7,258.7 		"/>
	</g>
	<rect x="915.1" y="80.6" style="fill:#C0593D;" width="12.1" height="14.7"/>
	<g>
		<path style="fill:#257D3E;" d="M1425.1,268.9c0,26.3-13.6,47.7-30.5,47.7c-16.8,0-30.5-21.3-30.5-47.7c0-26.3,13.8-62.1,30.6-62.1
			C1411.6,206.8,1425.1,242.6,1425.1,268.9z"/>
		<polygon style="fill:#532E14;" points="1402.9,362 1386.5,362 1394.7,260.6 		"/>
	</g>
	<rect x="-1.8" y="378.1" style="fill:#3D8B42;" width="1921.8" height="130.8"/>
	<rect x="983.7" y="272.8" style="fill:#67847B;" width="39.1" height="3.1"/>
	<rect x="982.5" y="318.3" style="fill:#FFFFFF;" width="41.4" height="3.5"/>
	<g>
		<rect x="579.3" y="190.3" style="fill:#744878;" width="114.2" height="170.7"/>
		<rect x="571" y="179.4" style="fill:#524757;" width="131.1" height="13"/>
		<path style="fill:#C4C4C3;" d="M669.8,277.3c-0.2-7.4-6.3-13.4-13.8-13.4s-13.5,5.9-13.8,13.4l-0.1,54.1h27.7L669.8,277.3
			L669.8,277.3z"/>
		<path style="fill:#C4C4C3;" d="M626.9,277.3c-0.2-7.4-6.3-13.4-13.8-13.4c-7.5,0-13.5,5.9-13.8,13.4l-0.1,54.1h27.7L626.9,277.3
			L626.9,277.3z"/>
		<rect x="579.3" y="192.4" style="fill:#37303A;" width="114.2" height="5.9"/>
	</g>
	<rect x="392.3" y="360.5" style="fill:#A5C4BC;" width="1096.5" height="17.6"/>
	<rect x="-7.8" y="360.5" style="fill:#424242;" width="1927.8" height="17.6"/>
	<g>
		<rect x="494.1" y="352.7" style="fill:#AD1F24;" width="8.3" height="80.7"/>
		<rect x="629.5" y="352.7" style="fill:#AD1F24;" width="8.3" height="80.7"/>
		<rect x="485.3" y="355.7" style="fill:#F4967D;" width="161.7" height="17.2"/>
		<rect x="485.3" y="378.1" style="fill:#F4967D;" width="161.7" height="17.2"/>
		<rect x="486.7" y="400.6" style="fill:#D86A50;" width="161.7" height="11.1"/>
		<rect x="490.4" y="432.7" style="fill:#AD1F24;" width="15.6" height="2.8"/>
		<rect x="625.8" y="432.7" style="fill:#AD1F24;" width="15.6" height="2.8"/>
		<circle style="fill:#FAC0B4;" cx="498.2" cy="364.3" r="2.5"/>
		<circle style="fill:#FAC0B4;" cx="498.2" cy="386.8" r="2.5"/>
		<circle style="fill:#FAC0B4;" cx="633.6" cy="364.3" r="2.5"/>
		<circle style="fill:#FAC0B4;" cx="633.6" cy="386.8" r="2.5"/>
		<rect x="486.7" y="406.2" style="fill:#B34B3D;" width="161.7" height="5.6"/>
	</g>
</g>
<g id="Layer_8">
</g>
<g id="_x34_th_building">
	<g>
		<g>
			<rect x="-480.6" y="152.7" style="fill:#BB2161;" width="67.5" height="54.4"/>
			<rect x="-442.9" y="169.2" style="fill:#C4C4C3;" width="16.2" height="28.6"/>
			<polygon style="fill:#AE1F5A;" points="-446.8,153.1 -413.1,152.7 -446.8,104.7 -446.8,104.6 -446.8,104.6 -446.9,104.6 
				-446.9,104.7 -480.6,152.7 -446.9,153.1 -446.9,153.1 -446.8,153.1 -446.8,153.1 			"/>
			<rect x="-468.7" y="169.2" style="fill:#C4C4C3;" width="16.2" height="28.6"/>
		</g>
		<path style="fill:#C4C4C3;" d="M-446.8,139.6c-7,0-12.7,5.7-12.7,12.7h25.4C-434.1,145.3-439.8,139.6-446.8,139.6z"/>
	</g>
	<g>
		<g>
			<rect x="693.6" y="247.5" style="fill:#BB2161;" width="140.4" height="113"/>
			<rect x="772" y="281.7" style="fill:#C4C4C3;" width="33.7" height="59.5"/>
			<polygon style="fill:#AE1F5A;" points="763.8,248.3 833.9,247.5 763.8,147.6 763.8,147.5 763.7,147.5 763.7,147.5 763.7,147.6 
				693.6,247.5 763.7,248.3 763.7,248.3 763.7,248.3 763.8,248.3 			"/>
			<rect x="718.4" y="281.7" style="fill:#C4C4C3;" width="33.7" height="59.5"/>
		</g>
		<path style="fill:#C4C4C3;" d="M763.7,220.2c-14.6,0-26.4,11.8-26.4,26.4h52.9C790.2,232,778.3,220.2,763.7,220.2z"/>
	</g>
</g>
<g id="_x33_rd_building">
	<g>
		<g>
			<rect x="-394.5" y="70.8" style="fill:#C0593D;" width="5.9" height="7.1"/>
			<rect x="-414.8" y="70.8" style="fill:#C0593D;" width="5.9" height="7.1"/>
			<rect x="-414.8" y="77.9" style="fill:#E4A638;" width="46.6" height="129.2"/>
			<polygon style="fill:#EA4B36;" points="-368.2,73.4 -422.5,73.4 -368.2,35.9 			"/>
			<polyline style="fill:#B18232;" points="-371.3,150 -375.3,150 -387.8,159.2 -387.8,161.6 -374.9,161.7 -374.8,207.1 
				-368.2,207.1 			"/>
			<rect x="-408.8" y="113.2" style="fill:#C4C4C3;" width="7.4" height="23.8"/>
			<rect x="-395.2" y="113.2" style="fill:#C4C4C3;" width="7.4" height="23.8"/>
			<rect x="-381.8" y="113.2" style="fill:#C4C4C3;" width="7.4" height="23.8"/>
			<path style="fill:#C4C4C3;" d="M-391.5,90c-7,0-12.7,5.7-12.7,12.7h25.4C-378.8,95.7-384.5,90-391.5,90z"/>
			<rect x="-414.8" y="83.7" style="fill:#EA4B36;" width="46.6" height="3.4"/>
			<rect x="-414.8" y="73.4" style="fill:#C0593D;" width="5.9" height="1.5"/>
			<rect x="-394.5" y="73.4" style="fill:#C0593D;" width="5.9" height="1.5"/>
			<path style="fill:#C4C4C3;" d="M-393.3,172.2c-2.9,0-5.2,2.3-5.2,5.2v17.8h10.3v-17.8C-388.2,174.5-390.5,172.2-393.3,172.2z"/>
			<rect x="-401.9" y="195.3" style="fill:#C0593D;" width="17.1" height="3"/>
			<rect x="-404.8" y="198.3" style="fill:#C0593D;" width="23" height="3"/>
			<rect x="-407.9" y="201.3" style="fill:#C0593D;" width="29.1" height="3"/>
			<rect x="-410.8" y="204.3" style="fill:#C0593D;" width="35" height="3"/>
		</g>
		<rect x="-414.8" y="77.9" style="fill:#EB7A53;" width="46.6" height="5.8"/>
	</g>
	<g>
		<g>
			<rect x="872.6" y="77.3" style="fill:#C0593D;" width="12.4" height="14.7"/>
			<rect x="830.4" y="77.3" style="fill:#C0593D;" width="12.4" height="14.7"/>
			<rect x="830.4" y="92" style="fill:#E4A638;" width="96.8" height="268.5"/>
			<polygon style="fill:#EA4B36;" points="927.2,82.7 814.4,82.7 927.2,4.6 			"/>
			<polyline style="fill:#B18232;" points="920.8,241.9 912.4,241.9 886.5,261 886.5,266 913.3,266.1 913.4,360.5 927.2,360.5 			
				"/>
			<rect x="842.8" y="165.5" style="fill:#C4C4C3;" width="15.4" height="49.6"/>
			<rect x="871.1" y="165.5" style="fill:#C4C4C3;" width="15.4" height="49.6"/>
			<rect x="898.9" y="165.5" style="fill:#C4C4C3;" width="15.4" height="49.6"/>
			<path style="fill:#C4C4C3;" d="M878.8,117.2c-14.6,0-26.4,11.8-26.4,26.4h52.9C905.2,129.1,893.4,117.2,878.8,117.2z"/>
			<rect x="830.4" y="104" style="fill:#EA4B36;" width="96.8" height="7.1"/>
			<rect x="830.4" y="82.7" style="fill:#C0593D;" width="12.4" height="3.2"/>
			<rect x="872.6" y="82.7" style="fill:#C0593D;" width="12.4" height="3.2"/>
			<path style="fill:#C4C4C3;" d="M875,288.1c-5.9,0-10.7,4.8-10.7,10.7v37h21.5v-37C885.7,292.9,880.9,288.1,875,288.1z"/>
			<rect x="857.3" y="336.1" style="fill:#C0593D;" width="35.4" height="6.2"/>
			<rect x="851.1" y="342.3" style="fill:#C0593D;" width="47.9" height="6.2"/>
			<rect x="844.8" y="348.5" style="fill:#C0593D;" width="60.4" height="6.2"/>
			<rect x="838.6" y="354.8" style="fill:#C0593D;" width="72.7" height="6.2"/>
		</g>
		<rect x="830.4" y="92" style="fill:#EB7A53;" width="96.8" height="12"/>
	</g>
</g>
<g id="_x32_nd_house">
	<g>
		<polygon style="fill:#415A7B;" points="-310.1,77.9 -354.5,111.5 -346.5,111.5 -346.5,159.3 -371,159.3 -371,207.1 -346.5,207.1 
			-273.6,207.1 -273.6,111.5 -265.6,111.5 		"/>
		<rect x="-335.2" y="118.3" style="fill:#C4C4C3;" width="16.8" height="27.8"/>
		<rect x="-301.7" y="118.3" style="fill:#C4C4C3;" width="16.8" height="27.8"/>
		<rect x="-362.4" y="175.2" style="fill:#C4C4C3;" width="12.8" height="22.6"/>
		<polygon style="fill:#415A7B;" points="-273.6,150 -273.6,161.6 -381.6,161.6 -381.6,159.3 -371.1,150 		"/>
		<rect x="-301.7" y="164.9" style="fill:#C4C4C3;" width="16.8" height="23.2"/>
		<rect x="-371" y="161.7" style="fill:#2F323D;" width="95.7" height="4.7"/>
		<rect x="-332.7" y="187.4" style="fill:#37303A;" width="16.8" height="2.7"/>
		<rect x="-301.9" y="187.4" style="fill:#37303A;" width="16.9" height="2.7"/>
		<rect x="-301.7" y="164.9" style="fill:#67847B;" width="16.9" height="1.5"/>
		<rect x="-303.5" y="186.8" style="fill:#3B97D3;" width="19.9" height="1.7"/>
		<rect x="-332.7" y="164.9" style="fill:#C4C4C3;" width="16.8" height="23.2"/>
		<rect x="-332.7" y="164.9" style="fill:#67847B;" width="16.9" height="1.5"/>
		<rect x="-334.5" y="186.8" style="fill:#3B97D3;" width="19.9" height="1.7"/>
	</g>
	<g>
		<polygon style="fill:#415A7B;" points="1048.1,92 955.8,161.9 972.2,161.9 972.2,261.2 921.3,261.2 921.3,360.5 972.2,360.5 
			1123.9,360.5 1123.9,161.9 1140.4,161.9 		"/>
		<rect x="995.8" y="176.1" style="fill:#C4C4C3;" width="34.9" height="57.8"/>
		<rect x="1065.5" y="176.1" style="fill:#C4C4C3;" width="34.9" height="57.8"/>
		<rect x="939.3" y="294.3" style="fill:#C4C4C3;" width="26.7" height="47"/>
		<polygon style="fill:#415A7B;" points="1123.9,241.9 1123.9,266 899.3,266 899.3,261.2 921.3,241.9 		"/>
		<rect x="1065.5" y="272.8" style="fill:#C4C4C3;" width="34.9" height="48.1"/>
		<rect x="921.3" y="266.1" style="fill:#2F323D;" width="199" height="9.8"/>
		<rect x="1001" y="319.7" style="fill:#37303A;" width="35" height="5.5"/>
		<rect x="1065" y="319.7" style="fill:#37303A;" width="35.1" height="5.5"/>
		<rect x="1065.4" y="272.8" style="fill:#67847B;" width="35.1" height="3.1"/>
		<rect x="1061.8" y="318.3" style="fill:#3B97D3;" width="41.4" height="3.5"/>
		<rect x="1001.1" y="272.8" style="fill:#C4C4C3;" width="34.9" height="48.1"/>
		<rect x="1001" y="272.8" style="fill:#67847B;" width="35.1" height="3.1"/>
		<rect x="997.3" y="318.3" style="fill:#3B97D3;" width="41.4" height="3.5"/>
	</g>
</g>
<g id="_x31_st_house">
	<g>
		<rect x="-173.5" y="164.1" style="fill:#EB7A53;" width="5.3" height="43"/>
		<g>
			<rect x="-259.3" y="125.2" style="fill:#D33227;" width="74.8" height="27.9"/>
			<g>
				<g>
					<g>
						<polygon style="fill:#DA6041;" points="-172.4,127.3 -271.4,127.3 -221.9,92.7 						"/>
					</g>
				</g>
			</g>
			<g>
				<g>
					<g>
						<polygon style="fill:#D33227;" points="-184.5,127.3 -259.3,127.3 -221.9,101.5 						"/>
					</g>
				</g>
			</g>
			<rect x="-273" y="152.7" style="fill:#E03729;" width="102.1" height="54.4"/>
			<polyline style="fill:#A02822;" points="-221.9,146.2 -244.5,161.7 -244.5,166.6 -200.2,166.6 -200.2,158.5 			"/>
			<rect x="-227.4" y="111.5" style="fill:#C4C4C3;" width="10.9" height="13.6"/>
			<rect x="-270.3" y="164.1" style="fill:#A02822;" width="99.5" height="5.1"/>
			<rect x="-247.3" y="132.3" style="fill:#C4C4C3;" width="10.9" height="16.4"/>
			<rect x="-207.5" y="132.3" style="fill:#C4C4C3;" width="10.9" height="16.4"/>
			<rect x="-198.8" y="169.2" style="fill:#C4C4C3;" width="10.9" height="23.1"/>
			<rect x="-185.9" y="169.2" style="fill:#C4C4C3;" width="10.9" height="23.1"/>
			<rect x="-265.6" y="169.2" style="fill:#C4C4C3;" width="10.9" height="23.1"/>
			<rect x="-252.8" y="169.2" style="fill:#C4C4C3;" width="10.9" height="23.1"/>
			<rect x="-226" y="171.3" style="fill:#C4C4C3;" width="10.9" height="21"/>
			<path style="fill:#DA6041;" d="M-162,157L-162,157l-6.2-4.3h-35.6l-16.7-11.4l-16.7,11.4h-35.6l-6.2,4.3v7.1h25.1l0,0h13.9
				l5.2-3.5h9.5c0,0,9.6,0,9.6,0h9.5l5.2,3.5h13.9l0,0h25.1V157z"/>
			<rect x="-275.6" y="164.1" style="fill:#DA6041;" width="5.3" height="43"/>
			<rect x="-170.9" y="164.1" style="fill:#DA6041;" width="5.3" height="43"/>
			<rect x="-245.3" y="164.1" style="fill:#DA6041;" width="5.3" height="43"/>
			<rect x="-201.8" y="161.7" style="fill:#DA6041;" width="5.3" height="45.4"/>
		</g>
	</g>
	<rect x="-563.3" y="-129.3" style="fill:none;" width="418" height="54"/>
	<text transform="matrix(1 0 0 1 -479.256 -78.2275)" style="fill:#E62550; font-family:'Mairy-Black'; font-size:90px;">CityPup</text>
	<g>
		<rect x="1331.9" y="271.2" style="fill:#EB7A53;" width="11" height="89.3"/>
		<g>
			<rect x="1153.5" y="190.3" style="fill:#D33227;" width="155.5" height="58.1"/>
			<g>
				<g>
					<g>
						<polygon style="fill:#DA6041;" points="1334.2,194.7 1128.4,194.7 1231.3,122.8 						"/>
					</g>
				</g>
			</g>
			<g>
				<g>
					<g>
						<polygon style="fill:#D33227;" points="1309.1,194.7 1153.5,194.7 1231.3,141 						"/>
					</g>
				</g>
			</g>
			<rect x="1125.1" y="247.5" style="fill:#E03729;" width="212.3" height="113"/>
			<polyline style="fill:#A02822;" points="1231.3,233.9 1184.3,266.1 1184.3,276.4 1276.5,276.4 1276.5,259.5 			"/>
			<rect x="1220" y="161.9" style="fill:#C4C4C3;" width="22.6" height="28.4"/>
			<rect x="1130.7" y="271.2" style="fill:#A02822;" width="206.8" height="10.5"/>
			<rect x="1178.5" y="205.1" style="fill:#C4C4C3;" width="22.6" height="34"/>
			<rect x="1261.2" y="205.1" style="fill:#C4C4C3;" width="22.6" height="34"/>
			<rect x="1279.3" y="281.7" style="fill:#C4C4C3;" width="22.6" height="48.1"/>
			<rect x="1306.1" y="281.7" style="fill:#C4C4C3;" width="22.6" height="48.1"/>
			<rect x="1140.4" y="281.7" style="fill:#C4C4C3;" width="22.6" height="48.1"/>
			<rect x="1167.2" y="281.7" style="fill:#C4C4C3;" width="22.6" height="48.1"/>
			<rect x="1222.8" y="286.2" style="fill:#C4C4C3;" width="22.6" height="43.6"/>
			<path style="fill:#DA6041;" d="M1355.7,256.5L1355.7,256.5l-12.9-8.9h-74l-34.7-23.6l-34.7,23.6h-74l-12.9,8.9v14.7h52.2l0,0
				h28.8l10.8-7.4h19.8c0,0,19.9,0,19.9,0h19.8l10.8,7.4h28.8l0,0h52.2V256.5z"/>
			<rect x="1119.6" y="271.2" style="fill:#DA6041;" width="11" height="89.3"/>
			<rect x="1337.4" y="271.2" style="fill:#DA6041;" width="11" height="89.3"/>
			<rect x="1182.6" y="271.2" style="fill:#DA6041;" width="11" height="89.3"/>
			<rect x="1273" y="266.2" style="fill:#DA6041;" width="11" height="94.3"/>
		</g>
	</g>
</g>
<g id="Layer_2">
</g>
<g id="Layer_3">
	<g>
		<path style="fill:#E8DCC4;" d="M-218.3,197.8c0,0-5.1-4.6-6.7-7c-1.6-2.4-3,9.2,0.6,13.8C-220.8,209.2-217.7,201.2-218.3,197.8z"
			/>
		<rect x="-182.8" y="228.4" style="fill:#C6C6C5;" width="8" height="19.1"/>
		<path style="fill:#C6C6C5;" d="M-174.7,249.8c0,1.3-1,2.3-2.2,2.3h-5.5c-1.2,0-2.2-1-2.2-2.3l0,0c0-1.3,1-2.3,2.2-2.3h5.5
			C-175.7,247.5-174.7,248.6-174.7,249.8L-174.7,249.8z"/>
		<polygon style="fill:#C6C6C5;" points="-176.1,249.6 -180.7,251.9 -181.1,245 -176.6,245 		"/>
		<path style="fill:#F5F4F0;" d="M-203.7,206.4c0,5.4-4.7,9.7-10.5,9.7c-5.8,0-10.5-4.4-10.5-9.7c0-5.4,4.7-9.3,10.5-9.3
			C-208.4,197.1-203.7,201-203.7,206.4z"/>
		<path style="fill:#E8DCC4;" d="M-203.7,205.1l0-0.1c2.3-9.3,0.1-14.5,0.1-14.5c-4.3,2-5.9,7.5-5.9,7.5S-205.6,201.2-203.7,205.1
			C-203.8,205.2-203.7,205.1-203.7,205.1z"/>
		<circle style="fill:#5D5E5E;" cx="-219.2" cy="205.5" r="1.3"/>
		<circle style="fill:#5D5E5E;" cx="-210.9" cy="205.5" r="1.3"/>
		<path style="fill:#F5F4F0;" d="M-224.5,207.4c0,0-1.5,0.4-1.7,3.1s5.4,8.9,12.1,7.7c6.7-1.1,15.1-5.9,10.2-9.8"/>
		<rect x="-221.7" y="231.1" style="fill:#F5F4F0;" width="8" height="19.1"/>
		<path style="fill:#F5F4F0;" d="M-213.7,252.5c0,1.3-1,2.3-2.2,2.3h-5.5c-1.2,0-2.2-1-2.2-2.3l0,0c0-1.3,1-2.3,2.2-2.3h5.5
			C-214.7,250.2-213.7,251.2-213.7,252.5L-213.7,252.5z"/>
		<polygon style="fill:#F5F4F0;" points="-213.7,252.5 -218.3,254.7 -218.3,247.7 -213.7,247.7 		"/>
		<rect x="-207.5" y="231.1" style="fill:#F5F4F0;" width="8" height="19.1"/>
		<path style="fill:#F5F4F0;" d="M-199.5,252.5c0,1.3-1,2.3-2.2,2.3h-5.5c-1.2,0-2.2-1-2.2-2.3l0,0c0-1.3,1-2.3,2.2-2.3h5.5
			C-200.4,250.2-199.5,251.2-199.5,252.5L-199.5,252.5z"/>
		<polygon style="fill:#F5F4F0;" points="-199.5,252.5 -204.1,254.7 -204.1,247.7 -199.5,247.7 		"/>
		<g>
			<rect x="-177.9" y="231.1" style="fill:#F5F4F0;" width="8" height="19.1"/>
			<path style="fill:#F5F4F0;" d="M-169.8,252.5c0,1.3-1,2.3-2.2,2.3h-5.5c-1.2,0-2.2-1-2.2-2.3l0,0c0-1.3,1-2.3,2.2-2.3h5.5
				C-170.8,250.2-169.8,251.2-169.8,252.5L-169.8,252.5z"/>
			<polygon style="fill:#F5F4F0;" points="-169.9,252.5 -174.4,254.7 -174.4,247.7 -169.9,247.7 			"/>
		</g>
		<path style="fill:#F5F4F0;" d="M-180,219.9"/>
		<path style="fill:#F5F4F0;" d="M-177.9,220.8c0,0,8.1,1.2,9.9,6.6c1.8,5.4,5.7,9.3,10,5.1c4.4-4.2,4.5-6.5,4.5-6.5
			s1.3,9.6-2.7,12.5h1.5c0,0-11.3,9.7-15.2-4"/>
		<path style="fill:#F5F4F0;" d="M-170,232.7c0.1-0.5,0.1-1.1,0.1-1.6c0-5.7-4.1-10.3-9.3-10.3c-0.1,0-0.2,0-0.3,0l0,0h-10.1
			c0,0-10.2-0.5-14.9-10.9c-4.6-10.4-2.5,6.6-9.1,7.9l-10.1-5.1c0,0-1.4,11.1,0.2,19.6c0,0,1.7,9.1,18.4,9.1h7.2h1.8
			c3.3-0.1,8.4-0.3,12.6-1.2c0,0,0,0,0,0c1.1-0.2,2.3-0.6,3.4-1c0.9-0.3,1.6-0.7,2.2-1.1v2.6v0.6v0.1h4.3c2,0,3.7-1.8,3.7-4.1v-4.6
			L-170,232.7z"/>
		<path style="fill:#F5F4F0;" d="M-223.8,214.8c0,0-1.8,2.8-1.4,6.5l0.6-1.4c0,0-1.2,4.1,0.6,7.6l4.8-3.9"/>
		<path style="fill:#E8DCC4;" d="M-179.1,220.8c-0.1,0-0.2,0-0.3,0l0,0h-10.1c0,0-7.6-0.4-12.7-7.2l0,0c0,0,6.3,8.2,5.2,17.7
			c-0.4,3.3,6.3,6.9,8,1c1.6-5.9,9.1-4.4,10.4-1c1.3,3.3,6.5,2.6,7.4-0.3c0.3-0.8,0.7-1.6,1.1-2.4
			C-171.1,224.1-174.8,220.8-179.1,220.8z"/>
		<g>
			<path style="fill:#5D5E5E;" d="M-215.4,211.3c0,0.8-0.6,1.4-1.3,1.4c-0.7,0-1.3-0.6-1.3-1.4c0-0.8,0.6-0.8,1.3-0.8
				C-216,210.5-215.4,210.5-215.4,211.3z"/>
			<path style="fill:#5D5E5E;" d="M-217.3,212.5c0,0,0.5,1.2-1.6,1.1c0,0,4.1,1.3,6.2-1.1c0,0-3.5,2.2-4-0.9"/>
			<path style="fill:#5D5E5E;" d="M-217.6,213.8c0,0,0.9,1.7,2.8-0.1"/>
		</g>
		<path style="fill:#E0DFDA;" d="M-221.7,216.5c0,0-1.3,4.1,0,6.1l1.2-1.4c0,0-0.8,3.7,1.3,7.3l1.5-1c0,0,3.7,5.1,5.5,6.1
			c0,0,3.8-2.2,2.9-7.4h1.8l-0.8-3.4c0,0,1.1-1.2,2.2-0.7l-1.3-3.7h1.3c0,0-0.5-1-1.3-2.3S-214.2,222.1-221.7,216.5"/>
	</g>
	<g>
		<path style="fill:#E8DCC4;" d="M1238.7,341.3c0,0-10.7-9.6-14-14.6c-3.3-5-6.2,19.2,1.3,28.7
			C1233.6,365,1240.1,348.3,1238.7,341.3z"/>
		<rect x="1312.7" y="404.9" style="fill:#C6C6C5;" width="16.6" height="39.7"/>
		<path style="fill:#C6C6C5;" d="M1329.4,449.4c0,2.6-2,4.8-4.5,4.8h-11.4c-2.5,0-4.5-2.1-4.5-4.8l0,0c0-2.6,2-4.8,4.5-4.8h11.4
			C1327.4,444.6,1329.4,446.8,1329.4,449.4L1329.4,449.4z"/>
		<polygon style="fill:#C6C6C5;" points="1326.5,448.9 1317,453.7 1316.1,439.4 1325.6,439.4 		"/>
		<path style="fill:#F5F4F0;" d="M1269.2,359c0,11.2-9.7,20.2-21.8,20.2c-12,0-21.8-9-21.8-20.2c0-11.2,9.7-19.3,21.8-19.3
			C1259.5,339.8,1269.2,347.9,1269.2,359z"/>
		<path style="fill:#E8DCC4;" d="M1269.1,356.5l-0.1-0.2c4.8-19.3,0.2-30.2,0.2-30.2c-9,4.1-12.3,15.6-12.3,15.6
			S1265.1,348.4,1269.1,356.5C1269,356.5,1269.1,356.5,1269.1,356.5z"/>
		<path style="fill:#5D5E5E;" d="M1239.7,357.2c0,1.5-1.2,2.7-2.7,2.7c-1.5,0-2.7-1.2-2.7-2.7s1.2-2.7,2.7-2.7
			C1238.5,354.5,1239.7,355.7,1239.7,357.2z"/>
		<path style="fill:#5D5E5E;" d="M1257,357.2c0,1.5-1.2,2.7-2.7,2.7c-1.5,0-2.7-1.2-2.7-2.7s1.2-2.7,2.7-2.7
			C1255.7,354.5,1257,355.7,1257,357.2z"/>
		<path style="fill:#F5F4F0;" d="M1225.8,361.1c0,0-3.1,0.9-3.4,6.5c-0.4,5.6,11.2,18.4,25.1,16.1c13.9-2.4,31.3-12.2,21.3-20.4"/>
		<rect x="1231.7" y="410.4" style="fill:#F5F4F0;" width="16.6" height="39.7"/>
		<path style="fill:#F5F4F0;" d="M1248.3,454.9c0,2.6-2,4.8-4.5,4.8h-11.4c-2.5,0-4.5-2.1-4.5-4.8l0,0c0-2.6,2-4.8,4.5-4.8h11.4
			C1246.3,450.1,1248.3,452.2,1248.3,454.9L1248.3,454.9z"/>
		<polygon style="fill:#F5F4F0;" points="1248.3,454.9 1238.8,459.6 1238.8,444.9 1248.3,444.9 		"/>
		<rect x="1261.3" y="410.4" style="fill:#F5F4F0;" width="16.6" height="39.7"/>
		<path style="fill:#F5F4F0;" d="M1277.9,454.9c0,2.6-2,4.8-4.5,4.8h-11.4c-2.5,0-4.5-2.1-4.5-4.8l0,0c0-2.6,2-4.8,4.5-4.8h11.4
			C1275.9,450.1,1277.9,452.2,1277.9,454.9L1277.9,454.9z"/>
		<polygon style="fill:#F5F4F0;" points="1277.9,454.9 1268.4,459.6 1268.4,444.9 1277.9,444.9 		"/>
		<g>
			<rect x="1322.9" y="410.4" style="fill:#F5F4F0;" width="16.6" height="39.7"/>
			<path style="fill:#F5F4F0;" d="M1339.5,454.9c0,2.6-2,4.8-4.5,4.8h-11.4c-2.5,0-4.5-2.1-4.5-4.8l0,0c0-2.6,2-4.8,4.5-4.8h11.4
				C1337.5,450.1,1339.5,452.2,1339.5,454.9L1339.5,454.9z"/>
			<polygon style="fill:#F5F4F0;" points="1339.5,454.9 1330,459.6 1330,444.9 1339.5,444.9 			"/>
		</g>
		<path style="fill:#F5F4F0;" d="M1318.4,387.1"/>
		<path style="fill:#F5F4F0;" d="M1322.9,389c0,0,16.9,2.4,20.6,13.7c3.7,11.3,11.8,19.4,20.9,10.6c9.1-8.8,9.4-13.6,9.4-13.6
			s2.7,20.1-5.7,26h3.1c0,0-23.4,20.1-31.7-8.2"/>
		<path style="fill:#F5F4F0;" d="M1339.3,413.7c0.2-1.1,0.2-2.2,0.2-3.3c0-11.8-8.6-21.4-19.3-21.4c-0.2,0-0.4,0-0.6,0l0,0h-21
			c0,0-21.3-1.1-30.9-22.7c-9.6-21.5-5.2,13.8-18.9,16.4l-21-10.6c0,0-2.9,23.2,0.3,40.7c0,0,3.5,19,38.2,19h14.9h3.8
			c6.8-0.1,17.4-0.7,26.2-2.6c0,0,0.1,0,0.1,0.1c2.2-0.5,4.7-1.2,7-2.1c1.8-0.7,3.3-1.5,4.6-2.4v5.5v1.3v0.2h9
			c4.2,0,7.6-3.8,7.6-8.6v-9.6L1339.3,413.7z"/>
		<path style="fill:#F5F4F0;" d="M1227.4,376.7c0,0-3.7,5.9-3,13.4l1.3-3c0,0-2.4,8.5,1.2,15.8l10-8"/>
		<path style="fill:#E8DCC4;" d="M1320.3,389c-0.2,0-0.4,0-0.6,0l0,0h-21c0,0-15.9-0.9-26.4-15l0,0c0,0,13.1,17.1,10.8,36.8
			c-0.8,6.9,13.2,14.4,16.6,2.2c3.4-12.2,19-9.1,21.6-2.2c2.6,6.9,13.5,5.4,15.5-0.6c0.5-1.6,1.4-3.3,2.2-5
			C1336.9,395.9,1329.3,389,1320.3,389z"/>
		<g>
			<path style="fill:#5D5E5E;" d="M1244.7,369.2c0,1.6-1.2,2.9-2.6,2.9s-2.6-1.3-2.6-2.9s1.2-1.6,2.6-1.6S1244.7,367.6,1244.7,369.2
				z"/>
			<path style="fill:#5D5E5E;" d="M1240.8,371.7c0,0,1,2.4-3.3,2.3c0,0,8.5,2.7,12.8-2.3c0,0-7.2,4.6-8.2-1.9"/>
			<path style="fill:#5D5E5E;" d="M1240.2,374.6c0,0,1.9,3.5,5.8-0.2"/>
		</g>
		<path style="fill:#E0DFDA;" d="M1231.7,380.1c0,0-2.7,8.5,0,12.7l2.6-3c0,0-1.7,7.7,2.7,15.1l3.2-2c0,0,7.6,10.6,11.4,12.7
			c0,0,8-4.6,6-15.3h3.7l-1.7-7.1c0,0,2.2-2.5,4.5-1.4l-2.8-7.8h2.8c0,0-1.1-2-2.8-4.8S1247.3,391.7,1231.7,380.1"/>
	</g>
</g>
<g id="Layer_9">
</g>
<g id="Layer_10">
	<g>
		<path style="fill:#976E5D;" d="M-487.9,224.9c0,0-2.6,6.6,1.3,11.8l1.5-3.1"/>
		<path style="fill:#976E5D;" d="M-454.5,228.4c0,0,7.5,2.6,6.1,10.9l-1.7-1.1"/>
		<g>
			<polygon style="fill:#B5A699;" points="-454.1,246.7 -457.3,246.7 -457.3,243.9 -454.5,243.9 			"/>
			<ellipse style="fill:#B5A699;" cx="-457.3" cy="245.3" rx="1.5" ry="1.4"/>
		</g>
		<path style="fill:#B5A699;" d="M-460.8,239c0,0-0.6,3.7,3.4,4.6l0.3,1.3h3l-1-5.9l-3.9-3.1"/>
		<path style="fill:#B5A699;" d="M-469.3,241.5c0,0-0.3,4.9-3.8,4.6c-3.6-0.3,0.7-6.9,0.7-6.9"/>
		<path style="fill:#E6DACC;" d="M-450.3,236.1c-0.1-0.5-0.3-1-0.5-1.4l0.4-0.7c0,0,0,0,0,0C-450.3,234.8-450.3,235.5-450.3,236.1z"
			/>
		<path style="fill:#E6DACC;" d="M-450.3,236.1c-0.1-0.5-0.3-1-0.5-1.4l0.4-0.7c0,0,0,0,0,0C-450.3,234.8-450.3,235.5-450.3,236.1z"
			/>
		<g>
			<path style="fill:#F7EEE7;" d="M-454.5,245c-0.1,0-0.3,0-0.4,0L-454.5,245L-454.5,245z"/>
			<path style="fill:#F7EEE7;" d="M-453.8,247.7l-1,0c0.3,0,0.7-0.1,0.9-0.3L-453.8,247.7z"/>
			<path style="fill:#F7EEE7;" d="M-451.3,241.9l0.5,2.1l-0.3,3.7h-2.6l0,0l-0.1-0.3c-0.2,0.2-0.6,0.3-0.9,0.3c0,0,0,0-0.1,0
				c-0.8,0-1.5-0.6-1.5-1.4c0-0.8,0.7-1.4,1.5-1.4c0.1,0,0.3,0,0.4,0l0,0l-0.5-2.2l0,0c-1.9-0.2-3.5-1.8-4-4
				c-1.1,0.1-2.1,0.3-2.9,0.8c-4.3,2.2-9.3,2.2-9.3,2.2c0.2,3.1-1.7,4.7-1.7,4.7l-0.8,1.3l-2.3,0l0-0.2c-0.2,0.1-0.5,0.2-0.8,0.2
				c-0.8,0-1.5-0.6-1.5-1.4c0-0.8,0.7-1.4,1.5-1.4c0.1,0,0.2,0,0.3,0l0,0l-0.6-3.2c-4.7-1.5-5.1-6.4-5.1-6.4l0.1-0.1
				c-1.8-0.4-2.6-1.4-2.6-1.4l-0.5,0.5c-1-1-1-2.3-1-2.3l-0.5,0.7c-0.7-0.7-0.8-2.9-0.8-2.9l-0.5,0.7c-0.7-2,0.5-4.1,0.5-4.1l0,0
				c0,0,0-0.1,0-0.1l-0.7,0.3c0.3-2.5,1.9-3.3,2-3.4c0.8-1.1,1.9-1.9,3.2-2.3l-0.1,0c0,0,3.8-1.5,8.5,0.6l-1.7,0.3
				c0,0,1-0.1,2.3,1.3c-0.1-0.1-0.5-0.4-1.9-0.2c0,0,0,0,0,0c0.9,1.1,1.4,2.5,1.4,4.1c0,0.7-0.1,1.3-0.3,1.9c0.4-0.1,1-0.2,1.5-0.4
				c0.8-0.2,1.8-0.4,2.8-0.6h0c0,0,3.3-1.1,4.9-1.2l-0.5,0.5l-0.2,0.2c0,0,0.2-0.1,0.6-0.2c0.8-0.3,2.3-0.8,3.5-0.8l-0.2,0.5
				c3.8-0.2,7.3,0.3,9.2,2c1.6,1.6,2.5,3.2,2.8,4.8l-0.4,0.7c0.2,0.4,0.4,0.9,0.5,1.4c0.1-0.6,0-1.3-0.1-2.1
				C-449.4,238.9-451.3,241.9-451.3,241.9z"/>
		</g>
		<polygon style="fill:#E6DACC;" points="-473.7,247.7 -476,247.7 -476,247.7 		"/>
		<path style="fill:#E6DACC;" d="M-465.7,227.5c-0.3,0.1-0.5,0.2-0.6,0.2l0.2-0.2C-466,227.5-465.9,227.5-465.7,227.5z"/>
		<path style="fill:#E6DACC;" d="M-473.3,228.9c-0.6,0.1-1.1,0.2-1.5,0.4c0.2-0.6,0.3-1.3,0.3-1.9c0-1.5-0.5-3-1.4-4.1l0.2-0.1
			C-473.4,226-473.3,227.8-473.3,228.9z"/>
		<circle style="fill:#3A3A3A;" cx="-484.3" cy="228.5" r="0.8"/>
		<circle style="fill:#3A3A3A;" cx="-478.9" cy="228" r="0.8"/>
		<path style="fill:#3A3A3A;" d="M-481,231.9c0,0.5-0.5,1-1,1c-0.6,0-1-0.4-1-1c0-0.5,0.5-0.7,1-0.7
			C-481.5,231.3-481,231.4-481,231.9z"/>
		<g>
			<path style="fill:#3A3A3A;" d="M-481.8,232.9C-481.8,232.9-481.8,232.9-481.8,232.9c0,0.1-0.1,0.2-0.1,0.3
				c-0.1,0.1-0.1,0.2-0.3,0.3c-0.1,0-0.1,0.1-0.2,0.1c-0.1,0-0.1,0-0.2,0c-0.1,0-0.2,0-0.2,0c0,0-0.1,0-0.1,0c0,0-0.1,0-0.1,0
				c-0.1,0-0.1-0.1-0.2-0.1c0,0-0.1-0.1-0.1-0.1c0,0-0.1-0.1-0.1-0.1c0,0,0-0.1-0.1-0.1c0,0-0.1-0.1-0.1-0.1s0,0,0.1,0
				c0,0,0.1,0.1,0.2,0.1c0,0,0.1,0,0.1,0.1c0,0,0.1,0,0.2,0.1c0.1,0,0.1,0,0.2,0c0.1,0,0.1,0,0.2,0c0.1,0,0.2,0,0.3-0.1
				c0,0,0.1-0.1,0.1-0.1c0,0,0.1-0.1,0.1-0.1C-482,233-481.9,233-481.8,232.9C-481.8,232.9-481.8,232.9-481.8,232.9z"/>
			<path style="fill:#3A3A3A;" d="M-481.8,232.9C-481.8,232.9-481.8,232.9-481.8,232.9c0.1,0.1,0.2,0.1,0.3,0.2c0,0,0.1,0.1,0.1,0.1
				c0,0,0.1,0,0.2,0.1c0.1,0,0.2,0.1,0.3,0c0.1,0,0.1,0,0.2,0c0.1,0,0.1,0,0.2-0.1c0.1,0,0.1-0.1,0.1-0.1c0,0,0.1-0.1,0.1-0.1
				c0.1-0.1,0.1-0.1,0.2-0.2c0,0,0.1-0.1,0.1-0.1s0,0,0,0.1c0,0,0,0.1-0.1,0.1c0,0,0,0.1-0.1,0.1c0,0-0.1,0.1-0.1,0.1
				c0,0-0.1,0.1-0.1,0.1c0,0-0.1,0-0.1,0.1c0,0-0.1,0-0.1,0c-0.1,0-0.1,0-0.2,0.1c-0.1,0-0.2,0-0.2,0c-0.1,0-0.1,0-0.2-0.1
				c-0.1-0.1-0.2-0.1-0.3-0.2C-481.7,233.1-481.7,233-481.8,232.9C-481.8,232.9-481.8,232.9-481.8,232.9z"/>
		</g>
		<path style="fill:#976E5D;" d="M-475.7,222.5c0,0,3.7,0,4.8,8.9l-1.3-1.1c0,0,0.3,1.3-1.6,3.8c0,0,0.3-3.1-2.3-7.5"/>
		<path style="fill:#976E5D;" d="M-487.6,224.2"/>
		<path style="fill:#E6DACC;" d="M-468.5,240"/>
		<g>
			<path style="fill:#E6DACC;" d="M-476.5,244.9c-0.1,0-0.2,0-0.3,0L-476.5,244.9L-476.5,244.9z"/>
			<path style="fill:#E6DACC;" d="M-476,247.7l-0.9,0c0.3,0,0.6-0.1,0.8-0.2L-476,247.7z"/>
		</g>
	</g>
	<g>
		<path style="fill:#976E5D;" d="M678.4,397.6c0,0-5.5,13.7,2.7,24.5l3.1-6.5"/>
		<path style="fill:#976E5D;" d="M747.8,404.8c0,0,15.5,5.4,12.6,22.6l-3.6-2.3"/>
		<g>
			<polygon style="fill:#B5A699;" points="748.5,442.9 741.9,443 741.9,437.1 747.8,437.1 			"/>
			<path style="fill:#B5A699;" d="M745.1,440.1c0,1.6-1.4,2.9-3.2,2.9c-1.7,0-3.2-1.3-3.2-2.9c0-1.6,1.4-2.9,3.2-2.9
				C743.7,437.1,745.1,438.4,745.1,440.1z"/>
		</g>
		<path style="fill:#B5A699;" d="M734.8,426.9c0,0-1.1,7.7,7.1,9.6l0.6,2.7h6.3l-2-12.3l-8.1-6.4"/>
		<path style="fill:#B5A699;" d="M717,432.1c0,0-0.5,10.2-7.9,9.6c-7.4-0.6,1.5-14.3,1.5-14.3"/>
		<path style="fill:#E6DACC;" d="M756.5,420.9c-0.2-1-0.6-2-1-2.9l0.8-1.5c0,0,0,0,0,0.1C756.6,418.1,756.6,419.6,756.5,420.9z"/>
		<path style="fill:#E6DACC;" d="M756.5,420.9c-0.2-1-0.6-2-1-2.9l0.8-1.5c0,0,0,0,0,0.1C756.6,418.1,756.6,419.6,756.5,420.9z"/>
		<g>
			<path style="fill:#F7EEE7;" d="M747.9,439.3c-0.3-0.1-0.5-0.1-0.8-0.1L747.9,439.3L747.9,439.3z"/>
			<path style="fill:#F7EEE7;" d="M749.2,445l-2,0c0.7,0,1.4-0.3,1.9-0.7L749.2,445z"/>
			<path style="fill:#F7EEE7;" d="M754.4,433l1,4.4l-0.7,7.6h-5.4l0,0l-0.2-0.6c-0.5,0.4-1.2,0.6-1.9,0.7c0,0-0.1,0-0.1,0
				c-1.7,0-3.2-1.3-3.2-2.9c0-1.6,1.4-2.9,3.2-2.9c0.3,0,0.6,0,0.8,0.1l0-0.1l-1.1-4.6l0,0c-4.1-0.4-7.4-3.8-8.3-8.3
				c-2.3,0.2-4.4,0.7-6.1,1.6c-8.9,4.6-19.3,4.6-19.3,4.6c0.5,6.4-3.5,9.8-3.5,9.8l-1.7,2.7l-4.8,0.1l-0.1-0.4
				c-0.5,0.3-1.1,0.5-1.7,0.5c-1.7,0-3.2-1.3-3.2-2.9c0-1.6,1.4-2.9,3.2-2.9c0.2,0,0.5,0,0.7,0.1l0-0.1l-1.3-6.7
				c-9.8-3.1-10.7-13.3-10.7-13.3l0.1-0.1c-3.8-0.8-5.3-2.9-5.3-2.9l-1.1,1.1c-2-2-2.1-4.8-2.1-4.8l-1.1,1.6
				c-1.4-1.4-1.6-6.1-1.6-6.1l-1,1.6c-1.5-4.2,1-8.5,1-8.5l0.1,0c0-0.1,0-0.1,0-0.2l-1.5,0.6c0.6-5.2,3.9-6.9,4.1-7.1
				c1.7-2.2,4-3.9,6.7-4.8l-0.2-0.1c0,0,7.8-3,17.6,1.3l-3.4,0.7c0,0,2-0.1,4.8,2.8c-0.2-0.1-1.1-0.7-3.9-0.4c0,0,0,0.1,0.1,0.1
				c1.9,2.3,3,5.3,3,8.5c0,1.4-0.2,2.8-0.6,4c0.9-0.2,2-0.5,3.1-0.8c1.8-0.4,3.7-0.8,5.9-1.2h0c0,0,6.9-2.4,10.2-2.5l-1.1,1
				l-0.3,0.3c0,0,0.5-0.2,1.2-0.4c1.7-0.6,4.9-1.6,7.3-1.6l-0.3,1c7.9-0.3,15.2,0.6,19.1,4.2c3.4,3.2,5.1,6.7,5.8,9.9l-0.8,1.5
				c0.5,0.9,0.8,1.8,1,2.9c0.1-1.3,0.1-2.8-0.2-4.3C758.5,426.7,754.4,433,754.4,433z"/>
		</g>
		<polygon style="fill:#E6DACC;" points="707.9,444.9 703.2,445 703.2,445 		"/>
		<path style="fill:#E6DACC;" d="M724.5,403c-0.7,0.2-1.1,0.4-1.2,0.4l0.3-0.3C723.9,403.1,724.2,403,724.5,403z"/>
		<path style="fill:#E6DACC;" d="M708.6,405.8c-1.2,0.3-2.2,0.5-3.1,0.8c0.4-1.3,0.6-2.6,0.6-4c0-3.2-1.1-6.2-3-8.5l0.5-0.1
			C708.6,399.9,708.7,403.5,708.6,405.8z"/>
		<path style="fill:#3A3A3A;" d="M687.4,405c0,0.9-0.7,1.6-1.6,1.6c-0.9,0-1.6-0.7-1.6-1.6c0-0.9,0.7-1.6,1.6-1.6
			C686.7,403.4,687.4,404.1,687.4,405z"/>
		<path style="fill:#3A3A3A;" d="M698.7,404.1c0,0.9-0.7,1.6-1.6,1.6c-0.9,0-1.6-0.7-1.6-1.6c0-0.9,0.7-1.6,1.6-1.6
			C698,402.5,698.7,403.2,698.7,404.1z"/>
		<path style="fill:#3A3A3A;" d="M692.7,412.2c0,1.1-1,2-2.2,2c-1.2,0-2.2-0.9-2.2-2c0-1.1,1-1.4,2.2-1.4
			C691.8,410.8,692.7,411.1,692.7,412.2z"/>
		<g>
			<path style="fill:#3A3A3A;" d="M691.1,414.1c0,0,0,0.1-0.1,0.2c0,0.1-0.1,0.3-0.2,0.5c-0.1,0.2-0.3,0.4-0.5,0.5
				c-0.1,0.1-0.3,0.1-0.4,0.2c-0.1,0-0.3,0.1-0.5,0.1c-0.2,0-0.3,0-0.5-0.1c-0.1,0-0.1,0-0.2-0.1c-0.1,0-0.1-0.1-0.2-0.1
				c-0.1-0.1-0.2-0.1-0.3-0.2c-0.1-0.1-0.2-0.2-0.3-0.2c-0.1-0.1-0.1-0.2-0.2-0.2c-0.1-0.1-0.1-0.1-0.1-0.2
				c-0.1-0.1-0.1-0.2-0.1-0.2s0.1,0,0.2,0.1c0.1,0.1,0.3,0.2,0.4,0.3c0.1,0.1,0.2,0.1,0.3,0.2c0.1,0,0.2,0.1,0.3,0.1
				c0.1,0,0.2,0.1,0.3,0.1c0.1,0,0.2,0,0.4,0c0.2,0,0.5-0.1,0.7-0.2c0.1-0.1,0.2-0.1,0.3-0.2c0.1-0.1,0.2-0.1,0.3-0.2
				c0.2-0.1,0.3-0.3,0.4-0.3C691,414.2,691.1,414.1,691.1,414.1z"/>
			<path style="fill:#3A3A3A;" d="M691.1,414.1c0,0,0.1,0,0.1,0.1c0.1,0.1,0.2,0.2,0.4,0.3c0.1,0.1,0.2,0.1,0.3,0.2
				c0.1,0.1,0.2,0.1,0.3,0.1c0.2,0.1,0.5,0.1,0.7,0.1c0.1,0,0.2,0,0.4-0.1c0.1,0,0.2-0.1,0.3-0.1c0.1-0.1,0.2-0.1,0.3-0.2
				c0.1-0.1,0.2-0.1,0.3-0.2c0.2-0.1,0.3-0.2,0.4-0.3c0.1-0.1,0.1-0.1,0.1-0.1s0,0.1-0.1,0.2c0,0.1-0.1,0.1-0.1,0.2
				c0,0.1-0.1,0.2-0.2,0.2c-0.1,0.1-0.1,0.2-0.2,0.3c-0.1,0.1-0.2,0.2-0.3,0.3c-0.1,0-0.1,0.1-0.2,0.1c-0.1,0-0.1,0.1-0.2,0.1
				c-0.1,0.1-0.3,0.1-0.4,0.1c-0.2,0-0.3,0-0.5,0c-0.2,0-0.3-0.1-0.4-0.1c-0.3-0.1-0.5-0.3-0.6-0.5c-0.1-0.2-0.2-0.3-0.3-0.4
				C691.1,414.2,691.1,414.1,691.1,414.1z"/>
		</g>
		<path style="fill:#976E5D;" d="M703.8,392.5c0,0,7.8,0.1,10.1,18.5l-2.7-2.3c0,0,0.6,2.8-3.4,7.9c0,0,0.6-6.5-4.7-15.7"/>
		<path style="fill:#976E5D;" d="M679,396.1"/>
		<path style="fill:#E6DACC;" d="M718.6,428.9"/>
		<g>
			<path style="fill:#E6DACC;" d="M702,439.2c-0.2,0-0.5-0.1-0.7-0.1L702,439.2L702,439.2z"/>
			<path style="fill:#E6DACC;" d="M703.2,445l-1.8,0c0.6,0,1.2-0.2,1.7-0.5L703.2,445z"/>
		</g>
	</g>
</g>
<g id="Layer_11">
	<g>
		<path style="fill:#B5784E;" d="M-404.2,248.8c0,0,0.1,8.4-8.8,12.1v3.9h-2.5l0.6-8.8l6.6-9.9"/>
		<path style="fill:#DD9E73;" d="M-419.4,263.8L-419.4,263.8c0.7-3.8,2-10.6,2.2-14.7c0.2-3.5-0.2-5.6,0.6-7c0.2-0.5,0.5-1,0.8-1.4
			l0,0c-6-5.2-5.3-14.2-5.3-14.2c3.5,10.2,9.4,11.1,9.4,11.1c7.9-3.8,21.7-2.9,21.7-2.9l-1,1.2c2.4,0.1,5.2,0.3,8.4,0.6l10.8,5.1
			c0,0,1.6,8.5-6.1,13c0,0-1.1,5.8-1.7,9.2h0.1c0.7,0,1.3,0.6,1.3,1.3c0,0.7-0.6,1.3-1.3,1.3h-3.2v-0.1v-2.6v-9.3h-4.7
			c0,0-0.7,5.4-0.4,9.3h1c0.7,0,1.3,0.6,1.3,1.3c0,0.7-0.6,1.3-1.3,1.3h-0.6h-2.6c0,0-2.7-5.6-1.6-14.1c0,0-8.5-5.4-16.2-3
			c0,0,0.9,4.1-6.7,9.2l-2,5.2h0.4c0.7,0,1.3,0.6,1.3,1.3c0,0.7-0.6,1.3-1.3,1.3h-1.4h-1.8h-0.5C-420,266.5-419.8,265.4-419.4,263.8
			L-419.4,263.8z"/>
		<path style="fill:#FEE1CC;" d="M-388.1,251.1c5.2-3.1,5.4-10.3,5.4-10.3c2.3-1.8,7.7,0.5,11,2.3c0.1,2.7-0.6,8.1-6.3,11.4
			c0,0-1.1,5.8-1.7,9.2h0.1c0.7,0,1.3,0.6,1.3,1.3c0,0.7-0.6,1.3-1.3,1.3h-3.2v-0.1v-2.6v-9.3h-4.7c0,0-0.7,5.4-0.4,9.3h1
			c0.7,0,1.3,0.6,1.3,1.3c0,0.7-0.6,1.3-1.3,1.3h-0.6h-2.6c0,0-2.1-4.5-1.8-11.5C-390.9,253.3-389.6,252-388.1,251.1z"/>
		<path style="fill:#B5784E;" d="M-411.7,262.4c0.7,0,1.3,0.6,1.3,1.3c0,0.7-0.6,1.3-1.3,1.3h-3.2v-2.7H-411.7z"/>
		<path style="fill:#A5683D;" d="M-369.7,223.7c0,0,8.8,1.5,7.4,16c-1.1,11.4-13.3,6.2-12.1-3.2"/>
		<path style="fill:#A5683D;" d="M-382.7,223.1c0,0-7,0.9-8.9,7.8c-1.9,6.9-2.1,14.3,3.4,15.2c5.4,0.9,7.9-11.9,7.9-11.9"/>
		<path style="fill:#DD9E73;" d="M-387.2,230.3c0-4.9,4.7-8.9,10.4-8.9c5.7,0,10.4,4,10.4,8.9c0,2.8-1.5,5.3-3.8,6.9
			c0,0.1,0,0.1,0,0.2c0,3.6-3.1,6.6-7,6.6c-3.9,0-7-3-7-6.6c0-0.3,0-0.6,0.1-0.9C-386.1,234.9-387.2,232.7-387.2,230.3z"/>
		<circle style="fill:#5D5E5E;" cx="-372.5" cy="232.2" r="1.4"/>
		<circle style="fill:#5D5E5E;" cx="-381.3" cy="232.2" r="1.4"/>
		<path style="fill:#FEE1CC;" d="M-377.3,244c-3.9,0-7-3-7-6.6c0-0.3,0-0.6,0.1-0.9c0,0-0.1-0.1-0.1-0.1l7.5-4.3l6.6,5
			c0,0.1,0,0.1,0,0.2C-370.3,241.1-373.4,244-377.3,244z"/>
		<path style="fill:#5D5E5E;" d="M-379.2,237.8c0,1,0.9,1.9,1.9,1.9c1.1,0,1.9-0.8,1.9-1.9c0-1-0.9-0.9-1.9-0.9
			C-378.3,236.8-379.2,236.7-379.2,237.8z"/>
		<path style="fill:#FEE1CC;" d="M-421.2,226.4c0.6,1.7,1.2,3.1,1.9,4.3c-0.4,0.4-0.8,0.8-1.4,1.1
			C-421.4,228.8-421.2,226.4-421.2,226.4z"/>
		<path style="fill:#FEE1CC;" d="M-416.6,263.8h0.4c0.7,0,1.3,0.6,1.3,1.3c0,0.7-0.6,1.3-1.3,1.3h-1.4h-1.8h-0.5c0,0,0.2-1,0.5-2.7
			v0h0c0.6-3.3,1.7-8.8,2.1-12.9c2,0.8,5.3,0.7,7.5-1.3c3.2-2.8,11.1-1.3,11.1-1.3l5.3,2.8l-0.2,0.2c-3-1.4-8.8-3.6-14.2-1.9
			c0,0,0.9,4.1-6.7,9.2L-416.6,263.8z"/>
		<path style="fill:#434343;" d="M-392.4,234.6c0,0-3.5,9.5,0.7,17.8c0,0-16.9-7.9-16.7-16.2C-408.4,236.2-401.7,234.2-392.4,234.6z
			"/>
		<path style="fill:#434343;" d="M-419.6,230.3c2.9,5.5,6.3,6.8,7.4,7.1C-413.8,237.5-418,237-419.6,230.3z"/>
	</g>
	<g>
		<path style="fill:#B5784E;" d="M852.4,447.3c0,0,0.3,17.4-18.3,25.2v8h-5.2l1.2-18.2l13.8-20.5"/>
		<path style="fill:#DD9E73;" d="M820.7,478.4L820.7,478.4c1.6-7.8,4.2-22.1,4.6-30.6c0.4-7.2-0.5-11.6,1.2-14.6c0.4-1,1-2,1.6-2.9
			l0,0c-12.4-10.8-11.1-29.4-11.1-29.4c7.3,21.3,19.5,23,19.5,23c16.4-7.8,45.2-6,45.2-6l-2.1,2.4c5.1,0.2,10.9,0.6,17.6,1.3
			l22.4,10.7c0,0,3.3,17.7-12.7,27c0,0-2.2,12-3.6,19.2h0.2c1.5,0,2.8,1.3,2.8,2.8c0,1.5-1.3,2.8-2.8,2.8h-6.7v-0.3v-5.3V459h-9.7
			c0,0-1.4,11.2-0.9,19.4h2.2c1.5,0,2.8,1.3,2.8,2.8c0,1.5-1.3,2.8-2.8,2.8h-1.3h-5.4c0,0-5.5-11.7-3.3-29.3c0,0-17.6-11.2-33.7-6.1
			c0,0,1.9,8.5-14,19l-4.1,10.7h0.8c1.6,0,2.8,1.3,2.8,2.8c0,1.5-1.3,2.8-2.8,2.8h-3h-3.8h-1.1c0,0,0.5-2.2,1.1-5.5V478.4z"/>
		<path style="fill:#FEE1CC;" d="M885.8,452c10.8-6.3,11.3-21.4,11.3-21.4c4.9-3.8,16.1,1.1,22.9,4.8c0.1,5.5-1.2,16.9-13,23.8
			c0,0-2.2,12-3.6,19.2h0.2c1.5,0,2.8,1.3,2.8,2.8c0,1.5-1.3,2.8-2.8,2.8h-6.7v-0.3v-5.3V459h-9.7c0,0-1.4,11.2-0.9,19.4h2.2
			c1.5,0,2.8,1.3,2.8,2.8c0,1.5-1.3,2.8-2.8,2.8h-1.3h-5.4c0,0-4.4-9.4-3.8-23.9C880,456.7,882.7,453.8,885.8,452z"/>
		<path style="fill:#B5784E;" d="M836.9,475.6c1.5,0,2.8,1.3,2.8,2.8c0,1.5-1.3,2.8-2.8,2.8h-6.7v-5.6H836.9z"/>
		<path style="fill:#A5683D;" d="M924,395.1c0,0,18.2,3,15.4,33.2c-2.2,23.8-27.6,12.8-25.2-6.7"/>
		<path style="fill:#A5683D;" d="M897.1,393.9c0,0-14.5,1.8-18.4,16.3c-4,14.4-4.3,29.7,7,31.5c11.3,1.8,16.5-24.8,16.5-24.8"/>
		<path style="fill:#DD9E73;" d="M887.6,408.7c0-10.2,9.7-18.6,21.6-18.6c11.9,0,21.6,8.3,21.6,18.6c0,5.8-3.1,11-7.9,14.4
			c0,0.1,0,0.3,0,0.5c0,7.6-6.5,13.7-14.6,13.7c-8.1,0-14.6-6.1-14.6-13.7c0-0.6,0-1.2,0.1-1.8C890,418.4,887.6,413.8,887.6,408.7z"
			/>
		<circle style="fill:#5D5E5E;" cx="918.3" cy="412.7" r="2.9"/>
		<circle style="fill:#5D5E5E;" cx="899.9" cy="412.7" r="2.9"/>
		<path style="fill:#FEE1CC;" d="M908.3,437.3c-8.1,0-14.6-6.1-14.6-13.7c0-0.6,0-1.2,0.1-1.8c-0.1,0-0.1-0.1-0.2-0.2l15.6-8.9
			l13.7,10.4c0,0.1,0,0.3,0,0.5C922.9,431.2,916.4,437.3,908.3,437.3z"/>
		<path style="fill:#5D5E5E;" d="M904.3,424.3c0,2.2,1.8,3.9,4,3.9c2.2,0,4-1.8,4-3.9s-1.8-1.9-4-1.9
			C906.1,422.4,904.3,422.2,904.3,424.3z"/>
		<path style="fill:#FEE1CC;" d="M817,400.8c1.2,3.5,2.5,6.5,3.9,9c-0.8,0.9-1.7,1.7-2.9,2.3C816.7,405.8,817,400.8,817,400.8z"/>
		<path style="fill:#FEE1CC;" d="M826.6,478.4h0.8c1.6,0,2.8,1.3,2.8,2.8c0,1.5-1.3,2.8-2.8,2.8h-3h-3.8h-1.1c0,0,0.5-2.2,1.1-5.5
			v-0.1h0c1.3-6.8,3.4-18.3,4.3-26.8c4.2,1.6,10.9,1.5,15.6-2.7c6.6-5.9,23-2.6,23-2.6l11,5.8l-0.4,0.4c-6.2-3-18.2-7.4-29.5-3.9
			c0,0,1.9,8.5-14,19L826.6,478.4z"/>
		<path style="fill:#434343;" d="M877,417.7c0,0-7.2,19.7,1.5,37.1c0,0-35.1-16.4-34.7-33.6C843.7,421.1,857.6,417,877,417.7z"/>
		<path style="fill:#434343;" d="M820.4,408.9c5.9,11.4,13.1,14.2,15.4,14.8C832.4,423.8,823.6,422.7,820.4,408.9z"/>
	</g>
</g>
</svg>
