<?xml version="1.0" encoding="utf-8"?>
<!-- Generator: Adobe Illustrator 19.0.0, SVG Export Plug-In . SVG Version: 6.00 Build 0)  -->
<svg version="1.1" xmlns="http://www.w3.org/2000/svg" xmlns:xlink="http://www.w3.org/1999/xlink" x="0px" y="0px" width="652.3px"
	 height="141.1px" viewBox="0 0 652.3 141.1" style="enable-background:new 0 0 652.3 141.1;" xml:space="preserve">
<g id="Layer_1">
	<path style="fill:#FFFFFF;" d="M72.2,87.9c-1.8,0-3.7,0.2-5.4,0.5c-4.3-8.3-13-14-22.9-14c-14.3,0-25.8,11.6-25.8,25.8
		c0,0.4,0,0.8,0.1,1.1C8,102.3,0,110.8,0,121.2C0,132.1,8.9,141,19.8,141v0.1H68V141c0.4,0,0.9,0,1.3-0.1c1,0.1,2,0.2,3,0.2
		c14.7,0,26.6-11.9,26.6-26.6S86.9,87.9,72.2,87.9z"/>
	<path style="fill:#FFFFFF;" d="M446.7,36.5c-1.7,0-3.4,0.2-5,0.5c-4-7.7-12-13-21.3-13c-13.3,0-24,10.7-24,24c0,0.4,0,0.7,0.1,1.1
		c-9.4,0.8-16.8,8.7-16.8,18.3c0,10.2,8.2,18.4,18.4,18.4v0.1h44.7v-0.1c0.4,0,0.8,0,1.2-0.1c0.9,0.1,1.8,0.2,2.7,0.2
		c13.6,0,24.7-11.1,24.7-24.7S460.4,36.5,446.7,36.5z"/>
	<path style="fill:#FFFFFF;" d="M618.6,22.9c-2.3,0-4.6,0.2-6.8,0.7c-5.5-10.5-16.4-17.7-29.1-17.7c-18.1,0-32.8,14.7-32.8,32.8
		c0,0.5,0.1,1,0.1,1.5c-12.9,1.1-23,11.9-23,25c0,13.9,11.2,25.1,25.1,25.1v0.1h61.1v-0.1c0.6,0,1.1,0,1.6-0.1
		c1.2,0.1,2.5,0.2,3.8,0.2c18.6,0,33.7-15.1,33.7-33.7C652.3,38,637.2,22.9,618.6,22.9z"/>
	<path style="fill:#FFFFFF;" d="M178.6,9.7c-1.3,0-2.6,0.1-3.9,0.4c-3.1-6-9.4-10.1-16.6-10.1c-10.3,0-18.7,8.4-18.7,18.7
		c0,0.3,0,0.6,0,0.8c-7.3,0.6-13.1,6.8-13.1,14.2c0,7.9,6.4,14.3,14.3,14.3v0.1h34.8v-0.1c0.3,0,0.6,0,0.9,0
		c0.7,0.1,1.4,0.1,2.1,0.1c10.6,0,19.2-8.6,19.2-19.2C197.8,18.3,189.2,9.7,178.6,9.7z"/>
</g>
<g id="_x34_th_building">
	<g id="Layer_8">
	</g>
</g>
<g id="_x33_rd_building">
</g>
<g id="_x32_nd_house">
</g>
<g id="_x31_st_house">
	<rect x="-44.7" y="-196.7" style="fill:none;" width="756.9" height="97.8"/>
	
		<text transform="matrix(1 0 0 1 107.4793 -104.161)" style="display:none;fill:#E62550; font-family:'Mairy-Black'; font-size:162.9779px;">CityPup</text>
</g>
<g id="Layer_2">
</g>
<g id="Layer_3">
</g>
<g id="Layer_9">
</g>
<g id="Layer_10">
</g>
<g id="Layer_11" style="display:none;">
	<g style="display:inline;">
		<rect x="-386.5" y="-324.6" style="fill:#9AD6D4;" width="1440.2" height="751.5"/>
		<g>
			<path style="fill:#259B48;" d="M798.3,261.7c0,36.4-18.9,65.9-42.2,65.9S714,298.2,714,261.7c0-36.4,19-85.9,42.3-85.9
				C779.6,175.9,798.3,225.3,798.3,261.7z"/>
			<polygon style="fill:#532E14;" points="767.6,390.5 744.8,390.5 756.2,250.2 			"/>
		</g>
		<path style="fill:#257D3E;" d="M-57.8,262.8c0,34.5-17.9,62.5-40,62.5c-22.1,0-40-28-40-62.5c0-34.5,18.1-81.5,40.2-81.5
			C-75.5,181.3-57.8,228.2-57.8,262.8z"/>
		<polygon style="fill:#532E14;" points="-87.7,375 -107.7,375 -97.7,251.9 		"/>
		<g>
			<path style="fill:#259B48;" d="M-5,293.7c0,26.8-13.9,48.5-31,48.5c-17.1,0-31-21.7-31-48.5c0-26.8,14-63.1,31.1-63.1
				S-5,266.9-5,293.7z"/>
			<polygon style="fill:#532E14;" points="-28.7,374.5 -43.2,374.5 -36,285.4 			"/>
		</g>
		<g>
			<path style="fill:#257D3E;" d="M742.3,295.2c0,22.9-11.9,41.5-26.6,41.5c-14.7,0-26.6-18.6-26.6-41.5c0-22.9,12-54.1,26.7-54.1
				S742.3,272.2,742.3,295.2z"/>
			<polygon style="fill:#532E14;" points="723,376.3 708.7,376.3 715.8,287.9 			"/>
		</g>
		<rect x="-386.4" y="379.3" style="fill:#3D8B42;" width="1440.5" height="139.5"/>
		<rect x="357.8" y="298.6" style="fill:#67847B;" width="34.1" height="2.7"/>
		<rect x="356.8" y="338.2" style="fill:#FFFFFF;" width="36.1" height="3.1"/>
		<g>
			<rect x="5.5" y="226.7" style="fill:#744878;" width="99.5" height="148.7"/>
			<rect x="-1.7" y="217.2" style="fill:#524757;" width="114.2" height="11.3"/>
			<path style="fill:#C4C4C3;" d="M84.4,302.5c-0.2-6.5-5.5-11.6-12-11.6c-6.5,0-11.8,5.2-12,11.6l-0.1,47.2h24.1L84.4,302.5
				L84.4,302.5z"/>
			<path style="fill:#C4C4C3;" d="M46.9,302.5c-0.2-6.5-5.5-11.6-12-11.6c-6.5,0-11.8,5.2-12,11.6l-0.1,47.2H47L46.9,302.5
				L46.9,302.5z"/>
			<rect x="5.5" y="228.6" style="fill:#37303A;" width="99.5" height="5.2"/>
		</g>
		<rect x="-157.4" y="375" style="fill:#A5C4BC;" width="955.2" height="15.3"/>
		<rect x="-386.2" y="375" style="fill:#424242;" width="1440.2" height="15.3"/>
		<g>
			<rect x="-16.9" y="368.2" style="fill:#AD1F24;" width="7.2" height="70.3"/>
			<rect x="101" y="368.2" style="fill:#AD1F24;" width="7.2" height="70.3"/>
			<rect x="-24.5" y="370.8" style="fill:#F4967D;" width="140.9" height="15"/>
			<rect x="-24.5" y="390.3" style="fill:#F4967D;" width="140.9" height="15"/>
			<rect x="-23.3" y="409.9" style="fill:#D86A50;" width="140.9" height="9.7"/>
			<rect x="-20.1" y="437.8" style="fill:#AD1F24;" width="13.6" height="2.4"/>
			<rect x="97.8" y="437.8" style="fill:#AD1F24;" width="13.6" height="2.4"/>
			<circle style="fill:#FAC0B4;" cx="-13.3" cy="378.3" r="2.2"/>
			<circle style="fill:#FAC0B4;" cx="-13.3" cy="397.9" r="2.2"/>
			<circle style="fill:#FAC0B4;" cx="104.6" cy="378.3" r="2.2"/>
			<circle style="fill:#FAC0B4;" cx="104.6" cy="397.9" r="2.2"/>
			<rect x="-23.3" y="414.7" style="fill:#B34B3D;" width="140.9" height="4.8"/>
		</g>
		<g>
			<g>
				<rect x="105.1" y="276.6" style="fill:#BB2161;" width="122.3" height="98.4"/>
				<rect x="173.4" y="306.3" style="fill:#C4C4C3;" width="29.3" height="51.9"/>
				<polygon style="fill:#AE1F5A;" points="166.2,277.2 227.3,276.6 166.2,189.5 166.2,189.4 166.2,189.5 166.1,189.4 166.1,189.5 
					105.1,276.6 166.1,277.2 166.1,277.2 166.2,277.2 166.2,277.2 				"/>
				<rect x="126.6" y="306.3" style="fill:#C4C4C3;" width="29.3" height="51.9"/>
			</g>
			<path style="fill:#C4C4C3;" d="M166.2,252.7c-12.7,0-23,10.3-23,23h46.1C189.2,263.1,178.9,252.7,166.2,252.7z"/>
		</g>
		<g>
			<g>
				<rect x="261" y="128.3" style="fill:#C0593D;" width="10.8" height="12.8"/>
				<rect x="224.2" y="128.3" style="fill:#C0593D;" width="10.8" height="12.8"/>
				<rect x="224.2" y="141.1" style="fill:#E4A638;" width="84.3" height="233.9"/>
				<polygon style="fill:#EA4B36;" points="308.6,133 210.3,133 308.6,65 				"/>
				<polyline style="fill:#B18232;" points="303,271.7 295.7,271.7 273.1,288.3 273.1,292.7 296.4,292.7 296.6,375 308.6,375 				
					"/>
				<rect x="235" y="205.1" style="fill:#C4C4C3;" width="13.4" height="43.2"/>
				<rect x="259.7" y="205.1" style="fill:#C4C4C3;" width="13.4" height="43.2"/>
				<rect x="283.9" y="205.1" style="fill:#C4C4C3;" width="13.4" height="43.2"/>
				<path style="fill:#C4C4C3;" d="M266.4,163c-12.7,0-23,10.3-23,23h46.1C289.4,173.3,279.1,163,266.4,163z"/>
				<rect x="224.2" y="151.5" style="fill:#EA4B36;" width="84.3" height="6.2"/>
				<rect x="224.2" y="133" style="fill:#C0593D;" width="10.8" height="2.8"/>
				<rect x="261" y="133" style="fill:#C0593D;" width="10.8" height="2.8"/>
				<path style="fill:#C4C4C3;" d="M263.1,311.9c-5.2,0-9.4,4.2-9.4,9.4v32.3h18.7v-32.3C272.4,316.1,268.3,311.9,263.1,311.9z"/>
				<rect x="247.6" y="353.7" style="fill:#C0593D;" width="30.9" height="5.4"/>
				<rect x="242.2" y="359.1" style="fill:#C0593D;" width="41.7" height="5.4"/>
				<rect x="236.8" y="364.5" style="fill:#C0593D;" width="52.6" height="5.4"/>
				<rect x="231.4" y="370" style="fill:#C0593D;" width="63.3" height="5.4"/>
			</g>
			<rect x="224.2" y="141.1" style="fill:#EB7A53;" width="84.3" height="10.4"/>
		</g>
		<g>
			<polygon style="fill:#415A7B;" points="413.9,141.1 333.5,201.9 347.8,201.9 347.8,288.5 303.4,288.5 303.4,375 347.8,375 
				480,375 480,201.9 494.3,201.9 			"/>
			<rect x="368.3" y="214.3" style="fill:#C4C4C3;" width="30.4" height="50.4"/>
			<rect x="429.1" y="214.3" style="fill:#C4C4C3;" width="30.4" height="50.4"/>
			<rect x="319.1" y="317.3" style="fill:#C4C4C3;" width="23.2" height="40.9"/>
			<polygon style="fill:#415A7B;" points="480,271.7 480,292.7 284.3,292.7 284.3,288.5 303.4,271.7 			"/>
			<rect x="429.1" y="298.6" style="fill:#C4C4C3;" width="30.4" height="41.9"/>
			<rect x="303.4" y="292.7" style="fill:#2F323D;" width="173.4" height="8.5"/>
			<rect x="372.9" y="339.4" style="fill:#37303A;" width="30.5" height="4.8"/>
			<rect x="428.6" y="339.4" style="fill:#37303A;" width="30.6" height="4.8"/>
			<rect x="429" y="298.6" style="fill:#67847B;" width="30.6" height="2.7"/>
			<rect x="425.8" y="338.2" style="fill:#3B97D3;" width="36.1" height="3.1"/>
			<rect x="372.9" y="298.6" style="fill:#C4C4C3;" width="30.4" height="41.9"/>
			<rect x="372.9" y="298.6" style="fill:#67847B;" width="30.6" height="2.7"/>
			<rect x="369.7" y="338.2" style="fill:#3B97D3;" width="36.1" height="3.1"/>
		</g>
		<g>
			<rect x="661.1" y="297.2" style="fill:#EB7A53;" width="9.6" height="77.8"/>
			<g>
				<rect x="505.7" y="226.7" style="fill:#D33227;" width="135.5" height="50.6"/>
				<g>
					<g>
						<g>
							<polygon style="fill:#DA6041;" points="663.2,230.5 483.8,230.5 573.5,167.9 							"/>
						</g>
					</g>
				</g>
				<g>
					<g>
						<g>
							<polygon style="fill:#D33227;" points="641.2,230.5 505.7,230.5 573.5,183.7 							"/>
						</g>
					</g>
				</g>
				<rect x="481" y="276.6" style="fill:#E03729;" width="184.9" height="98.4"/>
				<polyline style="fill:#A02822;" points="573.5,264.7 532.5,292.7 532.5,301.7 612.9,301.7 612.9,287 				"/>
				<rect x="563.6" y="201.9" style="fill:#C4C4C3;" width="19.7" height="24.7"/>
				<rect x="485.8" y="297.2" style="fill:#A02822;" width="180.1" height="9.2"/>
				<rect x="527.5" y="239.6" style="fill:#C4C4C3;" width="19.7" height="29.6"/>
				<rect x="599.6" y="239.6" style="fill:#C4C4C3;" width="19.7" height="29.6"/>
				<rect x="615.3" y="306.3" style="fill:#C4C4C3;" width="19.7" height="41.9"/>
				<rect x="638.6" y="306.3" style="fill:#C4C4C3;" width="19.7" height="41.9"/>
				<rect x="494.3" y="306.3" style="fill:#C4C4C3;" width="19.7" height="41.9"/>
				<rect x="517.6" y="306.3" style="fill:#C4C4C3;" width="19.7" height="41.9"/>
				<rect x="566" y="310.2" style="fill:#C4C4C3;" width="19.7" height="38"/>
				<path style="fill:#DA6041;" d="M681.9,284.3L681.9,284.3l-11.3-7.8h-64.5L576,256l-30.2,20.6h-64.5l-11.2,7.8v12.8h45.5l0,0
					h25.1l9.4-6.4h17.3c0,0,17.3,0,17.3,0h17.3l9.4,6.4h25.1l0,0h45.5V284.3z"/>
				<rect x="476.2" y="297.2" style="fill:#DA6041;" width="9.6" height="77.8"/>
				<rect x="666" y="297.2" style="fill:#DA6041;" width="9.6" height="77.8"/>
				<rect x="531.1" y="297.2" style="fill:#DA6041;" width="9.6" height="77.8"/>
				<rect x="609.9" y="292.9" style="fill:#DA6041;" width="9.6" height="82.1"/>
			</g>
		</g>
		<g>
			<path style="fill:#E8DCC4;" d="M546.7,358.2c0,0-9.3-8.4-12.2-12.7c-2.9-4.3-5.4,16.7,1.1,25
				C542.2,378.9,547.9,364.4,546.7,358.2z"/>
			<rect x="611.1" y="413.7" style="fill:#C6C6C5;" width="14.5" height="34.6"/>
			<path style="fill:#C6C6C5;" d="M625.7,452.4c0,2.3-1.7,4.1-3.9,4.1h-9.9c-2.2,0-3.9-1.9-3.9-4.1l0,0c0-2.3,1.7-4.1,3.9-4.1h9.9
				C623.9,448.3,625.7,450.1,625.7,452.4L625.7,452.4z"/>
			<polygon style="fill:#C6C6C5;" points="623.1,452 614.9,456.2 614.1,443.7 622.4,443.7 			"/>
			<path style="fill:#F5F4F0;" d="M573.3,373.7c0,9.7-8.5,17.6-19,17.6c-10.5,0-18.9-7.9-18.9-17.6c0-9.7,8.5-16.8,18.9-16.8
				C564.8,356.9,573.3,364,573.3,373.7z"/>
			<path style="fill:#E8DCC4;" d="M573.2,371.5l-0.1-0.2c4.1-16.8,0.2-26.3,0.2-26.3c-7.9,3.6-10.7,13.6-10.7,13.6
				S569.7,364.4,573.2,371.5C573.1,371.5,573.1,371.5,573.2,371.5z"/>
			<path style="fill:#5D5E5E;" d="M547.5,372.1c0,1.3-1.1,2.4-2.4,2.4c-1.3,0-2.4-1.1-2.4-2.4c0-1.3,1.1-2.4,2.4-2.4
				C546.5,369.7,547.5,370.8,547.5,372.1z"/>
			<path style="fill:#5D5E5E;" d="M562.6,372.1c0,1.3-1.1,2.4-2.4,2.4c-1.3,0-2.4-1.1-2.4-2.4c0-1.3,1.1-2.4,2.4-2.4
				C561.5,369.7,562.6,370.8,562.6,372.1z"/>
			<path style="fill:#F5F4F0;" d="M535.5,375.5c0,0-2.7,0.8-3,5.7c-0.3,4.9,9.7,16.1,21.8,14c12.1-2.1,27.3-10.7,18.5-17.8"/>
			<rect x="540.6" y="418.4" style="fill:#F5F4F0;" width="14.5" height="34.6"/>
			<path style="fill:#F5F4F0;" d="M555.1,457.2c0,2.3-1.7,4.1-3.9,4.1h-9.9c-2.2,0-3.9-1.9-3.9-4.1l0,0c0-2.3,1.7-4.1,3.9-4.1h9.9
				C553.3,453,555.1,454.9,555.1,457.2L555.1,457.2z"/>
			<polygon style="fill:#F5F4F0;" points="555.1,457.2 546.8,461.3 546.8,448.5 555.1,448.5 			"/>
			<rect x="566.3" y="418.4" style="fill:#F5F4F0;" width="14.5" height="34.6"/>
			<path style="fill:#F5F4F0;" d="M580.9,457.2c0,2.3-1.7,4.1-3.9,4.1H567c-2.2,0-3.9-1.9-3.9-4.1l0,0c0-2.3,1.7-4.1,3.9-4.1h9.9
				C579.1,453,580.9,454.9,580.9,457.2L580.9,457.2z"/>
			<polygon style="fill:#F5F4F0;" points="580.8,457.2 572.6,461.3 572.6,448.5 580.8,448.5 			"/>
			<g>
				<rect x="620" y="418.4" style="fill:#F5F4F0;" width="14.5" height="34.6"/>
				<path style="fill:#F5F4F0;" d="M634.5,457.2c0,2.3-1.7,4.1-3.9,4.1h-9.9c-2.2,0-3.9-1.9-3.9-4.1l0,0c0-2.3,1.7-4.1,3.9-4.1h9.9
					C632.8,453,634.5,454.9,634.5,457.2L634.5,457.2z"/>
				<polygon style="fill:#F5F4F0;" points="634.5,457.2 626.2,461.3 626.2,448.5 634.5,448.5 				"/>
			</g>
			<path style="fill:#F5F4F0;" d="M616.1,398.1"/>
			<path style="fill:#F5F4F0;" d="M620,399.8c0,0,14.8,2.1,18,11.9c3.2,9.8,10.3,16.9,18.2,9.2c7.9-7.6,8.2-11.8,8.2-11.8
				s2.4,17.5-4.9,22.7h2.7c0,0-20.4,17.5-27.6-7.2"/>
			<path style="fill:#F5F4F0;" d="M634.3,421.3c0.1-0.9,0.2-1.9,0.2-2.9c0-10.3-7.5-18.6-16.8-18.6c-0.2,0-0.3,0-0.5,0l0,0h-18.3
				c0,0-18.5-1-26.9-19.7c-8.4-18.8-4.6,12-16.5,14.3l-18.3-9.3c0,0-2.5,20.2,0.3,35.4c0,0,3,16.6,33.2,16.6h13h3.3
				c5.9-0.1,15.1-0.6,22.8-2.3c0,0,0.1,0,0.1,0.1c1.9-0.4,4.1-1,6.1-1.9c1.5-0.6,2.9-1.3,4-2.1v4.8v1.1v0.2h7.9
				c3.7,0,6.6-3.3,6.6-7.5v-8.3L634.3,421.3z"/>
			<path style="fill:#F5F4F0;" d="M536.8,389c0,0-3.2,5.2-2.6,11.7l1.1-2.6c0,0-2.1,7.4,1.1,13.8l8.7-7"/>
			<path style="fill:#E8DCC4;" d="M617.7,399.8c-0.2,0-0.3,0-0.5,0l0,0h-18.3c0,0-13.8-0.7-23-13l0,0c0,0,11.4,14.9,9.4,32.1
				c-0.7,6,11.5,12.5,14.4,1.9c3-10.6,16.5-7.9,18.8-1.9c2.3,6,11.7,4.7,13.5-0.5c0.5-1.4,1.2-2.8,1.9-4.4
				C632.2,405.8,625.6,399.8,617.7,399.8z"/>
			<g>
				<path style="fill:#5D5E5E;" d="M551.9,382.6c0,1.4-1,2.5-2.3,2.5s-2.3-1.1-2.3-2.5s1-1.4,2.3-1.4S551.9,381.2,551.9,382.6z"/>
				<path style="fill:#5D5E5E;" d="M548.5,384.8c0,0,0.8,2.1-2.9,2c0,0,7.4,2.4,11.2-2c0,0-6.3,4-7.2-1.6"/>
				<path style="fill:#5D5E5E;" d="M548,387.2c0,0,1.6,3.1,5-0.2"/>
			</g>
			<path style="fill:#E0DFDA;" d="M540.6,392.1c0,0-2.4,7.4,0,11l2.2-2.6c0,0-1.5,6.7,2.4,13.2l2.8-1.8c0,0,6.6,9.2,9.9,11.1
				c0,0,6.9-4,5.3-13.4h3.2l-1.5-6.2c0,0,1.9-2.2,3.9-1.2l-2.4-6.8h2.4c0,0-1-1.7-2.4-4.2S554.1,402.2,540.6,392.1"/>
		</g>
		<g>
			<path style="fill:#976E5D;" d="M143.7,407.3c0,0-4.8,11.9,2.4,21.4l2.7-5.7"/>
			<path style="fill:#976E5D;" d="M204.1,413.5c0,0,13.5,4.7,11,19.7l-3.2-2"/>
			<g>
				<polygon style="fill:#B5A699;" points="204.8,446.7 199,446.8 199,441.7 204.1,441.7 				"/>
				<path style="fill:#B5A699;" d="M201.8,444.3c0,1.4-1.2,2.5-2.8,2.5c-1.5,0-2.8-1.1-2.8-2.5c0-1.4,1.2-2.5,2.8-2.5
					C200.5,441.7,201.8,442.9,201.8,444.3z"/>
			</g>
			<path style="fill:#B5A699;" d="M192.8,432.8c0,0-1,6.7,6.2,8.3l0.5,2.4h5.5l-1.8-10.7l-7.1-5.6"/>
			<path style="fill:#B5A699;" d="M177.3,437.3c0,0-0.5,8.9-6.9,8.3c-6.4-0.5,1.3-12.4,1.3-12.4"/>
			<path style="fill:#E6DACC;" d="M211.7,427.6c-0.2-0.9-0.5-1.7-0.9-2.5l0.7-1.3c0,0,0,0,0,0C211.8,425.2,211.8,426.5,211.7,427.6z
				"/>
			<path style="fill:#E6DACC;" d="M211.7,427.6c-0.2-0.9-0.5-1.7-0.9-2.5l0.7-1.3c0,0,0,0,0,0C211.8,425.2,211.8,426.5,211.7,427.6z
				"/>
			<g>
				<path style="fill:#F7EEE7;" d="M204.2,443.6c-0.2-0.1-0.5-0.1-0.7-0.1L204.2,443.6L204.2,443.6z"/>
				<path style="fill:#F7EEE7;" d="M205.4,448.5l-1.8,0c0.6,0,1.2-0.2,1.6-0.6L205.4,448.5z"/>
				<path style="fill:#F7EEE7;" d="M209.8,438.1l0.8,3.8l-0.6,6.6h-4.7l0,0l-0.1-0.6c-0.4,0.3-1,0.6-1.6,0.6c0,0-0.1,0-0.1,0
					c-1.5,0-2.8-1.1-2.8-2.5c0-1.4,1.2-2.5,2.8-2.5c0.2,0,0.5,0,0.7,0.1l0-0.1l-1-4l0,0c-3.5-0.3-6.4-3.3-7.2-7.2
					c-2,0.2-3.8,0.6-5.3,1.4c-7.7,4-16.8,4-16.8,4c0.4,5.6-3,8.5-3,8.5l-1.5,2.4l-4.2,0.1l-0.1-0.4c-0.4,0.3-1,0.4-1.5,0.4
					c-1.5,0-2.8-1.1-2.8-2.5c0-1.4,1.2-2.5,2.8-2.5c0.2,0,0.4,0,0.6,0.1l0-0.1l-1.2-5.8c-8.5-2.7-9.3-11.6-9.3-11.6l0.1-0.1
					c-3.3-0.7-4.6-2.5-4.6-2.5l-1,1c-1.7-1.7-1.8-4.2-1.8-4.2l-0.9,1.4c-1.3-1.2-1.4-5.3-1.4-5.3l-0.9,1.4c-1.3-3.7,0.8-7.4,0.8-7.4
					l0.1,0c0-0.1,0-0.1,0-0.2l-1.3,0.5c0.5-4.5,3.4-6.1,3.6-6.1c1.4-1.9,3.5-3.4,5.8-4.2l-0.1-0.1c0,0,6.8-2.6,15.3,1.2l-3,0.6
					c0,0,1.8-0.1,4.2,2.4c-0.1-0.1-1-0.6-3.4-0.3c0,0,0,0.1,0.1,0.1c1.6,2,2.6,4.6,2.6,7.4c0,1.2-0.2,2.4-0.5,3.5
					c0.8-0.2,1.7-0.4,2.7-0.7c1.5-0.4,3.3-0.7,5.1-1.1h0c0,0,6-2.1,8.9-2.2l-0.9,0.9l-0.3,0.3c0,0,0.4-0.2,1-0.4
					c1.5-0.5,4.2-1.4,6.3-1.4l-0.3,0.9c6.9-0.3,13.3,0.5,16.6,3.7c3,2.8,4.5,5.9,5,8.6l-0.7,1.3c0.4,0.8,0.7,1.6,0.9,2.5
					c0.1-1.2,0.1-2.4-0.2-3.8C213.4,432.6,209.8,438.1,209.8,438.1z"/>
			</g>
			<polygon style="fill:#E6DACC;" points="169.4,448.5 165.2,448.6 165.2,448.5 			"/>
			<path style="fill:#E6DACC;" d="M183.8,412c-0.6,0.2-1,0.4-1,0.4l0.3-0.3C183.3,412,183.6,412,183.8,412z"/>
			<path style="fill:#E6DACC;" d="M170,414.4c-1,0.2-1.9,0.5-2.7,0.7c0.3-1.1,0.5-2.3,0.5-3.5c0-2.8-1-5.4-2.6-7.4l0.4-0.1
				C170,409.3,170,412.5,170,414.4z"/>
			<path style="fill:#3A3A3A;" d="M151.5,413.8c0,0.8-0.6,1.4-1.4,1.4c-0.8,0-1.4-0.6-1.4-1.4c0-0.8,0.6-1.4,1.4-1.4
				C150.9,412.4,151.5,413,151.5,413.8z"/>
			<path style="fill:#3A3A3A;" d="M161.3,412.9c0,0.8-0.6,1.4-1.4,1.4c-0.8,0-1.4-0.6-1.4-1.4c0-0.8,0.6-1.4,1.4-1.4
				C160.7,411.5,161.3,412.2,161.3,412.9z"/>
			<path style="fill:#3A3A3A;" d="M156.1,420c0,1-0.8,1.8-1.9,1.8c-1,0-1.9-0.8-1.9-1.8c0-1,0.8-1.2,1.9-1.2
				C155.3,418.8,156.1,419.1,156.1,420z"/>
			<g>
				<path style="fill:#3A3A3A;" d="M154.7,421.7c0,0,0,0.1,0,0.2c0,0.1-0.1,0.2-0.2,0.4c-0.1,0.2-0.3,0.3-0.5,0.5
					c-0.1,0.1-0.2,0.1-0.3,0.2c-0.1,0-0.3,0.1-0.4,0.1c-0.1,0-0.3,0-0.4,0c-0.1,0-0.1,0-0.2-0.1c-0.1,0-0.1,0-0.2-0.1
					c-0.1-0.1-0.2-0.1-0.3-0.2c-0.1-0.1-0.2-0.1-0.2-0.2c-0.1-0.1-0.1-0.1-0.2-0.2c-0.1-0.1-0.1-0.1-0.1-0.2
					c-0.1-0.1-0.1-0.1-0.1-0.1s0.1,0,0.1,0.1c0.1,0.1,0.2,0.1,0.4,0.2c0.1,0,0.2,0.1,0.2,0.1c0.1,0,0.2,0.1,0.3,0.1
					c0.1,0,0.2,0.1,0.3,0.1c0.1,0,0.2,0,0.3,0c0.2,0,0.4-0.1,0.6-0.2c0.1-0.1,0.2-0.1,0.3-0.2c0.1-0.1,0.2-0.1,0.2-0.2
					c0.1-0.1,0.2-0.2,0.3-0.3C154.6,421.7,154.7,421.7,154.7,421.7z"/>
				<path style="fill:#3A3A3A;" d="M154.7,421.7c0,0,0,0,0.1,0.1c0.1,0.1,0.2,0.2,0.3,0.3c0.1,0,0.2,0.1,0.2,0.1
					c0.1,0,0.2,0.1,0.3,0.1c0.2,0.1,0.4,0.1,0.6,0.1c0.1,0,0.2,0,0.3-0.1c0.1,0,0.2-0.1,0.3-0.1c0.1,0,0.2-0.1,0.3-0.2
					c0.1-0.1,0.2-0.1,0.2-0.2c0.1-0.1,0.3-0.2,0.3-0.3c0.1-0.1,0.1-0.1,0.1-0.1s0,0.1-0.1,0.2c0,0-0.1,0.1-0.1,0.2
					c0,0.1-0.1,0.1-0.1,0.2c-0.1,0.1-0.1,0.2-0.2,0.2c-0.1,0.1-0.2,0.2-0.3,0.2c0,0-0.1,0.1-0.2,0.1c-0.1,0-0.1,0.1-0.2,0.1
					c-0.1,0.1-0.3,0.1-0.4,0.1c-0.1,0-0.3,0-0.4,0c-0.1,0-0.3-0.1-0.4-0.1c-0.2-0.1-0.4-0.3-0.5-0.4c-0.1-0.1-0.2-0.3-0.3-0.4
					C154.7,421.8,154.7,421.7,154.7,421.7z"/>
			</g>
			<path style="fill:#976E5D;" d="M165.8,402.8c0,0,6.8,0.1,8.8,16.1l-2.4-2c0,0,0.5,2.4-3,6.9c0,0,0.5-5.7-4.1-13.7"/>
			<path style="fill:#976E5D;" d="M144.2,405.9"/>
			<path style="fill:#E6DACC;" d="M178.7,434.6"/>
			<g>
				<path style="fill:#E6DACC;" d="M164.2,443.6c-0.2,0-0.4-0.1-0.6-0.1L164.2,443.6L164.2,443.6z"/>
				<path style="fill:#E6DACC;" d="M165.2,448.5l-1.6,0c0.6,0,1.1-0.2,1.5-0.4L165.2,448.5z"/>
			</g>
		</g>
		<g>
			<path style="fill:#B5784E;" d="M295.2,456.6c0,0,0.2,15.1-15.9,21.9v7h-4.5l1.1-15.8l12-17.9"/>
			<path style="fill:#DD9E73;" d="M267.6,483.7L267.6,483.7c1.4-6.8,3.6-19.2,4-26.7c0.3-6.3-0.4-10.1,1-12.7
				c0.4-0.9,0.9-1.7,1.4-2.5l0,0c-10.8-9.5-9.7-25.6-9.7-25.6c6.3,18.5,17,20,17,20c14.3-6.8,39.4-5.2,39.4-5.2L319,433
				c4.4,0.2,9.5,0.5,15.3,1.1l19.6,9.3c0,0,2.9,15.4-11.1,23.5c0,0-1.9,10.4-3.1,16.7h0.2c1.3,0,2.4,1.1,2.4,2.4
				c0,1.3-1.1,2.4-2.4,2.4H334v-0.2v-4.6v-16.9h-8.5c0,0-1.2,9.7-0.8,16.9h1.9c1.3,0,2.4,1.1,2.4,2.4c0,1.3-1.1,2.4-2.4,2.4h-1.1
				h-4.7c0,0-4.8-10.2-2.9-25.5c0,0-15.4-9.8-29.3-5.3c0,0,1.7,7.4-12.2,16.6l-3.6,9.4h0.7c1.4,0,2.4,1.1,2.4,2.4
				c0,1.3-1.1,2.4-2.4,2.4h-2.6h-3.3h-1C266.6,488.5,267,486.7,267.6,483.7L267.6,483.7z"/>
			<path style="fill:#FEE1CC;" d="M324.3,460.7c9.4-5.5,9.8-18.6,9.8-18.6c4.2-3.3,14,1,20,4.2c0.1,4.8-1.1,14.7-11.3,20.7
				c0,0-1.9,10.4-3.1,16.7h0.2c1.3,0,2.4,1.1,2.4,2.4c0,1.3-1.1,2.4-2.4,2.4H334v-0.2v-4.6v-16.9h-8.5c0,0-1.2,9.7-0.8,16.9h1.9
				c1.3,0,2.4,1.1,2.4,2.4c0,1.3-1.1,2.4-2.4,2.4h-1.1h-4.7c0,0-3.9-8.1-3.3-20.8C319.3,464.8,321.6,462.3,324.3,460.7z"/>
			<path style="fill:#B5784E;" d="M281.7,481.2c1.3,0,2.4,1.1,2.4,2.4c0,1.3-1.1,2.4-2.4,2.4h-5.9v-4.9H281.7z"/>
			<path style="fill:#A5683D;" d="M357.6,411.1c0,0,15.9,2.7,13.4,28.9c-2,20.7-24,11.2-22-5.8"/>
			<path style="fill:#A5683D;" d="M334.2,410.1c0,0-12.6,1.6-16.1,14.2c-3.5,12.6-3.7,25.9,6.1,27.4c9.8,1.6,14.4-21.6,14.4-21.6"/>
			<path style="fill:#DD9E73;" d="M325.9,423c0-8.9,8.4-16.2,18.8-16.2c10.4,0,18.8,7.2,18.8,16.2c0,5.1-2.7,9.6-6.9,12.5
				c0,0.1,0,0.3,0,0.4c0,6.6-5.7,12-12.7,12c-7,0-12.7-5.4-12.7-12c0-0.5,0-1.1,0.1-1.6C328,431.4,325.9,427.4,325.9,423z"/>
			<circle style="fill:#5D5E5E;" cx="352.6" cy="426.5" r="2.5"/>
			<circle style="fill:#5D5E5E;" cx="336.6" cy="426.5" r="2.5"/>
			<path style="fill:#FEE1CC;" d="M343.9,447.9c-7,0-12.7-5.4-12.7-12c0-0.5,0-1.1,0.1-1.6c-0.1,0-0.1-0.1-0.2-0.1l13.6-7.7
				l11.9,9.1c0,0.1,0,0.3,0,0.4C356.7,442.5,351,447.9,343.9,447.9z"/>
			<path style="fill:#5D5E5E;" d="M340.5,436.6c0,1.9,1.6,3.4,3.5,3.4c1.9,0,3.5-1.5,3.5-3.4c0-1.9-1.6-1.7-3.5-1.7
				C342,434.9,340.5,434.7,340.5,436.6z"/>
			<path style="fill:#FEE1CC;" d="M264.4,416.1c1,3.1,2.2,5.7,3.4,7.9c-0.7,0.8-1.5,1.5-2.5,2C264.1,420.4,264.4,416.1,264.4,416.1z
				"/>
			<path style="fill:#FEE1CC;" d="M272.8,483.7h0.7c1.4,0,2.4,1.1,2.4,2.4c0,1.3-1.1,2.4-2.4,2.4h-2.6h-3.3h-1c0,0,0.4-1.9,1-4.8
				v-0.1h0c1.2-5.9,3-15.9,3.7-23.4c3.7,1.4,9.5,1.3,13.6-2.4c5.8-5.1,20-2.3,20-2.3l9.6,5l-0.3,0.4c-5.4-2.6-15.9-6.5-25.7-3.4
				c0,0,1.7,7.4-12.2,16.6L272.8,483.7z"/>
			<path style="fill:#434343;" d="M316.6,430.8c0,0-6.3,17.2,1.3,32.3c0,0-30.6-14.3-30.3-29.3C287.7,433.8,299.8,430.2,316.6,430.8
				z"/>
			<path style="fill:#434343;" d="M267.4,423.1c5.2,9.9,11.4,12.3,13.4,12.9C277.8,436.1,270.1,435.2,267.4,423.1z"/>
		</g>
	</g>
</g>
</svg>
